<?xml version="1.0" encoding="UTF-8" standalone="no"?>
<!-- Created with Inkscape (http://www.inkscape.org/) -->
<svg xmlns:dc="http://purl.org/dc/elements/1.1/" xmlns:cc="http://creativecommons.org/ns#" xmlns:rdf="http://www.w3.org/1999/02/22-rdf-syntax-ns#" xmlns:svg="http://www.w3.org/2000/svg" xmlns="http://www.w3.org/2000/svg" version="1.1" width="729.31891" height="649.09839" viewBox="0 0 20583 18319" id="svg2" xml:space="preserve" style="stroke-width:28.22200012;stroke-linejoin:round"><metadata id="metadata490"><rdf:RDF><cc:Work rdf:about=""><dc:format>image/svg+xml</dc:format><dc:type rdf:resource="http://purl.org/dc/dcmitype/StillImage"/><dc:title/></cc:Work></rdf:RDF></metadata><defs id="defs488"/><path d="m 10292,18319 -10292.00048005431,0 0,-18319 L 20583,0 l 0,18319 -10291,0 z" id="path4" style="fill:#ffffff;stroke:none"/><path d="m 10750.415,15605 -8584.0001,0 0,-14806 17169.0001,0 0,14806 -8585,0 z" id="path6" style="fill:none;stroke:#b3b3b3;stroke-linejoin:round"/><path d="m 19335.415,15604 -17169.0001,0" id="path8" style="fill:none;stroke:#b3b3b3;stroke-linejoin:round"/><path d="m 19335.415,13958 -17169.0001,0" id="path10" style="fill:none;stroke:#b3b3b3;stroke-linejoin:round"/><path d="m 19335.415,12313 -17169.0001,0" id="path12" style="fill:none;stroke:#b3b3b3;stroke-linejoin:round"/><path d="m 19335.415,10668 -17169.0001,0" id="path14" style="fill:none;stroke:#b3b3b3;stroke-linejoin:round"/><path d="m 19335.415,9024 -17169.0001,0" id="path16" style="fill:none;stroke:#b3b3b3;stroke-linejoin:round"/><path d="m 19335.415,7378 -17169.0001,0" id="path18" style="fill:none;stroke:#b3b3b3;stroke-linejoin:round"/><path d="m 19335.415,5733 -17169.0001,0" id="path20" style="fill:none;stroke:#b3b3b3;stroke-linejoin:round"/><path d="m 19335.415,4088 -17169.0001,0" id="path22" style="fill:none;stroke:#b3b3b3;stroke-linejoin:round"/><path d="m 19335.415,2443 -17169.0001,0" id="path24" style="fill:none;stroke:#b3b3b3;stroke-linejoin:round"/><path d="M 19335.415,798 2166.4149,798" id="path26" style="fill:none;stroke:#b3b3b3;stroke-linejoin:round"/><path d="m 2166.4149,15754 0,-150" id="path28" style="fill:none;stroke:#b3b3b3;stroke-linejoin:round"/><path d="m 2166.4149,15754 0,-150" id="path30" style="fill:none;stroke:#b3b3b3;stroke-linejoin:round"/><path d="m 2606.4149,15754 0,-150" id="path32" style="fill:none;stroke:#b3b3b3;stroke-linejoin:round"/><path d="m 2606.4149,15754 0,-150" id="path34" style="fill:none;stroke:#b3b3b3;stroke-linejoin:round"/><path d="m 3046.4149,15754 0,-150" id="path36" style="fill:none;stroke:#b3b3b3;stroke-linejoin:round"/><path d="m 3046.4149,15754 0,-150" id="path38" style="fill:none;stroke:#b3b3b3;stroke-linejoin:round"/><path d="m 3486.4149,15754 0,-150" id="path40" style="fill:none;stroke:#b3b3b3;stroke-linejoin:round"/><path d="m 3486.4149,15754 0,-150" id="path42" style="fill:none;stroke:#b3b3b3;stroke-linejoin:round"/><path d="m 3927.4149,15754 0,-150" id="path44" style="fill:none;stroke:#b3b3b3;stroke-linejoin:round"/><path d="m 3927.4149,15754 0,-150" id="path46" style="fill:none;stroke:#b3b3b3;stroke-linejoin:round"/><path d="m 4367.4149,15754 0,-150" id="path48" style="fill:none;stroke:#b3b3b3;stroke-linejoin:round"/><path d="m 4367.4149,15754 0,-150" id="path50" style="fill:none;stroke:#b3b3b3;stroke-linejoin:round"/><path d="m 4807.4149,15754 0,-150" id="path52" style="fill:none;stroke:#b3b3b3;stroke-linejoin:round"/><path d="m 4807.4149,15754 0,-150" id="path54" style="fill:none;stroke:#b3b3b3;stroke-linejoin:round"/><path d="m 5247.4149,15754 0,-150" id="path56" style="fill:none;stroke:#b3b3b3;stroke-linejoin:round"/><path d="m 5247.4149,15754 0,-150" id="path58" style="fill:none;stroke:#b3b3b3;stroke-linejoin:round"/><path d="m 5688.4149,15754 0,-150" id="path60" style="fill:none;stroke:#b3b3b3;stroke-linejoin:round"/><path d="m 5688.4149,15754 0,-150" id="path62" style="fill:none;stroke:#b3b3b3;stroke-linejoin:round"/><path d="m 6128.4149,15754 0,-150" id="path64" style="fill:none;stroke:#b3b3b3;stroke-linejoin:round"/><path d="m 6128.4149,15754 0,-150" id="path66" style="fill:none;stroke:#b3b3b3;stroke-linejoin:round"/><path d="m 6568.4149,15754 0,-150" id="path68" style="fill:none;stroke:#b3b3b3;stroke-linejoin:round"/><path d="m 6568.4149,15754 0,-150" id="path70" style="fill:none;stroke:#b3b3b3;stroke-linejoin:round"/><path d="m 7008.4149,15754 0,-150" id="path72" style="fill:none;stroke:#b3b3b3;stroke-linejoin:round"/><path d="m 7008.4149,15754 0,-150" id="path74" style="fill:none;stroke:#b3b3b3;stroke-linejoin:round"/><path d="m 7449.4149,15754 0,-150" id="path76" style="fill:none;stroke:#b3b3b3;stroke-linejoin:round"/><path d="m 7449.4149,15754 0,-150" id="path78" style="fill:none;stroke:#b3b3b3;stroke-linejoin:round"/><path d="m 7889.4149,15754 0,-150" id="path80" style="fill:none;stroke:#b3b3b3;stroke-linejoin:round"/><path d="m 7889.4149,15754 0,-150" id="path82" style="fill:none;stroke:#b3b3b3;stroke-linejoin:round"/><path d="m 8329.4149,15754 0,-150" id="path84" style="fill:none;stroke:#b3b3b3;stroke-linejoin:round"/><path d="m 8329.4149,15754 0,-150" id="path86" style="fill:none;stroke:#b3b3b3;stroke-linejoin:round"/><path d="m 8769.4149,15754 0,-150" id="path88" style="fill:none;stroke:#b3b3b3;stroke-linejoin:round"/><path d="m 8769.4149,15754 0,-150" id="path90" style="fill:none;stroke:#b3b3b3;stroke-linejoin:round"/><path d="m 9210.4149,15754 0,-150" id="path92" style="fill:none;stroke:#b3b3b3;stroke-linejoin:round"/><path d="m 9210.4149,15754 0,-150" id="path94" style="fill:none;stroke:#b3b3b3;stroke-linejoin:round"/><path d="m 9650.4149,15754 0,-150" id="path96" style="fill:none;stroke:#b3b3b3;stroke-linejoin:round"/><path d="m 9650.4149,15754 0,-150" id="path98" style="fill:none;stroke:#b3b3b3;stroke-linejoin:round"/><path d="m 10090.415,15754 0,-150" id="path100" style="fill:none;stroke:#b3b3b3;stroke-linejoin:round"/><path d="m 10090.415,15754 0,-150" id="path102" style="fill:none;stroke:#b3b3b3;stroke-linejoin:round"/><path d="m 10529.415,15754 0,-150" id="path104" style="fill:none;stroke:#b3b3b3;stroke-linejoin:round"/><path d="m 10529.415,15754 0,-150" id="path106" style="fill:none;stroke:#b3b3b3;stroke-linejoin:round"/><path d="m 10970.415,15754 0,-150" id="path108" style="fill:none;stroke:#b3b3b3;stroke-linejoin:round"/><path d="m 10970.415,15754 0,-150" id="path110" style="fill:none;stroke:#b3b3b3;stroke-linejoin:round"/><path d="m 11410.415,15754 0,-150" id="path112" style="fill:none;stroke:#b3b3b3;stroke-linejoin:round"/><path d="m 11410.415,15754 0,-150" id="path114" style="fill:none;stroke:#b3b3b3;stroke-linejoin:round"/><path d="m 11850.415,15754 0,-150" id="path116" style="fill:none;stroke:#b3b3b3;stroke-linejoin:round"/><path d="m 11850.415,15754 0,-150" id="path118" style="fill:none;stroke:#b3b3b3;stroke-linejoin:round"/><path d="m 12290.415,15754 0,-150" id="path120" style="fill:none;stroke:#b3b3b3;stroke-linejoin:round"/><path d="m 12290.415,15754 0,-150" id="path122" style="fill:none;stroke:#b3b3b3;stroke-linejoin:round"/><path d="m 12731.415,15754 0,-150" id="path124" style="fill:none;stroke:#b3b3b3;stroke-linejoin:round"/><path d="m 12731.415,15754 0,-150" id="path126" style="fill:none;stroke:#b3b3b3;stroke-linejoin:round"/><path d="m 13171.415,15754 0,-150" id="path128" style="fill:none;stroke:#b3b3b3;stroke-linejoin:round"/><path d="m 13171.415,15754 0,-150" id="path130" style="fill:none;stroke:#b3b3b3;stroke-linejoin:round"/><path d="m 13611.415,15754 0,-150" id="path132" style="fill:none;stroke:#b3b3b3;stroke-linejoin:round"/><path d="m 13611.415,15754 0,-150" id="path134" style="fill:none;stroke:#b3b3b3;stroke-linejoin:round"/><path d="m 14051.415,15754 0,-150" id="path136" style="fill:none;stroke:#b3b3b3;stroke-linejoin:round"/><path d="m 14051.415,15754 0,-150" id="path138" style="fill:none;stroke:#b3b3b3;stroke-linejoin:round"/><path d="m 14492.415,15754 0,-150" id="path140" style="fill:none;stroke:#b3b3b3;stroke-linejoin:round"/><path d="m 14492.415,15754 0,-150" id="path142" style="fill:none;stroke:#b3b3b3;stroke-linejoin:round"/><path d="m 14932.415,15754 0,-150" id="path144" style="fill:none;stroke:#b3b3b3;stroke-linejoin:round"/><path d="m 14932.415,15754 0,-150" id="path146" style="fill:none;stroke:#b3b3b3;stroke-linejoin:round"/><path d="m 15372.415,15754 0,-150" id="path148" style="fill:none;stroke:#b3b3b3;stroke-linejoin:round"/><path d="m 15372.415,15754 0,-150" id="path150" style="fill:none;stroke:#b3b3b3;stroke-linejoin:round"/><path d="m 15812.415,15754 0,-150" id="path152" style="fill:none;stroke:#b3b3b3;stroke-linejoin:round"/><path d="m 15812.415,15754 0,-150" id="path154" style="fill:none;stroke:#b3b3b3;stroke-linejoin:round"/><path d="m 16253.415,15754 0,-150" id="path156" style="fill:none;stroke:#b3b3b3;stroke-linejoin:round"/><path d="m 16253.415,15754 0,-150" id="path158" style="fill:none;stroke:#b3b3b3;stroke-linejoin:round"/><path d="m 16693.415,15754 0,-150" id="path160" style="fill:none;stroke:#b3b3b3;stroke-linejoin:round"/><path d="m 16693.415,15754 0,-150" id="path162" style="fill:none;stroke:#b3b3b3;stroke-linejoin:round"/><path d="m 17133.415,15754 0,-150" id="path164" style="fill:none;stroke:#b3b3b3;stroke-linejoin:round"/><path d="m 17133.415,15754 0,-150" id="path166" style="fill:none;stroke:#b3b3b3;stroke-linejoin:round"/><path d="m 17573.415,15754 0,-150" id="path168" style="fill:none;stroke:#b3b3b3;stroke-linejoin:round"/><path d="m 17573.415,15754 0,-150" id="path170" style="fill:none;stroke:#b3b3b3;stroke-linejoin:round"/><path d="m 18014.415,15754 0,-150" id="path172" style="fill:none;stroke:#b3b3b3;stroke-linejoin:round"/><path d="m 18014.415,15754 0,-150" id="path174" style="fill:none;stroke:#b3b3b3;stroke-linejoin:round"/><path d="m 18454.415,15754 0,-150" id="path176" style="fill:none;stroke:#b3b3b3;stroke-linejoin:round"/><path d="m 18454.415,15754 0,-150" id="path178" style="fill:none;stroke:#b3b3b3;stroke-linejoin:round"/><path d="m 18894.415,15754 0,-150" id="path180" style="fill:none;stroke:#b3b3b3;stroke-linejoin:round"/><path d="m 18894.415,15754 0,-150" id="path182" style="fill:none;stroke:#b3b3b3;stroke-linejoin:round"/><path d="m 19335.415,15754 0,-150" id="path184" style="fill:none;stroke:#b3b3b3;stroke-linejoin:round"/><path d="m 19335.415,15754 0,-150" id="path186" style="fill:none;stroke:#b3b3b3;stroke-linejoin:round"/><path d="m 2166.4149,15604 17169.0001,0" id="path188" style="fill:none;stroke:#b3b3b3;stroke-linejoin:round"/><path d="m 2016.4149,15604 150,0" id="path190" style="fill:none;stroke:#b3b3b3;stroke-linejoin:round"/><path d="m 2016.4149,15604 150,0" id="path192" style="fill:none;stroke:#b3b3b3;stroke-linejoin:round"/><path d="m 2016.4149,13958 150,0" id="path194" style="fill:none;stroke:#b3b3b3;stroke-linejoin:round"/><path d="m 2016.4149,13958 150,0" id="path196" style="fill:none;stroke:#b3b3b3;stroke-linejoin:round"/><path d="m 2016.4149,12313 150,0" id="path198" style="fill:none;stroke:#b3b3b3;stroke-linejoin:round"/><path d="m 2016.4149,12313 150,0" id="path200" style="fill:none;stroke:#b3b3b3;stroke-linejoin:round"/><path d="m 2016.4149,10668 150,0" id="path202" style="fill:none;stroke:#b3b3b3;stroke-linejoin:round"/><path d="m 2016.4149,10668 150,0" id="path204" style="fill:none;stroke:#b3b3b3;stroke-linejoin:round"/><path d="m 2016.4149,9024 150,0" id="path206" style="fill:none;stroke:#b3b3b3;stroke-linejoin:round"/><path d="m 2016.4149,9024 150,0" id="path208" style="fill:none;stroke:#b3b3b3;stroke-linejoin:round"/><path d="m 2016.4149,7378 150,0" id="path210" style="fill:none;stroke:#b3b3b3;stroke-linejoin:round"/><path d="m 2016.4149,7378 150,0" id="path212" style="fill:none;stroke:#b3b3b3;stroke-linejoin:round"/><path d="m 2016.4149,5733 150,0" id="path214" style="fill:none;stroke:#b3b3b3;stroke-linejoin:round"/><path d="m 2016.4149,5733 150,0" id="path216" style="fill:none;stroke:#b3b3b3;stroke-linejoin:round"/><path d="m 2016.4149,4088 150,0" id="path218" style="fill:none;stroke:#b3b3b3;stroke-linejoin:round"/><path d="m 2016.4149,4088 150,0" id="path220" style="fill:none;stroke:#b3b3b3;stroke-linejoin:round"/><path d="m 2016.4149,2443 150,0" id="path222" style="fill:none;stroke:#b3b3b3;stroke-linejoin:round"/><path d="m 2016.4149,2443 150,0" id="path224" style="fill:none;stroke:#b3b3b3;stroke-linejoin:round"/><path d="m 2016.4149,798 150,0" id="path226" style="fill:none;stroke:#b3b3b3;stroke-linejoin:round"/><path d="m 2016.4149,798 150,0" id="path228" style="fill:none;stroke:#b3b3b3;stroke-linejoin:round"/><path d="m 2166.4149,15604 0,-14806" id="path230" style="fill:none;stroke:#b3b3b3;stroke-linejoin:round"/><path d="m 18985.415,15604 259,0 0,-50 -259,0 0,50 z" id="path232" style="fill:#0066cc;stroke:none"/><path d="m 18545.415,15604 259,0 0,-60 -259,0 0,60 z" id="path234" style="fill:#0066cc;stroke:none"/><path d="m 18104.415,15604 259,0 0,-122 -259,0 0,122 z" id="path236" style="fill:#0066cc;stroke:none"/><path d="m 17664.415,15604 259,0 0,-199 -259,0 0,199 z" id="path238" style="fill:#0066cc;stroke:none"/><path d="m 17224.415,15604 259,0 0,-277 -259,0 0,277 z" id="path240" style="fill:#0066cc;stroke:none"/><path d="m 16784.415,15604 259,0 0,-315 -259,0 0,315 z" id="path242" style="fill:#0066cc;stroke:none"/><path d="m 16343.415,15604 259,0 0,-315 -259,0 0,315 z" id="path244" style="fill:#0066cc;stroke:none"/><path d="m 15903.415,15604 259,0 0,-662 -259,0 0,662 z" id="path246" style="fill:#0066cc;stroke:none"/><path d="m 15463.415,15604 259,0 0,-662 -259,0 0,662 z" id="path248" style="fill:#0066cc;stroke:none"/><path d="m 15023.415,15604 259,0 0,-701 -259,0 0,701 z" id="path250" style="fill:#0066cc;stroke:none"/><path d="m 14582.415,15604 259,0 0,-624 -259,0 0,624 z" id="path252" style="fill:#0066cc;stroke:none"/><path d="m 14142.415,15604 259,0 0,-739 -259,0 0,739 z" id="path254" style="fill:#0066cc;stroke:none"/><path d="m 13702.415,15604 259,0 0,-932 -259,0 0,932 z" id="path256" style="fill:#0066cc;stroke:none"/><path d="m 13262.415,15604 259,0 0,-971 -259,0 0,971 z" id="path258" style="fill:#0066cc;stroke:none"/><path d="m 12821.415,15604 259,0 0,-932 -259,0 0,932 z" id="path260" style="fill:#0066cc;stroke:none"/><path d="m 12381.415,15604 259,0 0,-971 -259,0 0,971 z" id="path262" style="fill:#0066cc;stroke:none"/><path d="m 11941.415,15604 259,0 0,-1125 -259,0 0,1125 z" id="path264" style="fill:#0066cc;stroke:none"/><path d="m 11501.415,15604 259,0 0,-1125 -259,0 0,1125 z" id="path266" style="fill:#0066cc;stroke:none"/><path d="m 11060.415,15604 259,0 0,-1048 -259,0 0,1048 z" id="path268" style="fill:#0066cc;stroke:none"/><path d="m 10620.415,15604 259,0 0,-971 -259,0 0,971 z" id="path270" style="fill:#0066cc;stroke:none"/><path d="m 10181.415,15604 258,0 0,-1202 -258,0 0,1202 z" id="path272" style="fill:#0066cc;stroke:none"/><path d="m 9741.4149,15604 258,0 0,-1279 -258,0 0,1279 z" id="path274" style="fill:#0066cc;stroke:none"/><path d="m 9300.4149,15604 259,0 0,-1279 -259,0 0,1279 z" id="path276" style="fill:#0066cc;stroke:none"/><path d="m 8860.4149,15604 259,0 0,-1318 -259,0 0,1318 z" id="path278" style="fill:#0066cc;stroke:none"/><path d="m 8420.4149,15604 259,0 0,-1318 -259,0 0,1318 z" id="path280" style="fill:#0066cc;stroke:none"/><path d="m 7979.4149,15604 259,0 0,-1279 -259,0 0,1279 z" id="path282" style="fill:#0066cc;stroke:none"/><path d="m 7539.4149,15604 259,0 0,-1202 -259,0 0,1202 z" id="path284" style="fill:#0066cc;stroke:none"/><path d="m 7099.4149,15604 259,0 0,-1318 -259,0 0,1318 z" id="path286" style="fill:#0066cc;stroke:none"/><path d="m 6659.4149,15604 259,0 0,-1627 -259,0 0,1627 z" id="path288" style="fill:#0066cc;stroke:none"/><path d="m 6218.4149,15604 259,0 0,-1858 -259,0 0,1858 z" id="path290" style="fill:#0066cc;stroke:none"/><path d="m 5778.4149,15604 259,0 0,-1974 -259,0 0,1974 z" id="path292" style="fill:#0066cc;stroke:none"/><path d="m 5338.4149,15604 259,0 0,-2282 -259,0 0,2282 z" id="path294" style="fill:#0066cc;stroke:none"/><path d="m 4898.4149,15604 259,0 0,-2630 -259,0 0,2630 z" id="path296" style="fill:#0066cc;stroke:none"/><path d="m 4457.4149,15604 259,0 0,-3015 -259,0 0,3015 z" id="path298" style="fill:#0066cc;stroke:none"/><path d="m 4017.4149,15604 259,0 0,-3941 -259,0 0,3941 z" id="path300" style="fill:#0066cc;stroke:none"/><path d="m 3577.4149,15604 259,0 0,-4905 -259,0 0,4905 z" id="path302" style="fill:#0066cc;stroke:none"/><path d="m 3137.4149,15604 259,0 0,-6563 -259,0 0,6563 z" id="path304" style="fill:#0066cc;stroke:none"/><path d="m 2696.4149,15604 259,0 0,-9533 -259,0 0,9533 z" id="path306" style="fill:#0066cc;stroke:none"/><path d="m 2256.4149,15604 259,0 0,-12619 -259,0 0,12619 z" id="path308" style="fill:#0066cc;stroke:none"/><text x="26.414888" id="text310"><tspan id="tspan312" style="font-size:494px;font-weight:400;font-family:Liberation Sans"><tspan x="1841.4149" y="16308" id="tspan314"><tspan id="tspan316" style="fill:#000000;stroke:none">1977</tspan></tspan></tspan></text>
<text x="26.414888" id="text318"><tspan id="tspan320" style="font-size:494px;font-weight:400;font-family:Liberation Sans"><tspan x="3602.4148" y="16308" id="tspan322"><tspan id="tspan324" style="fill:#000000;stroke:none">1981</tspan></tspan></tspan></text>
<text x="26.414888" id="text326"><tspan id="tspan328" style="font-size:494px;font-weight:400;font-family:Liberation Sans"><tspan x="5363.415" y="16308" id="tspan330"><tspan id="tspan332" style="fill:#000000;stroke:none">1985</tspan></tspan></tspan></text>
<text x="26.414888" id="text334"><tspan id="tspan336" style="font-size:494px;font-weight:400;font-family:Liberation Sans"><tspan x="7564.415" y="16308" id="tspan338"><tspan id="tspan340" style="fill:#000000;stroke:none">1990</tspan></tspan></tspan></text>
<text x="26.414888" id="text342"><tspan id="tspan344" style="font-size:494px;font-weight:400;font-family:Liberation Sans"><tspan x="9765.415" y="16308" id="tspan346"><tspan id="tspan348" style="fill:#000000;stroke:none">1995</tspan></tspan></tspan></text>
<text x="26.414888" id="text350"><tspan id="tspan352" style="font-size:494px;font-weight:400;font-family:Liberation Sans"><tspan x="11967.415" y="16308" id="tspan354"><tspan id="tspan356" style="fill:#000000;stroke:none">2000</tspan></tspan></tspan></text>
<text x="26.414888" id="text358"><tspan id="tspan360" style="font-size:494px;font-weight:400;font-family:Liberation Sans"><tspan x="14168.415" y="16308" id="tspan362"><tspan id="tspan364" style="fill:#000000;stroke:none">2005</tspan></tspan></tspan></text>
<text x="26.414888" id="text366"><tspan id="tspan368" style="font-size:494px;font-weight:400;font-family:Liberation Sans"><tspan x="16369.415" y="16308" id="tspan370"><tspan id="tspan372" style="fill:#000000;stroke:none">2010</tspan></tspan></tspan></text>
<text x="26.414888" id="text374"><tspan id="tspan376" style="font-size:494px;font-weight:400;font-family:Liberation Sans"><tspan x="18570.414" y="16308" id="tspan378"><tspan id="tspan380" style="fill:#000000;stroke:none">2015</tspan></tspan></tspan></text>
<text x="26.414888" id="text390"><tspan id="tspan392" style="font-size:494px;font-weight:400;font-family:Liberation Sans"><tspan x="1372.4149" y="14126" id="tspan394"><tspan id="tspan396" style="fill:#000000;stroke:none">10</tspan></tspan></tspan></text>
<text x="26.414888" id="text398"><tspan id="tspan400" style="font-size:494px;font-weight:400;font-family:Liberation Sans"><tspan x="1372.4149" y="12481" id="tspan402"><tspan id="tspan404" style="fill:#000000;stroke:none">20</tspan></tspan></tspan></text>
<text x="26.414888" id="text406"><tspan id="tspan408" style="font-size:494px;font-weight:400;font-family:Liberation Sans"><tspan x="1372.4149" y="10836" id="tspan410"><tspan id="tspan412" style="fill:#000000;stroke:none">30</tspan></tspan></tspan></text>
<text x="26.414888" id="text414"><tspan id="tspan416" style="font-size:494px;font-weight:400;font-family:Liberation Sans"><tspan x="1372.4149" y="9191" id="tspan418"><tspan id="tspan420" style="fill:#000000;stroke:none">40</tspan></tspan></tspan></text>
<text x="26.414888" id="text422"><tspan id="tspan424" style="font-size:494px;font-weight:400;font-family:Liberation Sans"><tspan x="1372.4149" y="7545" id="tspan426"><tspan id="tspan428" style="fill:#000000;stroke:none">50</tspan></tspan></tspan></text>
<text x="26.414888" id="text430"><tspan id="tspan432" style="font-size:494px;font-weight:400;font-family:Liberation Sans"><tspan x="1372.4149" y="5900" id="tspan434"><tspan id="tspan436" style="fill:#000000;stroke:none">60</tspan></tspan></tspan></text>
<text x="26.414888" id="text438"><tspan id="tspan440" style="font-size:494px;font-weight:400;font-family:Liberation Sans"><tspan x="1372.4149" y="4255" id="tspan442"><tspan id="tspan444" style="fill:#000000;stroke:none">70</tspan></tspan></tspan></text>
<text x="26.414888" id="text446"><tspan id="tspan448" style="font-size:494px;font-weight:400;font-family:Liberation Sans"><tspan x="1372.4149" y="2610" id="tspan450"><tspan id="tspan452" style="fill:#000000;stroke:none">80</tspan></tspan></tspan></text>
<text x="26.414888" id="text454"><tspan id="tspan456" style="font-size:494px;font-weight:400;font-family:Liberation Sans"><tspan x="1372.4149" y="965" id="tspan458"><tspan id="tspan460" style="fill:#000000;stroke:none">90</tspan></tspan></tspan></text>
<rect width="13351.858" height="3071.0933" x="4878.6489" y="5112.9219" id="rect3467" style="opacity:0.98999999;fill:#fbfbfb;fill-opacity:1;stroke:#666666;stroke-width:23.1166954;stroke-opacity:1"/><text x="1002.7026" y="4210.812" transform="scale(1.0325099,0.96851372)" id="text462" style="font-size:903.11114502px;font-weight:normal;fill:#333333;fill-opacity:1;stroke:#333333;stroke-width:23.68894196;stroke-opacity:1;-inkscape-font-specification:Liberation Sans"><tspan id="tspan464" style="font-size:903.11114502px;font-weight:normal;fill:#333333;fill-opacity:1;stroke:#333333;stroke-width:23.68894196;stroke-opacity:1;font-family:Liberation Sans;-inkscape-font-specification:Liberation Sans"><tspan x="5046.8281" y="6962.2949" id="tspan466" style="font-size:903.11114502px;font-weight:normal;fill:#333333;fill-opacity:1;stroke:#333333;stroke-width:23.68894196;stroke-opacity:1;-inkscape-font-specification:Liberation Sans"><tspan id="tspan468" style="font-size:903.11114502px;font-weight:normal;fill:#333333;fill-opacity:1;stroke:#333333;stroke-width:23.68894196;stroke-opacity:1;-inkscape-font-specification:Liberation Sans">Price history of silicon PV cells</tspan></tspan></tspan></text>
<text x="2284.2869" y="3918.7852" transform="scale(1.0325099,0.96851372)" id="text470" style="font-size:620.88891602px;font-weight:normal;fill:#333333;fill-opacity:1;stroke:#333333;stroke-width:23.68894196;stroke-opacity:1;-inkscape-font-specification:Liberation Sans"><tspan id="tspan472" style="font-size:620.88891602px;font-weight:normal;fill:#333333;fill-opacity:1;stroke:#333333;stroke-width:23.68894196;stroke-opacity:1;font-family:Liberation Sans;-inkscape-font-specification:Liberation Sans"><tspan x="8905.3047" y="7902.4756" id="tspan474" style="font-size:620.88891602px;font-weight:normal;fill:#333333;fill-opacity:1;stroke:#333333;stroke-width:23.68894196;stroke-opacity:1;-inkscape-font-specification:Liberation Sans"><tspan id="tspan476" style="font-size:620.88891602px;font-weight:normal;fill:#333333;fill-opacity:1;stroke:#333333;stroke-width:23.68894196;stroke-opacity:1;-inkscape-font-specification:Liberation Sans">in US$ per watt</tspan></tspan></tspan></text>
<g transform="translate(-1234.6921,-2878.6138)" id="g4254"><rect width="3591.4131" height="1754.5834" x="3755.905" y="4811.6387" id="rect4248" style="opacity:0.98999999;fill:#ffffff;fill-opacity:1;stroke:none"/><text x="4002.6433" y="5963.0835" id="text4250" xml:space="preserve" style="font-size:903.11114502px;font-style:normal;font-variant:normal;font-weight:bold;font-stretch:normal;line-height:125%;letter-spacing:0px;word-spacing:0px;fill:#0066cc;fill-opacity:1;stroke:none;font-family:Liberation Sans;-inkscape-font-specification:Liberation Sans Bold"><tspan x="4002.6433" y="5963.0835" id="tspan4252">$76.00</tspan></text>
</g><rect width="3399.5056" height="2028.7371" x="16790.912" y="13173.326" id="rect4248-0" style="opacity:0.98999999;fill:#ffffff;fill-opacity:1;stroke:none"/><text x="17558.541" y="14516.679" id="text4250-2" xml:space="preserve" style="font-size:903.11114502px;font-style:normal;font-variant:normal;font-weight:bold;font-stretch:normal;line-height:125%;letter-spacing:0px;word-spacing:0px;fill:#0066cc;fill-opacity:1;stroke:none;font-family:Liberation Sans;-inkscape-font-specification:Liberation Sans Bold"><tspan x="17558.541" y="14516.679" id="tspan4252-9">$0.30</tspan></text>
<text x="2160.9727" y="17770.693" id="text4289" xml:space="preserve" style="font-size:451.55557251px;font-style:normal;font-variant:normal;font-weight:normal;font-stretch:normal;line-height:125%;letter-spacing:0px;word-spacing:0px;fill:#666666;fill-opacity:1;stroke:none;font-family:Liberation Sans;-inkscape-font-specification:Liberation Sans"><tspan x="2160.9727" y="17770.693" id="tspan4291">Source: Bloomberg New Energy Finance &amp; pv.energytrend.com</tspan></text>
<text x="-11222.361" y="713.20459" transform="matrix(0,-0.94363534,1.0597314,0,0,0)" id="text3228" xml:space="preserve" style="font-size:620.88891602px;font-style:normal;font-variant:normal;font-weight:normal;font-stretch:normal;text-align:start;line-height:125%;letter-spacing:0px;word-spacing:0px;writing-mode:lr-tb;text-anchor:start;fill:#000000;fill-opacity:1;stroke:none;font-family:Liberation Sans;-inkscape-font-specification:Liberation Sans"><tspan x="-11222.361" y="713.20459" id="tspan3230">$/watt</tspan></text>
</svg>