<svg class="marks" width="589" height="554" xmlns="http://www.w3.org/2000/svg"><g transform="translate(46,6)"><g id="g352" class="type-group"><g transform="translate(0,0)"><rect class="background" style="pointer-events: none; fill: none;" width="537" height="500"></rect><g id="g353" class="type-group"><g transform="translate(0,500)"><rect class="background" style="pointer-events: none; fill: none;" width="0" height="0"></rect><g id="g354" class="type-rule" style="pointer-events: none;"><line x1="36.0041322314054" y1="-500" x2="36.0041322314054" y2="0" style="fill: none; stroke: rgb(216, 216, 216); stroke-width: 1; opacity: 1;"></line><line x1="146.9545454545457" y1="-500" x2="146.9545454545457" y2="0" style="fill: none; stroke: rgb(216, 216, 216); stroke-width: 1; opacity: 1;"></line><line x1="257.90495867768595" y1="-500" x2="257.90495867768595" y2="0" style="fill: none; stroke: rgb(216, 216, 216); stroke-width: 1; opacity: 1;"></line><line x1="368.85537190082624" y1="-500" x2="368.85537190082624" y2="0" style="fill: none; stroke: rgb(216, 216, 216); stroke-width: 1; opacity: 1;"></line><line x1="479.80578512396653" y1="-500" x2="479.80578512396653" y2="0" style="fill: none; stroke: rgb(216, 216, 216); stroke-width: 1; opacity: 1;"></line></g><g id="g355" class="type-rule" style="pointer-events: none;"><line x1="36.0041322314054" y1="0" x2="36.0041322314054" y2="6" style="fill: none; stroke: rgb(0, 0, 0); stroke-width: 1; opacity: 1;"></line><line x1="146.9545454545457" y1="0" x2="146.9545454545457" y2="6" style="fill: none; stroke: rgb(0, 0, 0); stroke-width: 1; opacity: 1;"></line><line x1="257.90495867768595" y1="0" x2="257.90495867768595" y2="6" style="fill: none; stroke: rgb(0, 0, 0); stroke-width: 1; opacity: 1;"></line><line x1="368.85537190082624" y1="0" x2="368.85537190082624" y2="6" style="fill: none; stroke: rgb(0, 0, 0); stroke-width: 1; opacity: 1;"></line><line x1="479.80578512396653" y1="0" x2="479.80578512396653" y2="6" style="fill: none; stroke: rgb(0, 0, 0); stroke-width: 1; opacity: 1;"></line></g><g id="g356" class="type-rule" style="pointer-events: none;"></g><g id="g357" class="type-text"><text x="36.0041322314054" y="9" text-anchor="middle" dy=".9em" style="font: 11px sans-serif; fill: rgb(0, 0, 0); opacity: 1;">1970</text><text x="146.9545454545457" y="9" text-anchor="middle" dy=".9em" style="font: 11px sans-serif; fill: rgb(0, 0, 0); opacity: 1;">1980</text><text x="257.90495867768595" y="9" text-anchor="middle" dy=".9em" style="font: 11px sans-serif; fill: rgb(0, 0, 0); opacity: 1;">1990</text><text x="368.85537190082624" y="9" text-anchor="middle" dy=".9em" style="font: 11px sans-serif; fill: rgb(0, 0, 0); opacity: 1;">2000</text><text x="479.80578512396653" y="9" text-anchor="middle" dy=".9em" style="font: 11px sans-serif; fill: rgb(0, 0, 0); opacity: 1;">2010</text></g><g id="g358" class="type-path" style="pointer-events: none;"><path transform="translate(0.5,0.5)" d="M0,6V0H537V6" style="fill: none; stroke: rgb(0, 0, 0); stroke-width: 1;"></path></g><g id="g359" class="type-text"><text x="268" y="35" text-anchor="middle" dy=".35em" style="font: bold 11px sans-serif; fill: rgb(0, 0, 0);">Year</text></g></g></g><g id="g360" class="type-group"><g transform="translate(0,0)"><rect class="background" style="pointer-events: none; fill: none;" width="0" height="0"></rect><g id="g361" class="type-rule" style="pointer-events: none;"><line x1="0" y1="486.54154426500975" x2="537" y2="486.54154426500975" style="fill: none; stroke: rgb(216, 216, 216); stroke-width: 1; opacity: 1;"></line><line x1="0" y1="439.61258447540746" x2="537" y2="439.61258447540746" style="fill: none; stroke: rgb(216, 216, 216); stroke-width: 1; opacity: 1;"></line><line x1="0" y1="392.68362468580517" x2="537" y2="392.68362468580517" style="fill: none; stroke: rgb(216, 216, 216); stroke-width: 1; opacity: 1;"></line><line x1="0" y1="345.7546648962025" x2="537" y2="345.7546648962025" style="fill: none; stroke: rgb(216, 216, 216); stroke-width: 1; opacity: 1;"></line><line x1="0" y1="298.82570510660025" x2="537" y2="298.82570510660025" style="fill: none; stroke: rgb(216, 216, 216); stroke-width: 1; opacity: 1;"></line><line x1="0" y1="251.89674531699757" x2="537" y2="251.89674531699757" style="fill: none; stroke: rgb(216, 216, 216); stroke-width: 1; opacity: 1;"></line><line x1="0" y1="204.9677855273953" x2="537" y2="204.9677855273953" style="fill: none; stroke: rgb(216, 216, 216); stroke-width: 1; opacity: 1;"></line><line x1="0" y1="158.03882573779305" x2="537" y2="158.03882573779305" style="fill: none; stroke: rgb(216, 216, 216); stroke-width: 1; opacity: 1;"></line><line x1="0" y1="111.10986594819033" x2="537" y2="111.10986594819033" style="fill: none; stroke: rgb(216, 216, 216); stroke-width: 1; opacity: 1;"></line><line x1="0" y1="64.18090615858807" x2="537" y2="64.18090615858807" style="fill: none; stroke: rgb(216, 216, 216); stroke-width: 1; opacity: 1;"></line><line x1="0" y1="17.251946368985358" x2="537" y2="17.251946368985358" style="fill: none; stroke: rgb(216, 216, 216); stroke-width: 1; opacity: 1;"></line></g><g id="g362" class="type-rule" style="pointer-events: none;"><line x1="-6" y1="486.54154426500975" x2="0" y2="486.54154426500975" style="fill: none; stroke: rgb(0, 0, 0); stroke-width: 1; opacity: 1;"></line><line x1="-6" y1="439.61258447540746" x2="0" y2="439.61258447540746" style="fill: none; stroke: rgb(0, 0, 0); stroke-width: 1; opacity: 1;"></line><line x1="-6" y1="392.68362468580517" x2="0" y2="392.68362468580517" style="fill: none; stroke: rgb(0, 0, 0); stroke-width: 1; opacity: 1;"></line><line x1="-6" y1="345.7546648962025" x2="0" y2="345.7546648962025" style="fill: none; stroke: rgb(0, 0, 0); stroke-width: 1; opacity: 1;"></line><line x1="-6" y1="298.82570510660025" x2="0" y2="298.82570510660025" style="fill: none; stroke: rgb(0, 0, 0); stroke-width: 1; opacity: 1;"></line><line x1="-6" y1="251.89674531699757" x2="0" y2="251.89674531699757" style="fill: none; stroke: rgb(0, 0, 0); stroke-width: 1; opacity: 1;"></line><line x1="-6" y1="204.9677855273953" x2="0" y2="204.9677855273953" style="fill: none; stroke: rgb(0, 0, 0); stroke-width: 1; opacity: 1;"></line><line x1="-6" y1="158.03882573779305" x2="0" y2="158.03882573779305" style="fill: none; stroke: rgb(0, 0, 0); stroke-width: 1; opacity: 1;"></line><line x1="-6" y1="111.10986594819033" x2="0" y2="111.10986594819033" style="fill: none; stroke: rgb(0, 0, 0); stroke-width: 1; opacity: 1;"></line><line x1="-6" y1="64.18090615858807" x2="0" y2="64.18090615858807" style="fill: none; stroke: rgb(0, 0, 0); stroke-width: 1; opacity: 1;"></line><line x1="-6" y1="17.251946368985358" x2="0" y2="17.251946368985358" style="fill: none; stroke: rgb(0, 0, 0); stroke-width: 1; opacity: 1;"></line></g><g id="g363" class="type-rule" style="pointer-events: none;"></g><g id="g364" class="type-text"><text x="-9" y="486.54154426500975" text-anchor="end" dy=".35em" style="font: 11px sans-serif; fill: rgb(0, 0, 0); opacity: 1;">5.9</text><text x="-9" y="439.61258447540746" text-anchor="end" dy=".35em" style="font: 11px sans-serif; fill: rgb(0, 0, 0); opacity: 1;">6.0</text><text x="-9" y="392.68362468580517" text-anchor="end" dy=".35em" style="font: 11px sans-serif; fill: rgb(0, 0, 0); opacity: 1;">6.1</text><text x="-9" y="345.7546648962025" text-anchor="end" dy=".35em" style="font: 11px sans-serif; fill: rgb(0, 0, 0); opacity: 1;">6.2</text><text x="-9" y="298.82570510660025" text-anchor="end" dy=".35em" style="font: 11px sans-serif; fill: rgb(0, 0, 0); opacity: 1;">6.3</text><text x="-9" y="251.89674531699757" text-anchor="end" dy=".35em" style="font: 11px sans-serif; fill: rgb(0, 0, 0); opacity: 1;">6.4</text><text x="-9" y="204.9677855273953" text-anchor="end" dy=".35em" style="font: 11px sans-serif; fill: rgb(0, 0, 0); opacity: 1;">6.5</text><text x="-9" y="158.03882573779305" text-anchor="end" dy=".35em" style="font: 11px sans-serif; fill: rgb(0, 0, 0); opacity: 1;">6.6</text><text x="-9" y="111.10986594819033" text-anchor="end" dy=".35em" style="font: 11px sans-serif; fill: rgb(0, 0, 0); opacity: 1;">6.7</text><text x="-9" y="64.18090615858807" text-anchor="end" dy=".35em" style="font: 11px sans-serif; fill: rgb(0, 0, 0); opacity: 1;">6.8</text><text x="-9" y="17.251946368985358" text-anchor="end" dy=".35em" style="font: 11px sans-serif; fill: rgb(0, 0, 0); opacity: 1;">6.9</text></g><g id="g365" class="type-path" style="pointer-events: none;"><path transform="translate(0.5,0.5)" d="M-6,0H0V500H-6" style="fill: none; stroke: rgb(0, 0, 0); stroke-width: 1;"></path></g><g id="g366" class="type-text"><text x="-35" y="250" text-anchor="middle" transform="rotate(-90 -35,250)" dy=".35em" style="font: bold 11px sans-serif; fill: rgb(0, 0, 0);">ln(ef)</text></g></g></g><g id="g367" class="type-group"><g transform="translate(0,0)"><rect class="background" width="0" height="0" style="fill: none;"></rect><g id="g368" class="type-line"><path d="M24.40909090909137,34.75571081624529L35.5041322314054,22.72727272727448L46.599173553719424,33.25287368439489L57.694214876033456,33.78724888070989L68.78925619834749,39.75228316966767L79.88429752066152,53.855000577714975L90.97933884297555,67.7315343827829L102.07438016528957,64.8330957498991L113.1694214876036,72.18145419147648L124.26446280991763,103.74183493336741L135.35950413223168,108.61183247559487L146.4545454545457,123.66080113842415" style="fill: none; stroke: rgb(255, 128, 128); stroke-width: 2;"></path></g></g><g transform="translate(0,0)"><rect class="background" width="0" height="0" style="fill: none;"></rect><g id="g369" class="type-line"><path d="M146.4545454545457,123.66080113842415L157.5495867768597,149.13985511485484L168.64462809917373,165.50230938401782L179.73966942148778,189.30749342751508L190.8347107438018,196.9652325359606L201.92975206611584,217.34898056489237L213.02479338842986,233.12906082669903L224.1198347107439,232.19227943650571L235.2148760330579,231.13263184209347L246.30991735537194,240.4664867298608L257.40495867768595,252.32368610545768L268.5,255.8679413839815L279.595041322314,263.2355040321105L290.6900826446281,265.754062742732L301.7851239669421,276.0441919801816L312.8801652892561,283.230643365606L323.9752066115701,284.62818581128124L335.0702479338842,298.4391164235327L346.1652892561982,315.35982166274226L357.2603305785122,331.17466579147003L368.35537190082624,336.8867311285343L379.4504132231403,351.0118742783317L390.54545454545433,355.95206163648663L401.6404958677683,365.2219341424697L412.7355371900824,373.15264622269103L423.8305785123964,387.0219933757474L434.9256198347104,405.34829544581254L446.02066115702445,405.7368113048227L457.1157024793385,418.19615447929334L468.21074380165254,437.5025529279162L479.30578512396653,430.9686834689691L490.4008264462806,449.35495018183525L501.4958677685946,477.2727272727251L512.5909090909087,475.1336684951818" style="fill: none; stroke: rgb(160, 0, 0); stroke-width: 2;"></path></g></g></g><g id="g370" class="type-symbol"><path transform="translate(24.40909090909137,34.75571081624529)" d="M0,2.1850968611841584A2.1850968611841584,2.1850968611841584 0 1,1 0,-2.1850968611841584A2.1850968611841584,2.1850968611841584 0 1,1 0,2.1850968611841584Z" style="fill: rgb(255, 128, 128); fill-opacity: 1; stroke: rgb(255, 128, 128);"></path><path transform="translate(35.5041322314054,22.72727272727448)" d="M0,2.1850968611841584A2.1850968611841584,2.1850968611841584 0 1,1 0,-2.1850968611841584A2.1850968611841584,2.1850968611841584 0 1,1 0,2.1850968611841584Z" style="fill: rgb(255, 128, 128); fill-opacity: 1; stroke: rgb(255, 128, 128);"></path><path transform="translate(46.599173553719424,33.25287368439489)" d="M0,2.1850968611841584A2.1850968611841584,2.1850968611841584 0 1,1 0,-2.1850968611841584A2.1850968611841584,2.1850968611841584 0 1,1 0,2.1850968611841584Z" style="fill: rgb(255, 128, 128); fill-opacity: 1; stroke: rgb(255, 128, 128);"></path><path transform="translate(57.694214876033456,33.78724888070989)" d="M0,2.1850968611841584A2.1850968611841584,2.1850968611841584 0 1,1 0,-2.1850968611841584A2.1850968611841584,2.1850968611841584 0 1,1 0,2.1850968611841584Z" style="fill: rgb(255, 128, 128); fill-opacity: 1; stroke: rgb(255, 128, 128);"></path><path transform="translate(68.78925619834749,39.75228316966767)" d="M0,2.1850968611841584A2.1850968611841584,2.1850968611841584 0 1,1 0,-2.1850968611841584A2.1850968611841584,2.1850968611841584 0 1,1 0,2.1850968611841584Z" style="fill: rgb(255, 128, 128); fill-opacity: 1; stroke: rgb(255, 128, 128);"></path><path transform="translate(79.88429752066152,53.855000577714975)" d="M0,2.1850968611841584A2.1850968611841584,2.1850968611841584 0 1,1 0,-2.1850968611841584A2.1850968611841584,2.1850968611841584 0 1,1 0,2.1850968611841584Z" style="fill: rgb(255, 128, 128); fill-opacity: 1; stroke: rgb(255, 128, 128);"></path><path transform="translate(90.97933884297555,67.7315343827829)" d="M0,2.1850968611841584A2.1850968611841584,2.1850968611841584 0 1,1 0,-2.1850968611841584A2.1850968611841584,2.1850968611841584 0 1,1 0,2.1850968611841584Z" style="fill: rgb(255, 128, 128); fill-opacity: 1; stroke: rgb(255, 128, 128);"></path><path transform="translate(102.07438016528957,64.8330957498991)" d="M0,2.1850968611841584A2.1850968611841584,2.1850968611841584 0 1,1 0,-2.1850968611841584A2.1850968611841584,2.1850968611841584 0 1,1 0,2.1850968611841584Z" style="fill: rgb(255, 128, 128); fill-opacity: 1; stroke: rgb(255, 128, 128);"></path><path transform="translate(113.1694214876036,72.18145419147648)" d="M0,2.1850968611841584A2.1850968611841584,2.1850968611841584 0 1,1 0,-2.1850968611841584A2.1850968611841584,2.1850968611841584 0 1,1 0,2.1850968611841584Z" style="fill: rgb(255, 128, 128); fill-opacity: 1; stroke: rgb(255, 128, 128);"></path><path transform="translate(124.26446280991763,103.74183493336741)" d="M0,2.1850968611841584A2.1850968611841584,2.1850968611841584 0 1,1 0,-2.1850968611841584A2.1850968611841584,2.1850968611841584 0 1,1 0,2.1850968611841584Z" style="fill: rgb(255, 128, 128); fill-opacity: 1; stroke: rgb(255, 128, 128);"></path><path transform="translate(135.35950413223168,108.61183247559487)" d="M0,2.1850968611841584A2.1850968611841584,2.1850968611841584 0 1,1 0,-2.1850968611841584A2.1850968611841584,2.1850968611841584 0 1,1 0,2.1850968611841584Z" style="fill: rgb(255, 128, 128); fill-opacity: 1; stroke: rgb(255, 128, 128);"></path><path transform="translate(146.4545454545457,123.66080113842415)" d="M0,2.1850968611841584A2.1850968611841584,2.1850968611841584 0 1,1 0,-2.1850968611841584A2.1850968611841584,2.1850968611841584 0 1,1 0,2.1850968611841584Z" style="fill: rgb(255, 128, 128); fill-opacity: 1; stroke: rgb(255, 128, 128);"></path><path transform="translate(146.4545454545457,123.66080113842415)" d="M0,2.1850968611841584A2.1850968611841584,2.1850968611841584 0 1,1 0,-2.1850968611841584A2.1850968611841584,2.1850968611841584 0 1,1 0,2.1850968611841584Z" style="fill: rgb(160, 0, 0); fill-opacity: 1; stroke: rgb(160, 0, 0);"></path><path transform="translate(157.5495867768597,149.13985511485484)" d="M0,2.1850968611841584A2.1850968611841584,2.1850968611841584 0 1,1 0,-2.1850968611841584A2.1850968611841584,2.1850968611841584 0 1,1 0,2.1850968611841584Z" style="fill: rgb(160, 0, 0); fill-opacity: 1; stroke: rgb(160, 0, 0);"></path><path transform="translate(168.64462809917373,165.50230938401782)" d="M0,2.1850968611841584A2.1850968611841584,2.1850968611841584 0 1,1 0,-2.1850968611841584A2.1850968611841584,2.1850968611841584 0 1,1 0,2.1850968611841584Z" style="fill: rgb(160, 0, 0); fill-opacity: 1; stroke: rgb(160, 0, 0);"></path><path transform="translate(179.73966942148778,189.30749342751508)" d="M0,2.1850968611841584A2.1850968611841584,2.1850968611841584 0 1,1 0,-2.1850968611841584A2.1850968611841584,2.1850968611841584 0 1,1 0,2.1850968611841584Z" style="fill: rgb(160, 0, 0); fill-opacity: 1; stroke: rgb(160, 0, 0);"></path><path transform="translate(190.8347107438018,196.9652325359606)" d="M0,2.1850968611841584A2.1850968611841584,2.1850968611841584 0 1,1 0,-2.1850968611841584A2.1850968611841584,2.1850968611841584 0 1,1 0,2.1850968611841584Z" style="fill: rgb(160, 0, 0); fill-opacity: 1; stroke: rgb(160, 0, 0);"></path><path transform="translate(201.92975206611584,217.34898056489237)" d="M0,2.1850968611841584A2.1850968611841584,2.1850968611841584 0 1,1 0,-2.1850968611841584A2.1850968611841584,2.1850968611841584 0 1,1 0,2.1850968611841584Z" style="fill: rgb(160, 0, 0); fill-opacity: 1; stroke: rgb(160, 0, 0);"></path><path transform="translate(213.02479338842986,233.12906082669903)" d="M0,2.1850968611841584A2.1850968611841584,2.1850968611841584 0 1,1 0,-2.1850968611841584A2.1850968611841584,2.1850968611841584 0 1,1 0,2.1850968611841584Z" style="fill: rgb(160, 0, 0); fill-opacity: 1; stroke: rgb(160, 0, 0);"></path><path transform="translate(224.1198347107439,232.19227943650571)" d="M0,2.1850968611841584A2.1850968611841584,2.1850968611841584 0 1,1 0,-2.1850968611841584A2.1850968611841584,2.1850968611841584 0 1,1 0,2.1850968611841584Z" style="fill: rgb(160, 0, 0); fill-opacity: 1; stroke: rgb(160, 0, 0);"></path><path transform="translate(235.2148760330579,231.13263184209347)" d="M0,2.1850968611841584A2.1850968611841584,2.1850968611841584 0 1,1 0,-2.1850968611841584A2.1850968611841584,2.1850968611841584 0 1,1 0,2.1850968611841584Z" style="fill: rgb(160, 0, 0); fill-opacity: 1; stroke: rgb(160, 0, 0);"></path><path transform="translate(246.30991735537194,240.4664867298608)" d="M0,2.1850968611841584A2.1850968611841584,2.1850968611841584 0 1,1 0,-2.1850968611841584A2.1850968611841584,2.1850968611841584 0 1,1 0,2.1850968611841584Z" style="fill: rgb(160, 0, 0); fill-opacity: 1; stroke: rgb(160, 0, 0);"></path><path transform="translate(257.40495867768595,252.32368610545768)" d="M0,2.1850968611841584A2.1850968611841584,2.1850968611841584 0 1,1 0,-2.1850968611841584A2.1850968611841584,2.1850968611841584 0 1,1 0,2.1850968611841584Z" style="fill: rgb(160, 0, 0); fill-opacity: 1; stroke: rgb(160, 0, 0);"></path><path transform="translate(268.5,255.8679413839815)" d="M0,2.1850968611841584A2.1850968611841584,2.1850968611841584 0 1,1 0,-2.1850968611841584A2.1850968611841584,2.1850968611841584 0 1,1 0,2.1850968611841584Z" style="fill: rgb(160, 0, 0); fill-opacity: 1; stroke: rgb(160, 0, 0);"></path><path transform="translate(279.595041322314,263.2355040321105)" d="M0,2.1850968611841584A2.1850968611841584,2.1850968611841584 0 1,1 0,-2.1850968611841584A2.1850968611841584,2.1850968611841584 0 1,1 0,2.1850968611841584Z" style="fill: rgb(160, 0, 0); fill-opacity: 1; stroke: rgb(160, 0, 0);"></path><path transform="translate(290.6900826446281,265.754062742732)" d="M0,2.1850968611841584A2.1850968611841584,2.1850968611841584 0 1,1 0,-2.1850968611841584A2.1850968611841584,2.1850968611841584 0 1,1 0,2.1850968611841584Z" style="fill: rgb(160, 0, 0); fill-opacity: 1; stroke: rgb(160, 0, 0);"></path><path transform="translate(301.7851239669421,276.0441919801816)" d="M0,2.1850968611841584A2.1850968611841584,2.1850968611841584 0 1,1 0,-2.1850968611841584A2.1850968611841584,2.1850968611841584 0 1,1 0,2.1850968611841584Z" style="fill: rgb(160, 0, 0); fill-opacity: 1; stroke: rgb(160, 0, 0);"></path><path transform="translate(312.8801652892561,283.230643365606)" d="M0,2.1850968611841584A2.1850968611841584,2.1850968611841584 0 1,1 0,-2.1850968611841584A2.1850968611841584,2.1850968611841584 0 1,1 0,2.1850968611841584Z" style="fill: rgb(160, 0, 0); fill-opacity: 1; stroke: rgb(160, 0, 0);"></path><path transform="translate(323.9752066115701,284.62818581128124)" d="M0,2.1850968611841584A2.1850968611841584,2.1850968611841584 0 1,1 0,-2.1850968611841584A2.1850968611841584,2.1850968611841584 0 1,1 0,2.1850968611841584Z" style="fill: rgb(160, 0, 0); fill-opacity: 1; stroke: rgb(160, 0, 0);"></path><path transform="translate(335.0702479338842,298.4391164235327)" d="M0,2.1850968611841584A2.1850968611841584,2.1850968611841584 0 1,1 0,-2.1850968611841584A2.1850968611841584,2.1850968611841584 0 1,1 0,2.1850968611841584Z" style="fill: rgb(160, 0, 0); fill-opacity: 1; stroke: rgb(160, 0, 0);"></path><path transform="translate(346.1652892561982,315.35982166274226)" d="M0,2.1850968611841584A2.1850968611841584,2.1850968611841584 0 1,1 0,-2.1850968611841584A2.1850968611841584,2.1850968611841584 0 1,1 0,2.1850968611841584Z" style="fill: rgb(160, 0, 0); fill-opacity: 1; stroke: rgb(160, 0, 0);"></path><path transform="translate(357.2603305785122,331.17466579147003)" d="M0,2.1850968611841584A2.1850968611841584,2.1850968611841584 0 1,1 0,-2.1850968611841584A2.1850968611841584,2.1850968611841584 0 1,1 0,2.1850968611841584Z" style="fill: rgb(160, 0, 0); fill-opacity: 1; stroke: rgb(160, 0, 0);"></path><path transform="translate(368.35537190082624,336.8867311285343)" d="M0,2.1850968611841584A2.1850968611841584,2.1850968611841584 0 1,1 0,-2.1850968611841584A2.1850968611841584,2.1850968611841584 0 1,1 0,2.1850968611841584Z" style="fill: rgb(160, 0, 0); fill-opacity: 1; stroke: rgb(160, 0, 0);"></path><path transform="translate(379.4504132231403,351.0118742783317)" d="M0,2.1850968611841584A2.1850968611841584,2.1850968611841584 0 1,1 0,-2.1850968611841584A2.1850968611841584,2.1850968611841584 0 1,1 0,2.1850968611841584Z" style="fill: rgb(160, 0, 0); fill-opacity: 1; stroke: rgb(160, 0, 0);"></path><path transform="translate(390.54545454545433,355.95206163648663)" d="M0,2.1850968611841584A2.1850968611841584,2.1850968611841584 0 1,1 0,-2.1850968611841584A2.1850968611841584,2.1850968611841584 0 1,1 0,2.1850968611841584Z" style="fill: rgb(160, 0, 0); fill-opacity: 1; stroke: rgb(160, 0, 0);"></path><path transform="translate(401.6404958677683,365.2219341424697)" d="M0,2.1850968611841584A2.1850968611841584,2.1850968611841584 0 1,1 0,-2.1850968611841584A2.1850968611841584,2.1850968611841584 0 1,1 0,2.1850968611841584Z" style="fill: rgb(160, 0, 0); fill-opacity: 1; stroke: rgb(160, 0, 0);"></path><path transform="translate(412.7355371900824,373.15264622269103)" d="M0,2.1850968611841584A2.1850968611841584,2.1850968611841584 0 1,1 0,-2.1850968611841584A2.1850968611841584,2.1850968611841584 0 1,1 0,2.1850968611841584Z" style="fill: rgb(160, 0, 0); fill-opacity: 1; stroke: rgb(160, 0, 0);"></path><path transform="translate(423.8305785123964,387.0219933757474)" d="M0,2.1850968611841584A2.1850968611841584,2.1850968611841584 0 1,1 0,-2.1850968611841584A2.1850968611841584,2.1850968611841584 0 1,1 0,2.1850968611841584Z" style="fill: rgb(160, 0, 0); fill-opacity: 1; stroke: rgb(160, 0, 0);"></path><path transform="translate(434.9256198347104,405.34829544581254)" d="M0,2.1850968611841584A2.1850968611841584,2.1850968611841584 0 1,1 0,-2.1850968611841584A2.1850968611841584,2.1850968611841584 0 1,1 0,2.1850968611841584Z" style="fill: rgb(160, 0, 0); fill-opacity: 1; stroke: rgb(160, 0, 0);"></path><path transform="translate(446.02066115702445,405.7368113048227)" d="M0,2.1850968611841584A2.1850968611841584,2.1850968611841584 0 1,1 0,-2.1850968611841584A2.1850968611841584,2.1850968611841584 0 1,1 0,2.1850968611841584Z" style="fill: rgb(160, 0, 0); fill-opacity: 1; stroke: rgb(160, 0, 0);"></path><path transform="translate(457.1157024793385,418.19615447929334)" d="M0,2.1850968611841584A2.1850968611841584,2.1850968611841584 0 1,1 0,-2.1850968611841584A2.1850968611841584,2.1850968611841584 0 1,1 0,2.1850968611841584Z" style="fill: rgb(160, 0, 0); fill-opacity: 1; stroke: rgb(160, 0, 0);"></path><path transform="translate(468.21074380165254,437.5025529279162)" d="M0,2.1850968611841584A2.1850968611841584,2.1850968611841584 0 1,1 0,-2.1850968611841584A2.1850968611841584,2.1850968611841584 0 1,1 0,2.1850968611841584Z" style="fill: rgb(160, 0, 0); fill-opacity: 1; stroke: rgb(160, 0, 0);"></path><path transform="translate(479.30578512396653,430.9686834689691)" d="M0,2.1850968611841584A2.1850968611841584,2.1850968611841584 0 1,1 0,-2.1850968611841584A2.1850968611841584,2.1850968611841584 0 1,1 0,2.1850968611841584Z" style="fill: rgb(160, 0, 0); fill-opacity: 1; stroke: rgb(160, 0, 0);"></path><path transform="translate(490.4008264462806,449.35495018183525)" d="M0,2.1850968611841584A2.1850968611841584,2.1850968611841584 0 1,1 0,-2.1850968611841584A2.1850968611841584,2.1850968611841584 0 1,1 0,2.1850968611841584Z" style="fill: rgb(160, 0, 0); fill-opacity: 1; stroke: rgb(160, 0, 0);"></path><path transform="translate(501.4958677685946,477.2727272727251)" d="M0,2.1850968611841584A2.1850968611841584,2.1850968611841584 0 1,1 0,-2.1850968611841584A2.1850968611841584,2.1850968611841584 0 1,1 0,2.1850968611841584Z" style="fill: rgb(160, 0, 0); fill-opacity: 1; stroke: rgb(160, 0, 0);"></path><path transform="translate(512.5909090909087,475.1336684951818)" d="M0,2.1850968611841584A2.1850968611841584,2.1850968611841584 0 1,1 0,-2.1850968611841584A2.1850968611841584,2.1850968611841584 0 1,1 0,2.1850968611841584Z" style="fill: rgb(160, 0, 0); fill-opacity: 1; stroke: rgb(160, 0, 0);"></path></g><g id="g371" class="type-line"><path d="M146.4545454545457,146.73383944724904L151.08918296895945,150.80058587699318L155.7238204832622,154.86733230673778L160.3584579976759,158.9340787364773L164.9930955120897,163.0008251662219L169.62773302650345,167.06757159596603L174.2623705408062,171.1343180257106L178.89700805521997,175.20106445545474L183.5316455696337,179.26781088519473L188.16628308404745,183.33455731493885L192.80092059835022,187.40130374468345L197.43555811276397,191.4680501744276L202.0701956271777,195.5347966041721L206.70483314159145,199.60154303391624L211.33947065589675,203.66828946365624L215.97410817031047,207.7350358934004L220.60874568472423,211.80178232314495L225.243383199027,215.8685287528891L229.87802071344075,219.93527518263366L234.51265822785447,224.0020216123732L239.14729574226823,228.0687680421178L243.781933256571,232.13551447186194L248.41657077098475,236.2022609016065L253.05120828539847,240.26900733135065L257.6858457998122,244.33575376109061L262.320483314115,248.40250019083476L266.9551208285288,252.46924662057936L271.5897583429425,256.53599305031895L276.2243958573562,260.60273948006807L280.859033371659,264.6694859098076L285.4936708860728,268.73623233955215L290.1283084004865,272.8029787692963L294.76294591478927,276.8697251990363L299.39758342920305,280.93647162878045L304.0322209436167,285.003218058525L308.6668584580305,289.06996448826914L313.30149597233327,293.1367109180087L317.936133486747,297.2034573477533L322.5707710011608,301.2702037774978L327.2054085155745,305.3369502072374L331.8400460298798,309.4036966369865L336.47468354429355,313.4704430667261L341.10932105870734,317.53718949647026L345.74395857312106,321.60393592621483L350.37859608742383,325.67068235595434L355.01323360183756,329.7374287856989L359.6478711162513,333.8041752154431L364.28250863066506,337.8709216451876L368.9171461449678,341.9376680749272L373.55178365938156,346.0044145046718L378.18642117379534,350.0711609344159L382.82105868809805,354.1379073641605L387.45569620251183,358.20465379390464L392.0903337169256,362.27140022364455L396.7249712313393,366.3381466533887L401.35960874564205,370.4048930831333L405.99424626005583,374.4716395128774L410.62888377446956,378.538385942622L415.26352128888334,382.60513237236614L419.8981588031861,386.6718788021061L424.53279631759983,390.7386252318503L429.1674338320136,394.80537166159485L433.8020713464273,398.87211809133896L438.4367088607301,402.93886452108353L443.07134637514383,407.0056109508277L447.70598388955756,411.07235738056767L452.3406214038629,415.13910381031184L456.9752589182766,419.2058502400564L461.60989643269033,423.2725966697959L466.2445339471041,427.3393430995451L470.8791714614069,431.40608952928466L475.5138089758206,435.47283595902917L480.1484464902344,439.53958238877334L484.7830840046482,443.60632881851336L489.4177215189509,447.6730752482575L494.0523590333646,451.73982167800204L498.68699654777834,455.80656810774616L503.3216340621921,459.8733145374861L507.9562715764949,463.94006096723035L512.5909090909087,468.00680739697486" style="fill: transparent; stroke: rgb(0, 0, 0); stroke-width: 2;"></path></g></g></g></g></svg>