<svg class="marks" width="1224" height="554" xmlns="http://www.w3.org/2000/svg"><g transform="translate(46,6)"><g id="g594" class="type-group"><g transform="translate(0,0)"><rect class="background" style="pointer-events: none; fill: none;" width="1054" height="500"></rect><g id="g595" class="type-group"><g transform="translate(0,500)"><rect class="background" style="pointer-events: none; fill: none;" width="0" height="0"></rect><g id="g596" class="type-rule" style="pointer-events: none;"><line x1="0.5" y1="-500" x2="0.5" y2="0" style="fill: none; stroke: rgb(216, 216, 216); stroke-width: 1; opacity: 1;"></line><line x1="105.9" y1="-500" x2="105.9" y2="0" style="fill: none; stroke: rgb(216, 216, 216); stroke-width: 1; opacity: 1;"></line><line x1="211.3" y1="-500" x2="211.3" y2="0" style="fill: none; stroke: rgb(216, 216, 216); stroke-width: 1; opacity: 1;"></line><line x1="316.7" y1="-500" x2="316.7" y2="0" style="fill: none; stroke: rgb(216, 216, 216); stroke-width: 1; opacity: 1;"></line><line x1="422.1" y1="-500" x2="422.1" y2="0" style="fill: none; stroke: rgb(216, 216, 216); stroke-width: 1; opacity: 1;"></line><line x1="527.5" y1="-500" x2="527.5" y2="0" style="fill: none; stroke: rgb(216, 216, 216); stroke-width: 1; opacity: 1;"></line><line x1="632.9" y1="-500" x2="632.9" y2="0" style="fill: none; stroke: rgb(216, 216, 216); stroke-width: 1; opacity: 1;"></line><line x1="738.3" y1="-500" x2="738.3" y2="0" style="fill: none; stroke: rgb(216, 216, 216); stroke-width: 1; opacity: 1;"></line><line x1="843.7" y1="-500" x2="843.7" y2="0" style="fill: none; stroke: rgb(216, 216, 216); stroke-width: 1; opacity: 1;"></line><line x1="949.1" y1="-500" x2="949.1" y2="0" style="fill: none; stroke: rgb(216, 216, 216); stroke-width: 1; opacity: 1;"></line><line x1="1054.5" y1="-500" x2="1054.5" y2="0" style="fill: none; stroke: rgb(216, 216, 216); stroke-width: 1; opacity: 1;"></line></g><g id="g597" class="type-rule" style="pointer-events: none;"><line x1="0.5" y1="0" x2="0.5" y2="6" style="fill: none; stroke: rgb(0, 0, 0); stroke-width: 1; opacity: 1;"></line><line x1="105.9" y1="0" x2="105.9" y2="6" style="fill: none; stroke: rgb(0, 0, 0); stroke-width: 1; opacity: 1;"></line><line x1="211.3" y1="0" x2="211.3" y2="6" style="fill: none; stroke: rgb(0, 0, 0); stroke-width: 1; opacity: 1;"></line><line x1="316.7" y1="0" x2="316.7" y2="6" style="fill: none; stroke: rgb(0, 0, 0); stroke-width: 1; opacity: 1;"></line><line x1="422.1" y1="0" x2="422.1" y2="6" style="fill: none; stroke: rgb(0, 0, 0); stroke-width: 1; opacity: 1;"></line><line x1="527.5" y1="0" x2="527.5" y2="6" style="fill: none; stroke: rgb(0, 0, 0); stroke-width: 1; opacity: 1;"></line><line x1="632.9" y1="0" x2="632.9" y2="6" style="fill: none; stroke: rgb(0, 0, 0); stroke-width: 1; opacity: 1;"></line><line x1="738.3" y1="0" x2="738.3" y2="6" style="fill: none; stroke: rgb(0, 0, 0); stroke-width: 1; opacity: 1;"></line><line x1="843.7" y1="0" x2="843.7" y2="6" style="fill: none; stroke: rgb(0, 0, 0); stroke-width: 1; opacity: 1;"></line><line x1="949.1" y1="0" x2="949.1" y2="6" style="fill: none; stroke: rgb(0, 0, 0); stroke-width: 1; opacity: 1;"></line><line x1="1054.5" y1="0" x2="1054.5" y2="6" style="fill: none; stroke: rgb(0, 0, 0); stroke-width: 1; opacity: 1;"></line></g><g id="g598" class="type-rule" style="pointer-events: none;"></g><g id="g599" class="type-text"><text x="0.5" y="9" text-anchor="middle" dy=".9em" style="font: 11px sans-serif; fill: rgb(0, 0, 0); opacity: 1;">1960</text><text x="105.9" y="9" text-anchor="middle" dy=".9em" style="font: 11px sans-serif; fill: rgb(0, 0, 0); opacity: 1;">1970</text><text x="211.3" y="9" text-anchor="middle" dy=".9em" style="font: 11px sans-serif; fill: rgb(0, 0, 0); opacity: 1;">1980</text><text x="316.7" y="9" text-anchor="middle" dy=".9em" style="font: 11px sans-serif; fill: rgb(0, 0, 0); opacity: 1;">1990</text><text x="422.1" y="9" text-anchor="middle" dy=".9em" style="font: 11px sans-serif; fill: rgb(0, 0, 0); opacity: 1;">2000</text><text x="527.5" y="9" text-anchor="middle" dy=".9em" style="font: 11px sans-serif; fill: rgb(0, 0, 0); opacity: 1;">2010</text><text x="632.9" y="9" text-anchor="middle" dy=".9em" style="font: 11px sans-serif; fill: rgb(0, 0, 0); opacity: 1;">2020</text><text x="738.3" y="9" text-anchor="middle" dy=".9em" style="font: 11px sans-serif; fill: rgb(0, 0, 0); opacity: 1;">2030</text><text x="843.7" y="9" text-anchor="middle" dy=".9em" style="font: 11px sans-serif; fill: rgb(0, 0, 0); opacity: 1;">2040</text><text x="949.1" y="9" text-anchor="middle" dy=".9em" style="font: 11px sans-serif; fill: rgb(0, 0, 0); opacity: 1;">2050</text><text x="1054.5" y="9" text-anchor="middle" dy=".9em" style="font: 11px sans-serif; fill: rgb(0, 0, 0); opacity: 1;">2060</text></g><g id="g600" class="type-path" style="pointer-events: none;"><path transform="translate(0.5,0.5)" d="M0,6V0H1054V6" style="fill: none; stroke: rgb(0, 0, 0); stroke-width: 1;"></path></g><g id="g601" class="type-text"><text x="527" y="35" text-anchor="middle" dy=".35em" style="font: bold 11px sans-serif; fill: rgb(0, 0, 0);">Year</text></g></g></g><g id="g602" class="type-group"><g transform="translate(0,0)"><rect class="background" style="pointer-events: none; fill: none;" width="0" height="0"></rect><g id="g603" class="type-rule" style="pointer-events: none;"><line x1="0" y1="489.13625282221176" x2="1054" y2="489.13625282221176" style="fill: none; stroke: rgb(216, 216, 216); stroke-width: 1; opacity: 1;"></line><line x1="0" y1="441.58095564247964" x2="1054" y2="441.58095564247964" style="fill: none; stroke: rgb(216, 216, 216); stroke-width: 1; opacity: 1;"></line><line x1="0" y1="394.02565846274746" x2="1054" y2="394.02565846274746" style="fill: none; stroke: rgb(216, 216, 216); stroke-width: 1; opacity: 1;"></line><line x1="0" y1="346.47036128301534" x2="1054" y2="346.47036128301534" style="fill: none; stroke: rgb(216, 216, 216); stroke-width: 1; opacity: 1;"></line><line x1="0" y1="298.9150641032832" x2="1054" y2="298.9150641032832" style="fill: none; stroke: rgb(216, 216, 216); stroke-width: 1; opacity: 1;"></line><line x1="0" y1="251.35976692355106" x2="1054" y2="251.35976692355106" style="fill: none; stroke: rgb(216, 216, 216); stroke-width: 1; opacity: 1;"></line><line x1="0" y1="203.80446974381894" x2="1054" y2="203.80446974381894" style="fill: none; stroke: rgb(216, 216, 216); stroke-width: 1; opacity: 1;"></line><line x1="0" y1="156.24917256408682" x2="1054" y2="156.24917256408682" style="fill: none; stroke: rgb(216, 216, 216); stroke-width: 1; opacity: 1;"></line><line x1="0" y1="108.69387538435466" x2="1054" y2="108.69387538435466" style="fill: none; stroke: rgb(216, 216, 216); stroke-width: 1; opacity: 1;"></line><line x1="0" y1="61.13857820462254" x2="1054" y2="61.13857820462254" style="fill: none; stroke: rgb(216, 216, 216); stroke-width: 1; opacity: 1;"></line><line x1="0" y1="13.583281024890425" x2="1054" y2="13.583281024890425" style="fill: none; stroke: rgb(216, 216, 216); stroke-width: 1; opacity: 1;"></line></g><g id="g604" class="type-rule" style="pointer-events: none;"><line x1="-6" y1="489.13625282221176" x2="0" y2="489.13625282221176" style="fill: none; stroke: rgb(0, 0, 0); stroke-width: 1; opacity: 1;"></line><line x1="-6" y1="441.58095564247964" x2="0" y2="441.58095564247964" style="fill: none; stroke: rgb(0, 0, 0); stroke-width: 1; opacity: 1;"></line><line x1="-6" y1="394.02565846274746" x2="0" y2="394.02565846274746" style="fill: none; stroke: rgb(0, 0, 0); stroke-width: 1; opacity: 1;"></line><line x1="-6" y1="346.47036128301534" x2="0" y2="346.47036128301534" style="fill: none; stroke: rgb(0, 0, 0); stroke-width: 1; opacity: 1;"></line><line x1="-6" y1="298.9150641032832" x2="0" y2="298.9150641032832" style="fill: none; stroke: rgb(0, 0, 0); stroke-width: 1; opacity: 1;"></line><line x1="-6" y1="251.35976692355106" x2="0" y2="251.35976692355106" style="fill: none; stroke: rgb(0, 0, 0); stroke-width: 1; opacity: 1;"></line><line x1="-6" y1="203.80446974381894" x2="0" y2="203.80446974381894" style="fill: none; stroke: rgb(0, 0, 0); stroke-width: 1; opacity: 1;"></line><line x1="-6" y1="156.24917256408682" x2="0" y2="156.24917256408682" style="fill: none; stroke: rgb(0, 0, 0); stroke-width: 1; opacity: 1;"></line><line x1="-6" y1="108.69387538435466" x2="0" y2="108.69387538435466" style="fill: none; stroke: rgb(0, 0, 0); stroke-width: 1; opacity: 1;"></line><line x1="-6" y1="61.13857820462254" x2="0" y2="61.13857820462254" style="fill: none; stroke: rgb(0, 0, 0); stroke-width: 1; opacity: 1;"></line><line x1="-6" y1="13.583281024890425" x2="0" y2="13.583281024890425" style="fill: none; stroke: rgb(0, 0, 0); stroke-width: 1; opacity: 1;"></line></g><g id="g605" class="type-rule" style="pointer-events: none;"></g><g id="g606" class="type-text"><text x="-9" y="489.13625282221176" text-anchor="end" dy=".35em" style="font: 11px sans-serif; fill: rgb(0, 0, 0); opacity: 1;">0</text><text x="-9" y="441.58095564247964" text-anchor="end" dy=".35em" style="font: 11px sans-serif; fill: rgb(0, 0, 0); opacity: 1;">100</text><text x="-9" y="394.02565846274746" text-anchor="end" dy=".35em" style="font: 11px sans-serif; fill: rgb(0, 0, 0); opacity: 1;">200</text><text x="-9" y="346.47036128301534" text-anchor="end" dy=".35em" style="font: 11px sans-serif; fill: rgb(0, 0, 0); opacity: 1;">300</text><text x="-9" y="298.9150641032832" text-anchor="end" dy=".35em" style="font: 11px sans-serif; fill: rgb(0, 0, 0); opacity: 1;">400</text><text x="-9" y="251.35976692355106" text-anchor="end" dy=".35em" style="font: 11px sans-serif; fill: rgb(0, 0, 0); opacity: 1;">500</text><text x="-9" y="203.80446974381894" text-anchor="end" dy=".35em" style="font: 11px sans-serif; fill: rgb(0, 0, 0); opacity: 1;">600</text><text x="-9" y="156.24917256408682" text-anchor="end" dy=".35em" style="font: 11px sans-serif; fill: rgb(0, 0, 0); opacity: 1;">700</text><text x="-9" y="108.69387538435466" text-anchor="end" dy=".35em" style="font: 11px sans-serif; fill: rgb(0, 0, 0); opacity: 1;">800</text><text x="-9" y="61.13857820462254" text-anchor="end" dy=".35em" style="font: 11px sans-serif; fill: rgb(0, 0, 0); opacity: 1;">900</text><text x="-9" y="13.583281024890425" text-anchor="end" dy=".35em" style="font: 11px sans-serif; fill: rgb(0, 0, 0); opacity: 1;">1,000</text></g><g id="g607" class="type-path" style="pointer-events: none;"><path transform="translate(0.5,0.5)" d="M-6,0H0V500H-6" style="fill: none; stroke: rgb(0, 0, 0); stroke-width: 1;"></path></g><g id="g608" class="type-text"><text x="-35" y="250" text-anchor="middle" transform="rotate(-90 -35,250)" dy=".35em" style="font: bold 11px sans-serif; fill: rgb(0, 0, 0);">CO2 intensity (tonnes / $1000 GDP)</text></g></g></g><g id="g609" class="type-group"><g transform="translate(0,0)"><rect class="background" width="0" height="0" style="fill: none;"></rect><g id="g610" class="type-line"><path d="M558.62,310.9594158423472L569.1600000000001,323.6843376337235L579.7,335.4979215301379L590.24,346.4654360473756L600.78,356.64747527785187L611.3199999999999,366.10029366509974L621.86,374.8761168022611L632.4,383.0234299716994L642.9399999999999,390.58724601988564L653.48,397.60935404752394L664.02,404.1285502889039L674.5600000000001,410.18085245605187L685.1,415.7996987319097L695.64,421.01613251194954L706.1800000000001,425.8589739149011L716.72,430.35497901016015L727.26,434.5289876415955L737.8,438.40406066446013L748.3399999999999,442.00160735361715L758.88,445.34150368700176L769.42,448.4422021578173L779.96,451.32083372216124L790.5,453.99330244533184L801.04,456.47437336972183L811.58,458.77775408975896L822.12,460.91617048458386L832.6600000000001,462.9014370268783L843.2,464.7445220562916L853.74,466.4556083780917L864.28,468.044149521841L874.8199999999999,469.5189219709186L885.36,470.88807365145044L895.9,472.1591689485424L906.4399999999999,473.33923049852456L916.98,474.4347779881048L927.52,475.4518641747904L938.0600000000001,476.39610832758655L948.6,477.2727272727274" style="fill: none; stroke: rgb(27, 158, 119); stroke-width: 2;"></path></g></g><g transform="translate(0,0)"><rect class="background" width="0" height="0" style="fill: none;"></rect><g id="g611" class="type-line"><path d="M94.86,34.517319886560706L105.4,22.727272727274705L115.94,33.06073376267638L126.47999999999999,33.579197638961666L137.02,39.32672017182176L147.56,52.62814958033607L158.1,65.33183043956781L168.64000000000001,62.70931636156529L179.18,69.32673718413601L189.72,96.59857514567577L200.26,100.64586353209565L210.8,112.89039031655129L221.34,132.7467843303961L231.88,144.94155121376718L242.42000000000002,161.94100640438313L252.95999999999998,167.2286712844252L263.5,180.89026949526288L274.04,191.06632475162434L284.58000000000004,190.47173160191093L295.12,189.79772073170182L305.65999999999997,195.6827002651283L316.2,202.99181894682417L326.74,205.14098951972593L337.28000000000003,209.55693900031753L347.82,211.0506753330534L358.36,217.07105810467115L368.9,221.1979836884247L379.44,221.99322902099195L389.98,229.72603994838116L400.52,238.8950147233127L411.06,247.17094906032455L421.6,250.09218474990053L432.14,257.16514198256954L442.68,259.5890458712982L453.21999999999997,264.0690208333858L463.76,267.8321848855223L474.3,274.26232467099334L484.84000000000003,282.47252252163815L495.38,282.6431308891212L505.91999999999996,288.04015765897253L516.46,296.1251587226318L527,293.4261013665443L537.54,300.92634212951833L548.08,311.7674378815585L558.62,310.9594158423472" style="fill: none; stroke: rgb(217, 95, 2); stroke-width: 2;"></path></g></g><g transform="translate(0,0)"><rect class="background" width="0" height="0" style="fill: none;"></rect><g id="g612" class="type-line"><path d="M94.86,42.92022187712452L105.4,51.96323950169629L115.94,60.82278567341004L126.47999999999999,69.50258279727083L137.02,78.00627775535656L147.56,86.33744343910371L158.1,94.49958025047617L168.64000000000001,102.49611757267574L179.18,110.33041521104448L189.72,118.00576480468855L200.26,125.52539120950806L210.8,132.8924538531234L221.34,140.11004806234916L231.88,147.18120636371395L242.42000000000002,154.10889975758823L252.95999999999998,160.89603896649257L263.5,167.54547565803995L274.04,174.06000364310336L284.58000000000004,180.44236004963764L295.12,186.69522647272157L305.65999999999997,192.82123010124297L316.2,198.82294482172486L326.74,204.70289229977894L337.28000000000003,210.4635430395852L347.82,216.10731742190976L358.36,221.6365867210287L368.9,227.0536741010526L379.44,232.3608555920138L389.98,237.56036104615225L400.52,242.65437507481923L411.06,247.64503796634148L421.6,252.534446585295L432.14,257.32465525350415L442.68,262.0176766131926L453.21999999999997,266.6154824726055L463.76,271.1200046344728L474.3,275.5331357076848L484.84000000000003,279.85672990247105L495.38,284.092603809473L505.91999999999996,288.2425371629891L516.46,292.30827358875024L527,296.29152133651536L537.54,300.1939539977994L548.08,304.0172112090572L558.62,307.76289934057644L569.1600000000001,311.4325921714165L579.7,315.02783155063605L590.24,318.5501280451184L600.78,322.00096157424474L611.3199999999999,325.3817820316899L621.86,328.6940098946156L632.4,331.9390368204822L642.9399999999999,335.118226231777L653.48,338.232913888855L664.02,341.28440845117626L674.5600000000001,344.2739920271472L685.1,347.20292071280437L695.64,350.0724251195797L706.1800000000001,352.8837108913426L716.72,355.6379592109684L727.26,358.33632729661775L737.8,360.9799488879466L748.3399999999999,363.5699347224644L758.88,366.1073730022091L769.42,368.5933298509718L779.96,371.0288497622299L790.5,373.41495603800394L801.04,375.7526512188041L811.58,378.0429175048514L822.12,380.2867171687643L832.6600000000001,382.4849929598555L843.2,384.63866850024453L853.74,386.7486486729166L864.28,388.8158200019206L874.8199999999999,390.8410510248486L885.36,392.8251926577545L895.9,394.7690785526795L906.4399999999999,396.67352544791004L916.98,398.5393335111429L927.52,400.36728667567655L938.0600000000001,402.15815296978974L948.6,403.91268483943503" style="fill: none; stroke: rgb(117, 112, 179); stroke-width: 2;"></path></g></g></g><g id="g613" class="type-symbol"><path transform="translate(94.86,34.517319886560706)" d="M0,1.381976597885342A1.381976597885342,1.381976597885342 0 1,1 0,-1.381976597885342A1.381976597885342,1.381976597885342 0 1,1 0,1.381976597885342Z" style="fill: rgb(217, 95, 2); stroke: rgb(217, 95, 2);"></path><path transform="translate(105.4,22.727272727274705)" d="M0,1.381976597885342A1.381976597885342,1.381976597885342 0 1,1 0,-1.381976597885342A1.381976597885342,1.381976597885342 0 1,1 0,1.381976597885342Z" style="fill: rgb(217, 95, 2); stroke: rgb(217, 95, 2);"></path><path transform="translate(115.94,33.06073376267638)" d="M0,1.381976597885342A1.381976597885342,1.381976597885342 0 1,1 0,-1.381976597885342A1.381976597885342,1.381976597885342 0 1,1 0,1.381976597885342Z" style="fill: rgb(217, 95, 2); stroke: rgb(217, 95, 2);"></path><path transform="translate(126.47999999999999,33.579197638961666)" d="M0,1.381976597885342A1.381976597885342,1.381976597885342 0 1,1 0,-1.381976597885342A1.381976597885342,1.381976597885342 0 1,1 0,1.381976597885342Z" style="fill: rgb(217, 95, 2); stroke: rgb(217, 95, 2);"></path><path transform="translate(137.02,39.32672017182176)" d="M0,1.381976597885342A1.381976597885342,1.381976597885342 0 1,1 0,-1.381976597885342A1.381976597885342,1.381976597885342 0 1,1 0,1.381976597885342Z" style="fill: rgb(217, 95, 2); stroke: rgb(217, 95, 2);"></path><path transform="translate(147.56,52.62814958033607)" d="M0,1.381976597885342A1.381976597885342,1.381976597885342 0 1,1 0,-1.381976597885342A1.381976597885342,1.381976597885342 0 1,1 0,1.381976597885342Z" style="fill: rgb(217, 95, 2); stroke: rgb(217, 95, 2);"></path><path transform="translate(158.1,65.33183043956781)" d="M0,1.381976597885342A1.381976597885342,1.381976597885342 0 1,1 0,-1.381976597885342A1.381976597885342,1.381976597885342 0 1,1 0,1.381976597885342Z" style="fill: rgb(217, 95, 2); stroke: rgb(217, 95, 2);"></path><path transform="translate(168.64000000000001,62.70931636156529)" d="M0,1.381976597885342A1.381976597885342,1.381976597885342 0 1,1 0,-1.381976597885342A1.381976597885342,1.381976597885342 0 1,1 0,1.381976597885342Z" style="fill: rgb(217, 95, 2); stroke: rgb(217, 95, 2);"></path><path transform="translate(179.18,69.32673718413601)" d="M0,1.381976597885342A1.381976597885342,1.381976597885342 0 1,1 0,-1.381976597885342A1.381976597885342,1.381976597885342 0 1,1 0,1.381976597885342Z" style="fill: rgb(217, 95, 2); stroke: rgb(217, 95, 2);"></path><path transform="translate(189.72,96.59857514567577)" d="M0,1.381976597885342A1.381976597885342,1.381976597885342 0 1,1 0,-1.381976597885342A1.381976597885342,1.381976597885342 0 1,1 0,1.381976597885342Z" style="fill: rgb(217, 95, 2); stroke: rgb(217, 95, 2);"></path><path transform="translate(200.26,100.64586353209565)" d="M0,1.381976597885342A1.381976597885342,1.381976597885342 0 1,1 0,-1.381976597885342A1.381976597885342,1.381976597885342 0 1,1 0,1.381976597885342Z" style="fill: rgb(217, 95, 2); stroke: rgb(217, 95, 2);"></path><path transform="translate(210.8,112.89039031655129)" d="M0,1.381976597885342A1.381976597885342,1.381976597885342 0 1,1 0,-1.381976597885342A1.381976597885342,1.381976597885342 0 1,1 0,1.381976597885342Z" style="fill: rgb(217, 95, 2); stroke: rgb(217, 95, 2);"></path><path transform="translate(221.34,132.7467843303961)" d="M0,1.381976597885342A1.381976597885342,1.381976597885342 0 1,1 0,-1.381976597885342A1.381976597885342,1.381976597885342 0 1,1 0,1.381976597885342Z" style="fill: rgb(217, 95, 2); stroke: rgb(217, 95, 2);"></path><path transform="translate(231.88,144.94155121376718)" d="M0,1.381976597885342A1.381976597885342,1.381976597885342 0 1,1 0,-1.381976597885342A1.381976597885342,1.381976597885342 0 1,1 0,1.381976597885342Z" style="fill: rgb(217, 95, 2); stroke: rgb(217, 95, 2);"></path><path transform="translate(242.42000000000002,161.94100640438313)" d="M0,1.381976597885342A1.381976597885342,1.381976597885342 0 1,1 0,-1.381976597885342A1.381976597885342,1.381976597885342 0 1,1 0,1.381976597885342Z" style="fill: rgb(217, 95, 2); stroke: rgb(217, 95, 2);"></path><path transform="translate(252.95999999999998,167.2286712844252)" d="M0,1.381976597885342A1.381976597885342,1.381976597885342 0 1,1 0,-1.381976597885342A1.381976597885342,1.381976597885342 0 1,1 0,1.381976597885342Z" style="fill: rgb(217, 95, 2); stroke: rgb(217, 95, 2);"></path><path transform="translate(263.5,180.89026949526288)" d="M0,1.381976597885342A1.381976597885342,1.381976597885342 0 1,1 0,-1.381976597885342A1.381976597885342,1.381976597885342 0 1,1 0,1.381976597885342Z" style="fill: rgb(217, 95, 2); stroke: rgb(217, 95, 2);"></path><path transform="translate(274.04,191.06632475162434)" d="M0,1.381976597885342A1.381976597885342,1.381976597885342 0 1,1 0,-1.381976597885342A1.381976597885342,1.381976597885342 0 1,1 0,1.381976597885342Z" style="fill: rgb(217, 95, 2); stroke: rgb(217, 95, 2);"></path><path transform="translate(284.58000000000004,190.47173160191093)" d="M0,1.381976597885342A1.381976597885342,1.381976597885342 0 1,1 0,-1.381976597885342A1.381976597885342,1.381976597885342 0 1,1 0,1.381976597885342Z" style="fill: rgb(217, 95, 2); stroke: rgb(217, 95, 2);"></path><path transform="translate(295.12,189.79772073170182)" d="M0,1.381976597885342A1.381976597885342,1.381976597885342 0 1,1 0,-1.381976597885342A1.381976597885342,1.381976597885342 0 1,1 0,1.381976597885342Z" style="fill: rgb(217, 95, 2); stroke: rgb(217, 95, 2);"></path><path transform="translate(305.65999999999997,195.6827002651283)" d="M0,1.381976597885342A1.381976597885342,1.381976597885342 0 1,1 0,-1.381976597885342A1.381976597885342,1.381976597885342 0 1,1 0,1.381976597885342Z" style="fill: rgb(217, 95, 2); stroke: rgb(217, 95, 2);"></path><path transform="translate(316.2,202.99181894682417)" d="M0,1.381976597885342A1.381976597885342,1.381976597885342 0 1,1 0,-1.381976597885342A1.381976597885342,1.381976597885342 0 1,1 0,1.381976597885342Z" style="fill: rgb(217, 95, 2); stroke: rgb(217, 95, 2);"></path><path transform="translate(326.74,205.14098951972593)" d="M0,1.381976597885342A1.381976597885342,1.381976597885342 0 1,1 0,-1.381976597885342A1.381976597885342,1.381976597885342 0 1,1 0,1.381976597885342Z" style="fill: rgb(217, 95, 2); stroke: rgb(217, 95, 2);"></path><path transform="translate(337.28000000000003,209.55693900031753)" d="M0,1.381976597885342A1.381976597885342,1.381976597885342 0 1,1 0,-1.381976597885342A1.381976597885342,1.381976597885342 0 1,1 0,1.381976597885342Z" style="fill: rgb(217, 95, 2); stroke: rgb(217, 95, 2);"></path><path transform="translate(347.82,211.0506753330534)" d="M0,1.381976597885342A1.381976597885342,1.381976597885342 0 1,1 0,-1.381976597885342A1.381976597885342,1.381976597885342 0 1,1 0,1.381976597885342Z" style="fill: rgb(217, 95, 2); stroke: rgb(217, 95, 2);"></path><path transform="translate(358.36,217.07105810467115)" d="M0,1.381976597885342A1.381976597885342,1.381976597885342 0 1,1 0,-1.381976597885342A1.381976597885342,1.381976597885342 0 1,1 0,1.381976597885342Z" style="fill: rgb(217, 95, 2); stroke: rgb(217, 95, 2);"></path><path transform="translate(368.9,221.1979836884247)" d="M0,1.381976597885342A1.381976597885342,1.381976597885342 0 1,1 0,-1.381976597885342A1.381976597885342,1.381976597885342 0 1,1 0,1.381976597885342Z" style="fill: rgb(217, 95, 2); stroke: rgb(217, 95, 2);"></path><path transform="translate(379.44,221.99322902099195)" d="M0,1.381976597885342A1.381976597885342,1.381976597885342 0 1,1 0,-1.381976597885342A1.381976597885342,1.381976597885342 0 1,1 0,1.381976597885342Z" style="fill: rgb(217, 95, 2); stroke: rgb(217, 95, 2);"></path><path transform="translate(389.98,229.72603994838116)" d="M0,1.381976597885342A1.381976597885342,1.381976597885342 0 1,1 0,-1.381976597885342A1.381976597885342,1.381976597885342 0 1,1 0,1.381976597885342Z" style="fill: rgb(217, 95, 2); stroke: rgb(217, 95, 2);"></path><path transform="translate(400.52,238.8950147233127)" d="M0,1.381976597885342A1.381976597885342,1.381976597885342 0 1,1 0,-1.381976597885342A1.381976597885342,1.381976597885342 0 1,1 0,1.381976597885342Z" style="fill: rgb(217, 95, 2); stroke: rgb(217, 95, 2);"></path><path transform="translate(411.06,247.17094906032455)" d="M0,1.381976597885342A1.381976597885342,1.381976597885342 0 1,1 0,-1.381976597885342A1.381976597885342,1.381976597885342 0 1,1 0,1.381976597885342Z" style="fill: rgb(217, 95, 2); stroke: rgb(217, 95, 2);"></path><path transform="translate(421.6,250.09218474990053)" d="M0,1.381976597885342A1.381976597885342,1.381976597885342 0 1,1 0,-1.381976597885342A1.381976597885342,1.381976597885342 0 1,1 0,1.381976597885342Z" style="fill: rgb(217, 95, 2); stroke: rgb(217, 95, 2);"></path><path transform="translate(432.14,257.16514198256954)" d="M0,1.381976597885342A1.381976597885342,1.381976597885342 0 1,1 0,-1.381976597885342A1.381976597885342,1.381976597885342 0 1,1 0,1.381976597885342Z" style="fill: rgb(217, 95, 2); stroke: rgb(217, 95, 2);"></path><path transform="translate(442.68,259.5890458712982)" d="M0,1.381976597885342A1.381976597885342,1.381976597885342 0 1,1 0,-1.381976597885342A1.381976597885342,1.381976597885342 0 1,1 0,1.381976597885342Z" style="fill: rgb(217, 95, 2); stroke: rgb(217, 95, 2);"></path><path transform="translate(453.21999999999997,264.0690208333858)" d="M0,1.381976597885342A1.381976597885342,1.381976597885342 0 1,1 0,-1.381976597885342A1.381976597885342,1.381976597885342 0 1,1 0,1.381976597885342Z" style="fill: rgb(217, 95, 2); stroke: rgb(217, 95, 2);"></path><path transform="translate(463.76,267.8321848855223)" d="M0,1.381976597885342A1.381976597885342,1.381976597885342 0 1,1 0,-1.381976597885342A1.381976597885342,1.381976597885342 0 1,1 0,1.381976597885342Z" style="fill: rgb(217, 95, 2); stroke: rgb(217, 95, 2);"></path><path transform="translate(474.3,274.26232467099334)" d="M0,1.381976597885342A1.381976597885342,1.381976597885342 0 1,1 0,-1.381976597885342A1.381976597885342,1.381976597885342 0 1,1 0,1.381976597885342Z" style="fill: rgb(217, 95, 2); stroke: rgb(217, 95, 2);"></path><path transform="translate(484.84000000000003,282.47252252163815)" d="M0,1.381976597885342A1.381976597885342,1.381976597885342 0 1,1 0,-1.381976597885342A1.381976597885342,1.381976597885342 0 1,1 0,1.381976597885342Z" style="fill: rgb(217, 95, 2); stroke: rgb(217, 95, 2);"></path><path transform="translate(495.38,282.6431308891212)" d="M0,1.381976597885342A1.381976597885342,1.381976597885342 0 1,1 0,-1.381976597885342A1.381976597885342,1.381976597885342 0 1,1 0,1.381976597885342Z" style="fill: rgb(217, 95, 2); stroke: rgb(217, 95, 2);"></path><path transform="translate(505.91999999999996,288.04015765897253)" d="M0,1.381976597885342A1.381976597885342,1.381976597885342 0 1,1 0,-1.381976597885342A1.381976597885342,1.381976597885342 0 1,1 0,1.381976597885342Z" style="fill: rgb(217, 95, 2); stroke: rgb(217, 95, 2);"></path><path transform="translate(516.46,296.1251587226318)" d="M0,1.381976597885342A1.381976597885342,1.381976597885342 0 1,1 0,-1.381976597885342A1.381976597885342,1.381976597885342 0 1,1 0,1.381976597885342Z" style="fill: rgb(217, 95, 2); stroke: rgb(217, 95, 2);"></path><path transform="translate(527,293.4261013665443)" d="M0,1.381976597885342A1.381976597885342,1.381976597885342 0 1,1 0,-1.381976597885342A1.381976597885342,1.381976597885342 0 1,1 0,1.381976597885342Z" style="fill: rgb(217, 95, 2); stroke: rgb(217, 95, 2);"></path><path transform="translate(537.54,300.92634212951833)" d="M0,1.381976597885342A1.381976597885342,1.381976597885342 0 1,1 0,-1.381976597885342A1.381976597885342,1.381976597885342 0 1,1 0,1.381976597885342Z" style="fill: rgb(217, 95, 2); stroke: rgb(217, 95, 2);"></path><path transform="translate(548.08,311.7674378815585)" d="M0,1.381976597885342A1.381976597885342,1.381976597885342 0 1,1 0,-1.381976597885342A1.381976597885342,1.381976597885342 0 1,1 0,1.381976597885342Z" style="fill: rgb(217, 95, 2); stroke: rgb(217, 95, 2);"></path><path transform="translate(558.62,310.9594158423472)" d="M0,1.381976597885342A1.381976597885342,1.381976597885342 0 1,1 0,-1.381976597885342A1.381976597885342,1.381976597885342 0 1,1 0,1.381976597885342Z" style="fill: rgb(217, 95, 2); stroke: rgb(217, 95, 2);"></path><path transform="translate(94.86,42.92022187712452)" d="M0,1.381976597885342A1.381976597885342,1.381976597885342 0 1,1 0,-1.381976597885342A1.381976597885342,1.381976597885342 0 1,1 0,1.381976597885342Z" style="fill: rgb(117, 112, 179); stroke: rgb(117, 112, 179);"></path><path transform="translate(105.4,51.96323950169629)" d="M0,1.381976597885342A1.381976597885342,1.381976597885342 0 1,1 0,-1.381976597885342A1.381976597885342,1.381976597885342 0 1,1 0,1.381976597885342Z" style="fill: rgb(117, 112, 179); stroke: rgb(117, 112, 179);"></path><path transform="translate(115.94,60.82278567341004)" d="M0,1.381976597885342A1.381976597885342,1.381976597885342 0 1,1 0,-1.381976597885342A1.381976597885342,1.381976597885342 0 1,1 0,1.381976597885342Z" style="fill: rgb(117, 112, 179); stroke: rgb(117, 112, 179);"></path><path transform="translate(126.47999999999999,69.50258279727083)" d="M0,1.381976597885342A1.381976597885342,1.381976597885342 0 1,1 0,-1.381976597885342A1.381976597885342,1.381976597885342 0 1,1 0,1.381976597885342Z" style="fill: rgb(117, 112, 179); stroke: rgb(117, 112, 179);"></path><path transform="translate(137.02,78.00627775535656)" d="M0,1.381976597885342A1.381976597885342,1.381976597885342 0 1,1 0,-1.381976597885342A1.381976597885342,1.381976597885342 0 1,1 0,1.381976597885342Z" style="fill: rgb(117, 112, 179); stroke: rgb(117, 112, 179);"></path><path transform="translate(147.56,86.33744343910371)" d="M0,1.381976597885342A1.381976597885342,1.381976597885342 0 1,1 0,-1.381976597885342A1.381976597885342,1.381976597885342 0 1,1 0,1.381976597885342Z" style="fill: rgb(117, 112, 179); stroke: rgb(117, 112, 179);"></path><path transform="translate(158.1,94.49958025047617)" d="M0,1.381976597885342A1.381976597885342,1.381976597885342 0 1,1 0,-1.381976597885342A1.381976597885342,1.381976597885342 0 1,1 0,1.381976597885342Z" style="fill: rgb(117, 112, 179); stroke: rgb(117, 112, 179);"></path><path transform="translate(168.64000000000001,102.49611757267574)" d="M0,1.381976597885342A1.381976597885342,1.381976597885342 0 1,1 0,-1.381976597885342A1.381976597885342,1.381976597885342 0 1,1 0,1.381976597885342Z" style="fill: rgb(117, 112, 179); stroke: rgb(117, 112, 179);"></path><path transform="translate(179.18,110.33041521104448)" d="M0,1.381976597885342A1.381976597885342,1.381976597885342 0 1,1 0,-1.381976597885342A1.381976597885342,1.381976597885342 0 1,1 0,1.381976597885342Z" style="fill: rgb(117, 112, 179); stroke: rgb(117, 112, 179);"></path><path transform="translate(189.72,118.00576480468855)" d="M0,1.381976597885342A1.381976597885342,1.381976597885342 0 1,1 0,-1.381976597885342A1.381976597885342,1.381976597885342 0 1,1 0,1.381976597885342Z" style="fill: rgb(117, 112, 179); stroke: rgb(117, 112, 179);"></path><path transform="translate(200.26,125.52539120950806)" d="M0,1.381976597885342A1.381976597885342,1.381976597885342 0 1,1 0,-1.381976597885342A1.381976597885342,1.381976597885342 0 1,1 0,1.381976597885342Z" style="fill: rgb(117, 112, 179); stroke: rgb(117, 112, 179);"></path><path transform="translate(210.8,132.8924538531234)" d="M0,1.381976597885342A1.381976597885342,1.381976597885342 0 1,1 0,-1.381976597885342A1.381976597885342,1.381976597885342 0 1,1 0,1.381976597885342Z" style="fill: rgb(117, 112, 179); stroke: rgb(117, 112, 179);"></path><path transform="translate(221.34,140.11004806234916)" d="M0,1.381976597885342A1.381976597885342,1.381976597885342 0 1,1 0,-1.381976597885342A1.381976597885342,1.381976597885342 0 1,1 0,1.381976597885342Z" style="fill: rgb(117, 112, 179); stroke: rgb(117, 112, 179);"></path><path transform="translate(231.88,147.18120636371395)" d="M0,1.381976597885342A1.381976597885342,1.381976597885342 0 1,1 0,-1.381976597885342A1.381976597885342,1.381976597885342 0 1,1 0,1.381976597885342Z" style="fill: rgb(117, 112, 179); stroke: rgb(117, 112, 179);"></path><path transform="translate(242.42000000000002,154.10889975758823)" d="M0,1.381976597885342A1.381976597885342,1.381976597885342 0 1,1 0,-1.381976597885342A1.381976597885342,1.381976597885342 0 1,1 0,1.381976597885342Z" style="fill: rgb(117, 112, 179); stroke: rgb(117, 112, 179);"></path><path transform="translate(252.95999999999998,160.89603896649257)" d="M0,1.381976597885342A1.381976597885342,1.381976597885342 0 1,1 0,-1.381976597885342A1.381976597885342,1.381976597885342 0 1,1 0,1.381976597885342Z" style="fill: rgb(117, 112, 179); stroke: rgb(117, 112, 179);"></path><path transform="translate(263.5,167.54547565803995)" d="M0,1.381976597885342A1.381976597885342,1.381976597885342 0 1,1 0,-1.381976597885342A1.381976597885342,1.381976597885342 0 1,1 0,1.381976597885342Z" style="fill: rgb(117, 112, 179); stroke: rgb(117, 112, 179);"></path><path transform="translate(274.04,174.06000364310336)" d="M0,1.381976597885342A1.381976597885342,1.381976597885342 0 1,1 0,-1.381976597885342A1.381976597885342,1.381976597885342 0 1,1 0,1.381976597885342Z" style="fill: rgb(117, 112, 179); stroke: rgb(117, 112, 179);"></path><path transform="translate(284.58000000000004,180.44236004963764)" d="M0,1.381976597885342A1.381976597885342,1.381976597885342 0 1,1 0,-1.381976597885342A1.381976597885342,1.381976597885342 0 1,1 0,1.381976597885342Z" style="fill: rgb(117, 112, 179); stroke: rgb(117, 112, 179);"></path><path transform="translate(295.12,186.69522647272157)" d="M0,1.381976597885342A1.381976597885342,1.381976597885342 0 1,1 0,-1.381976597885342A1.381976597885342,1.381976597885342 0 1,1 0,1.381976597885342Z" style="fill: rgb(117, 112, 179); stroke: rgb(117, 112, 179);"></path><path transform="translate(305.65999999999997,192.82123010124297)" d="M0,1.381976597885342A1.381976597885342,1.381976597885342 0 1,1 0,-1.381976597885342A1.381976597885342,1.381976597885342 0 1,1 0,1.381976597885342Z" style="fill: rgb(117, 112, 179); stroke: rgb(117, 112, 179);"></path><path transform="translate(316.2,198.82294482172486)" d="M0,1.381976597885342A1.381976597885342,1.381976597885342 0 1,1 0,-1.381976597885342A1.381976597885342,1.381976597885342 0 1,1 0,1.381976597885342Z" style="fill: rgb(117, 112, 179); stroke: rgb(117, 112, 179);"></path><path transform="translate(326.74,204.70289229977894)" d="M0,1.381976597885342A1.381976597885342,1.381976597885342 0 1,1 0,-1.381976597885342A1.381976597885342,1.381976597885342 0 1,1 0,1.381976597885342Z" style="fill: rgb(117, 112, 179); stroke: rgb(117, 112, 179);"></path><path transform="translate(337.28000000000003,210.4635430395852)" d="M0,1.381976597885342A1.381976597885342,1.381976597885342 0 1,1 0,-1.381976597885342A1.381976597885342,1.381976597885342 0 1,1 0,1.381976597885342Z" style="fill: rgb(117, 112, 179); stroke: rgb(117, 112, 179);"></path><path transform="translate(347.82,216.10731742190976)" d="M0,1.381976597885342A1.381976597885342,1.381976597885342 0 1,1 0,-1.381976597885342A1.381976597885342,1.381976597885342 0 1,1 0,1.381976597885342Z" style="fill: rgb(117, 112, 179); stroke: rgb(117, 112, 179);"></path><path transform="translate(358.36,221.6365867210287)" d="M0,1.381976597885342A1.381976597885342,1.381976597885342 0 1,1 0,-1.381976597885342A1.381976597885342,1.381976597885342 0 1,1 0,1.381976597885342Z" style="fill: rgb(117, 112, 179); stroke: rgb(117, 112, 179);"></path><path transform="translate(368.9,227.0536741010526)" d="M0,1.381976597885342A1.381976597885342,1.381976597885342 0 1,1 0,-1.381976597885342A1.381976597885342,1.381976597885342 0 1,1 0,1.381976597885342Z" style="fill: rgb(117, 112, 179); stroke: rgb(117, 112, 179);"></path><path transform="translate(379.44,232.3608555920138)" d="M0,1.381976597885342A1.381976597885342,1.381976597885342 0 1,1 0,-1.381976597885342A1.381976597885342,1.381976597885342 0 1,1 0,1.381976597885342Z" style="fill: rgb(117, 112, 179); stroke: rgb(117, 112, 179);"></path><path transform="translate(389.98,237.56036104615225)" d="M0,1.381976597885342A1.381976597885342,1.381976597885342 0 1,1 0,-1.381976597885342A1.381976597885342,1.381976597885342 0 1,1 0,1.381976597885342Z" style="fill: rgb(117, 112, 179); stroke: rgb(117, 112, 179);"></path><path transform="translate(400.52,242.65437507481923)" d="M0,1.381976597885342A1.381976597885342,1.381976597885342 0 1,1 0,-1.381976597885342A1.381976597885342,1.381976597885342 0 1,1 0,1.381976597885342Z" style="fill: rgb(117, 112, 179); stroke: rgb(117, 112, 179);"></path><path transform="translate(411.06,247.64503796634148)" d="M0,1.381976597885342A1.381976597885342,1.381976597885342 0 1,1 0,-1.381976597885342A1.381976597885342,1.381976597885342 0 1,1 0,1.381976597885342Z" style="fill: rgb(117, 112, 179); stroke: rgb(117, 112, 179);"></path><path transform="translate(421.6,252.534446585295)" d="M0,1.381976597885342A1.381976597885342,1.381976597885342 0 1,1 0,-1.381976597885342A1.381976597885342,1.381976597885342 0 1,1 0,1.381976597885342Z" style="fill: rgb(117, 112, 179); stroke: rgb(117, 112, 179);"></path><path transform="translate(432.14,257.32465525350415)" d="M0,1.381976597885342A1.381976597885342,1.381976597885342 0 1,1 0,-1.381976597885342A1.381976597885342,1.381976597885342 0 1,1 0,1.381976597885342Z" style="fill: rgb(117, 112, 179); stroke: rgb(117, 112, 179);"></path><path transform="translate(442.68,262.0176766131926)" d="M0,1.381976597885342A1.381976597885342,1.381976597885342 0 1,1 0,-1.381976597885342A1.381976597885342,1.381976597885342 0 1,1 0,1.381976597885342Z" style="fill: rgb(117, 112, 179); stroke: rgb(117, 112, 179);"></path><path transform="translate(453.21999999999997,266.6154824726055)" d="M0,1.381976597885342A1.381976597885342,1.381976597885342 0 1,1 0,-1.381976597885342A1.381976597885342,1.381976597885342 0 1,1 0,1.381976597885342Z" style="fill: rgb(117, 112, 179); stroke: rgb(117, 112, 179);"></path><path transform="translate(463.76,271.1200046344728)" d="M0,1.381976597885342A1.381976597885342,1.381976597885342 0 1,1 0,-1.381976597885342A1.381976597885342,1.381976597885342 0 1,1 0,1.381976597885342Z" style="fill: rgb(117, 112, 179); stroke: rgb(117, 112, 179);"></path><path transform="translate(474.3,275.5331357076848)" d="M0,1.381976597885342A1.381976597885342,1.381976597885342 0 1,1 0,-1.381976597885342A1.381976597885342,1.381976597885342 0 1,1 0,1.381976597885342Z" style="fill: rgb(117, 112, 179); stroke: rgb(117, 112, 179);"></path><path transform="translate(484.84000000000003,279.85672990247105)" d="M0,1.381976597885342A1.381976597885342,1.381976597885342 0 1,1 0,-1.381976597885342A1.381976597885342,1.381976597885342 0 1,1 0,1.381976597885342Z" style="fill: rgb(117, 112, 179); stroke: rgb(117, 112, 179);"></path><path transform="translate(495.38,284.092603809473)" d="M0,1.381976597885342A1.381976597885342,1.381976597885342 0 1,1 0,-1.381976597885342A1.381976597885342,1.381976597885342 0 1,1 0,1.381976597885342Z" style="fill: rgb(117, 112, 179); stroke: rgb(117, 112, 179);"></path><path transform="translate(505.91999999999996,288.2425371629891)" d="M0,1.381976597885342A1.381976597885342,1.381976597885342 0 1,1 0,-1.381976597885342A1.381976597885342,1.381976597885342 0 1,1 0,1.381976597885342Z" style="fill: rgb(117, 112, 179); stroke: rgb(117, 112, 179);"></path><path transform="translate(516.46,292.30827358875024)" d="M0,1.381976597885342A1.381976597885342,1.381976597885342 0 1,1 0,-1.381976597885342A1.381976597885342,1.381976597885342 0 1,1 0,1.381976597885342Z" style="fill: rgb(117, 112, 179); stroke: rgb(117, 112, 179);"></path><path transform="translate(527,296.29152133651536)" d="M0,1.381976597885342A1.381976597885342,1.381976597885342 0 1,1 0,-1.381976597885342A1.381976597885342,1.381976597885342 0 1,1 0,1.381976597885342Z" style="fill: rgb(117, 112, 179); stroke: rgb(117, 112, 179);"></path><path transform="translate(537.54,300.1939539977994)" d="M0,1.381976597885342A1.381976597885342,1.381976597885342 0 1,1 0,-1.381976597885342A1.381976597885342,1.381976597885342 0 1,1 0,1.381976597885342Z" style="fill: rgb(117, 112, 179); stroke: rgb(117, 112, 179);"></path><path transform="translate(548.08,304.0172112090572)" d="M0,1.381976597885342A1.381976597885342,1.381976597885342 0 1,1 0,-1.381976597885342A1.381976597885342,1.381976597885342 0 1,1 0,1.381976597885342Z" style="fill: rgb(117, 112, 179); stroke: rgb(117, 112, 179);"></path><path transform="translate(558.62,307.76289934057644)" d="M0,1.381976597885342A1.381976597885342,1.381976597885342 0 1,1 0,-1.381976597885342A1.381976597885342,1.381976597885342 0 1,1 0,1.381976597885342Z" style="fill: rgb(117, 112, 179); stroke: rgb(117, 112, 179);"></path><path transform="translate(569.1600000000001,311.4325921714165)" d="M0,1.381976597885342A1.381976597885342,1.381976597885342 0 1,1 0,-1.381976597885342A1.381976597885342,1.381976597885342 0 1,1 0,1.381976597885342Z" style="fill: rgb(117, 112, 179); stroke: rgb(117, 112, 179);"></path><path transform="translate(579.7,315.02783155063605)" d="M0,1.381976597885342A1.381976597885342,1.381976597885342 0 1,1 0,-1.381976597885342A1.381976597885342,1.381976597885342 0 1,1 0,1.381976597885342Z" style="fill: rgb(117, 112, 179); stroke: rgb(117, 112, 179);"></path><path transform="translate(590.24,318.5501280451184)" d="M0,1.381976597885342A1.381976597885342,1.381976597885342 0 1,1 0,-1.381976597885342A1.381976597885342,1.381976597885342 0 1,1 0,1.381976597885342Z" style="fill: rgb(117, 112, 179); stroke: rgb(117, 112, 179);"></path><path transform="translate(600.78,322.00096157424474)" d="M0,1.381976597885342A1.381976597885342,1.381976597885342 0 1,1 0,-1.381976597885342A1.381976597885342,1.381976597885342 0 1,1 0,1.381976597885342Z" style="fill: rgb(117, 112, 179); stroke: rgb(117, 112, 179);"></path><path transform="translate(611.3199999999999,325.3817820316899)" d="M0,1.381976597885342A1.381976597885342,1.381976597885342 0 1,1 0,-1.381976597885342A1.381976597885342,1.381976597885342 0 1,1 0,1.381976597885342Z" style="fill: rgb(117, 112, 179); stroke: rgb(117, 112, 179);"></path><path transform="translate(621.86,328.6940098946156)" d="M0,1.381976597885342A1.381976597885342,1.381976597885342 0 1,1 0,-1.381976597885342A1.381976597885342,1.381976597885342 0 1,1 0,1.381976597885342Z" style="fill: rgb(117, 112, 179); stroke: rgb(117, 112, 179);"></path><path transform="translate(632.4,331.9390368204822)" d="M0,1.381976597885342A1.381976597885342,1.381976597885342 0 1,1 0,-1.381976597885342A1.381976597885342,1.381976597885342 0 1,1 0,1.381976597885342Z" style="fill: rgb(117, 112, 179); stroke: rgb(117, 112, 179);"></path><path transform="translate(642.9399999999999,335.118226231777)" d="M0,1.381976597885342A1.381976597885342,1.381976597885342 0 1,1 0,-1.381976597885342A1.381976597885342,1.381976597885342 0 1,1 0,1.381976597885342Z" style="fill: rgb(117, 112, 179); stroke: rgb(117, 112, 179);"></path><path transform="translate(653.48,338.232913888855)" d="M0,1.381976597885342A1.381976597885342,1.381976597885342 0 1,1 0,-1.381976597885342A1.381976597885342,1.381976597885342 0 1,1 0,1.381976597885342Z" style="fill: rgb(117, 112, 179); stroke: rgb(117, 112, 179);"></path><path transform="translate(664.02,341.28440845117626)" d="M0,1.381976597885342A1.381976597885342,1.381976597885342 0 1,1 0,-1.381976597885342A1.381976597885342,1.381976597885342 0 1,1 0,1.381976597885342Z" style="fill: rgb(117, 112, 179); stroke: rgb(117, 112, 179);"></path><path transform="translate(674.5600000000001,344.2739920271472)" d="M0,1.381976597885342A1.381976597885342,1.381976597885342 0 1,1 0,-1.381976597885342A1.381976597885342,1.381976597885342 0 1,1 0,1.381976597885342Z" style="fill: rgb(117, 112, 179); stroke: rgb(117, 112, 179);"></path><path transform="translate(685.1,347.20292071280437)" d="M0,1.381976597885342A1.381976597885342,1.381976597885342 0 1,1 0,-1.381976597885342A1.381976597885342,1.381976597885342 0 1,1 0,1.381976597885342Z" style="fill: rgb(117, 112, 179); stroke: rgb(117, 112, 179);"></path><path transform="translate(695.64,350.0724251195797)" d="M0,1.381976597885342A1.381976597885342,1.381976597885342 0 1,1 0,-1.381976597885342A1.381976597885342,1.381976597885342 0 1,1 0,1.381976597885342Z" style="fill: rgb(117, 112, 179); stroke: rgb(117, 112, 179);"></path><path transform="translate(706.1800000000001,352.8837108913426)" d="M0,1.381976597885342A1.381976597885342,1.381976597885342 0 1,1 0,-1.381976597885342A1.381976597885342,1.381976597885342 0 1,1 0,1.381976597885342Z" style="fill: rgb(117, 112, 179); stroke: rgb(117, 112, 179);"></path><path transform="translate(716.72,355.6379592109684)" d="M0,1.381976597885342A1.381976597885342,1.381976597885342 0 1,1 0,-1.381976597885342A1.381976597885342,1.381976597885342 0 1,1 0,1.381976597885342Z" style="fill: rgb(117, 112, 179); stroke: rgb(117, 112, 179);"></path><path transform="translate(727.26,358.33632729661775)" d="M0,1.381976597885342A1.381976597885342,1.381976597885342 0 1,1 0,-1.381976597885342A1.381976597885342,1.381976597885342 0 1,1 0,1.381976597885342Z" style="fill: rgb(117, 112, 179); stroke: rgb(117, 112, 179);"></path><path transform="translate(737.8,360.9799488879466)" d="M0,1.381976597885342A1.381976597885342,1.381976597885342 0 1,1 0,-1.381976597885342A1.381976597885342,1.381976597885342 0 1,1 0,1.381976597885342Z" style="fill: rgb(117, 112, 179); stroke: rgb(117, 112, 179);"></path><path transform="translate(748.3399999999999,363.5699347224644)" d="M0,1.381976597885342A1.381976597885342,1.381976597885342 0 1,1 0,-1.381976597885342A1.381976597885342,1.381976597885342 0 1,1 0,1.381976597885342Z" style="fill: rgb(117, 112, 179); stroke: rgb(117, 112, 179);"></path><path transform="translate(758.88,366.1073730022091)" d="M0,1.381976597885342A1.381976597885342,1.381976597885342 0 1,1 0,-1.381976597885342A1.381976597885342,1.381976597885342 0 1,1 0,1.381976597885342Z" style="fill: rgb(117, 112, 179); stroke: rgb(117, 112, 179);"></path><path transform="translate(769.42,368.5933298509718)" d="M0,1.381976597885342A1.381976597885342,1.381976597885342 0 1,1 0,-1.381976597885342A1.381976597885342,1.381976597885342 0 1,1 0,1.381976597885342Z" style="fill: rgb(117, 112, 179); stroke: rgb(117, 112, 179);"></path><path transform="translate(779.96,371.0288497622299)" d="M0,1.381976597885342A1.381976597885342,1.381976597885342 0 1,1 0,-1.381976597885342A1.381976597885342,1.381976597885342 0 1,1 0,1.381976597885342Z" style="fill: rgb(117, 112, 179); stroke: rgb(117, 112, 179);"></path><path transform="translate(790.5,373.41495603800394)" d="M0,1.381976597885342A1.381976597885342,1.381976597885342 0 1,1 0,-1.381976597885342A1.381976597885342,1.381976597885342 0 1,1 0,1.381976597885342Z" style="fill: rgb(117, 112, 179); stroke: rgb(117, 112, 179);"></path><path transform="translate(801.04,375.7526512188041)" d="M0,1.381976597885342A1.381976597885342,1.381976597885342 0 1,1 0,-1.381976597885342A1.381976597885342,1.381976597885342 0 1,1 0,1.381976597885342Z" style="fill: rgb(117, 112, 179); stroke: rgb(117, 112, 179);"></path><path transform="translate(811.58,378.0429175048514)" d="M0,1.381976597885342A1.381976597885342,1.381976597885342 0 1,1 0,-1.381976597885342A1.381976597885342,1.381976597885342 0 1,1 0,1.381976597885342Z" style="fill: rgb(117, 112, 179); stroke: rgb(117, 112, 179);"></path><path transform="translate(822.12,380.2867171687643)" d="M0,1.381976597885342A1.381976597885342,1.381976597885342 0 1,1 0,-1.381976597885342A1.381976597885342,1.381976597885342 0 1,1 0,1.381976597885342Z" style="fill: rgb(117, 112, 179); stroke: rgb(117, 112, 179);"></path><path transform="translate(832.6600000000001,382.4849929598555)" d="M0,1.381976597885342A1.381976597885342,1.381976597885342 0 1,1 0,-1.381976597885342A1.381976597885342,1.381976597885342 0 1,1 0,1.381976597885342Z" style="fill: rgb(117, 112, 179); stroke: rgb(117, 112, 179);"></path><path transform="translate(843.2,384.63866850024453)" d="M0,1.381976597885342A1.381976597885342,1.381976597885342 0 1,1 0,-1.381976597885342A1.381976597885342,1.381976597885342 0 1,1 0,1.381976597885342Z" style="fill: rgb(117, 112, 179); stroke: rgb(117, 112, 179);"></path><path transform="translate(853.74,386.7486486729166)" d="M0,1.381976597885342A1.381976597885342,1.381976597885342 0 1,1 0,-1.381976597885342A1.381976597885342,1.381976597885342 0 1,1 0,1.381976597885342Z" style="fill: rgb(117, 112, 179); stroke: rgb(117, 112, 179);"></path><path transform="translate(864.28,388.8158200019206)" d="M0,1.381976597885342A1.381976597885342,1.381976597885342 0 1,1 0,-1.381976597885342A1.381976597885342,1.381976597885342 0 1,1 0,1.381976597885342Z" style="fill: rgb(117, 112, 179); stroke: rgb(117, 112, 179);"></path><path transform="translate(874.8199999999999,390.8410510248486)" d="M0,1.381976597885342A1.381976597885342,1.381976597885342 0 1,1 0,-1.381976597885342A1.381976597885342,1.381976597885342 0 1,1 0,1.381976597885342Z" style="fill: rgb(117, 112, 179); stroke: rgb(117, 112, 179);"></path><path transform="translate(885.36,392.8251926577545)" d="M0,1.381976597885342A1.381976597885342,1.381976597885342 0 1,1 0,-1.381976597885342A1.381976597885342,1.381976597885342 0 1,1 0,1.381976597885342Z" style="fill: rgb(117, 112, 179); stroke: rgb(117, 112, 179);"></path><path transform="translate(895.9,394.7690785526795)" d="M0,1.381976597885342A1.381976597885342,1.381976597885342 0 1,1 0,-1.381976597885342A1.381976597885342,1.381976597885342 0 1,1 0,1.381976597885342Z" style="fill: rgb(117, 112, 179); stroke: rgb(117, 112, 179);"></path><path transform="translate(906.4399999999999,396.67352544791004)" d="M0,1.381976597885342A1.381976597885342,1.381976597885342 0 1,1 0,-1.381976597885342A1.381976597885342,1.381976597885342 0 1,1 0,1.381976597885342Z" style="fill: rgb(117, 112, 179); stroke: rgb(117, 112, 179);"></path><path transform="translate(916.98,398.5393335111429)" d="M0,1.381976597885342A1.381976597885342,1.381976597885342 0 1,1 0,-1.381976597885342A1.381976597885342,1.381976597885342 0 1,1 0,1.381976597885342Z" style="fill: rgb(117, 112, 179); stroke: rgb(117, 112, 179);"></path><path transform="translate(927.52,400.36728667567655)" d="M0,1.381976597885342A1.381976597885342,1.381976597885342 0 1,1 0,-1.381976597885342A1.381976597885342,1.381976597885342 0 1,1 0,1.381976597885342Z" style="fill: rgb(117, 112, 179); stroke: rgb(117, 112, 179);"></path><path transform="translate(938.0600000000001,402.15815296978974)" d="M0,1.381976597885342A1.381976597885342,1.381976597885342 0 1,1 0,-1.381976597885342A1.381976597885342,1.381976597885342 0 1,1 0,1.381976597885342Z" style="fill: rgb(117, 112, 179); stroke: rgb(117, 112, 179);"></path><path transform="translate(948.6,403.91268483943503)" d="M0,1.381976597885342A1.381976597885342,1.381976597885342 0 1,1 0,-1.381976597885342A1.381976597885342,1.381976597885342 0 1,1 0,1.381976597885342Z" style="fill: rgb(117, 112, 179); stroke: rgb(117, 112, 179);"></path><path transform="translate(558.62,310.9594158423472)" d="M0,1.381976597885342A1.381976597885342,1.381976597885342 0 1,1 0,-1.381976597885342A1.381976597885342,1.381976597885342 0 1,1 0,1.381976597885342Z" style="fill: rgb(27, 158, 119); stroke: rgb(27, 158, 119);"></path><path transform="translate(569.1600000000001,323.6843376337235)" d="M0,1.381976597885342A1.381976597885342,1.381976597885342 0 1,1 0,-1.381976597885342A1.381976597885342,1.381976597885342 0 1,1 0,1.381976597885342Z" style="fill: rgb(27, 158, 119); stroke: rgb(27, 158, 119);"></path><path transform="translate(579.7,335.4979215301379)" d="M0,1.381976597885342A1.381976597885342,1.381976597885342 0 1,1 0,-1.381976597885342A1.381976597885342,1.381976597885342 0 1,1 0,1.381976597885342Z" style="fill: rgb(27, 158, 119); stroke: rgb(27, 158, 119);"></path><path transform="translate(590.24,346.4654360473756)" d="M0,1.381976597885342A1.381976597885342,1.381976597885342 0 1,1 0,-1.381976597885342A1.381976597885342,1.381976597885342 0 1,1 0,1.381976597885342Z" style="fill: rgb(27, 158, 119); stroke: rgb(27, 158, 119);"></path><path transform="translate(600.78,356.64747527785187)" d="M0,1.381976597885342A1.381976597885342,1.381976597885342 0 1,1 0,-1.381976597885342A1.381976597885342,1.381976597885342 0 1,1 0,1.381976597885342Z" style="fill: rgb(27, 158, 119); stroke: rgb(27, 158, 119);"></path><path transform="translate(611.3199999999999,366.10029366509974)" d="M0,1.381976597885342A1.381976597885342,1.381976597885342 0 1,1 0,-1.381976597885342A1.381976597885342,1.381976597885342 0 1,1 0,1.381976597885342Z" style="fill: rgb(27, 158, 119); stroke: rgb(27, 158, 119);"></path><path transform="translate(621.86,374.8761168022611)" d="M0,1.381976597885342A1.381976597885342,1.381976597885342 0 1,1 0,-1.381976597885342A1.381976597885342,1.381976597885342 0 1,1 0,1.381976597885342Z" style="fill: rgb(27, 158, 119); stroke: rgb(27, 158, 119);"></path><path transform="translate(632.4,383.0234299716994)" d="M0,1.381976597885342A1.381976597885342,1.381976597885342 0 1,1 0,-1.381976597885342A1.381976597885342,1.381976597885342 0 1,1 0,1.381976597885342Z" style="fill: rgb(27, 158, 119); stroke: rgb(27, 158, 119);"></path><path transform="translate(642.9399999999999,390.58724601988564)" d="M0,1.381976597885342A1.381976597885342,1.381976597885342 0 1,1 0,-1.381976597885342A1.381976597885342,1.381976597885342 0 1,1 0,1.381976597885342Z" style="fill: rgb(27, 158, 119); stroke: rgb(27, 158, 119);"></path><path transform="translate(653.48,397.60935404752394)" d="M0,1.381976597885342A1.381976597885342,1.381976597885342 0 1,1 0,-1.381976597885342A1.381976597885342,1.381976597885342 0 1,1 0,1.381976597885342Z" style="fill: rgb(27, 158, 119); stroke: rgb(27, 158, 119);"></path><path transform="translate(664.02,404.1285502889039)" d="M0,1.381976597885342A1.381976597885342,1.381976597885342 0 1,1 0,-1.381976597885342A1.381976597885342,1.381976597885342 0 1,1 0,1.381976597885342Z" style="fill: rgb(27, 158, 119); stroke: rgb(27, 158, 119);"></path><path transform="translate(674.5600000000001,410.18085245605187)" d="M0,1.381976597885342A1.381976597885342,1.381976597885342 0 1,1 0,-1.381976597885342A1.381976597885342,1.381976597885342 0 1,1 0,1.381976597885342Z" style="fill: rgb(27, 158, 119); stroke: rgb(27, 158, 119);"></path><path transform="translate(685.1,415.7996987319097)" d="M0,1.381976597885342A1.381976597885342,1.381976597885342 0 1,1 0,-1.381976597885342A1.381976597885342,1.381976597885342 0 1,1 0,1.381976597885342Z" style="fill: rgb(27, 158, 119); stroke: rgb(27, 158, 119);"></path><path transform="translate(695.64,421.01613251194954)" d="M0,1.381976597885342A1.381976597885342,1.381976597885342 0 1,1 0,-1.381976597885342A1.381976597885342,1.381976597885342 0 1,1 0,1.381976597885342Z" style="fill: rgb(27, 158, 119); stroke: rgb(27, 158, 119);"></path><path transform="translate(706.1800000000001,425.8589739149011)" d="M0,1.381976597885342A1.381976597885342,1.381976597885342 0 1,1 0,-1.381976597885342A1.381976597885342,1.381976597885342 0 1,1 0,1.381976597885342Z" style="fill: rgb(27, 158, 119); stroke: rgb(27, 158, 119);"></path><path transform="translate(716.72,430.35497901016015)" d="M0,1.381976597885342A1.381976597885342,1.381976597885342 0 1,1 0,-1.381976597885342A1.381976597885342,1.381976597885342 0 1,1 0,1.381976597885342Z" style="fill: rgb(27, 158, 119); stroke: rgb(27, 158, 119);"></path><path transform="translate(727.26,434.5289876415955)" d="M0,1.381976597885342A1.381976597885342,1.381976597885342 0 1,1 0,-1.381976597885342A1.381976597885342,1.381976597885342 0 1,1 0,1.381976597885342Z" style="fill: rgb(27, 158, 119); stroke: rgb(27, 158, 119);"></path><path transform="translate(737.8,438.40406066446013)" d="M0,1.381976597885342A1.381976597885342,1.381976597885342 0 1,1 0,-1.381976597885342A1.381976597885342,1.381976597885342 0 1,1 0,1.381976597885342Z" style="fill: rgb(27, 158, 119); stroke: rgb(27, 158, 119);"></path><path transform="translate(748.3399999999999,442.00160735361715)" d="M0,1.381976597885342A1.381976597885342,1.381976597885342 0 1,1 0,-1.381976597885342A1.381976597885342,1.381976597885342 0 1,1 0,1.381976597885342Z" style="fill: rgb(27, 158, 119); stroke: rgb(27, 158, 119);"></path><path transform="translate(758.88,445.34150368700176)" d="M0,1.381976597885342A1.381976597885342,1.381976597885342 0 1,1 0,-1.381976597885342A1.381976597885342,1.381976597885342 0 1,1 0,1.381976597885342Z" style="fill: rgb(27, 158, 119); stroke: rgb(27, 158, 119);"></path><path transform="translate(769.42,448.4422021578173)" d="M0,1.381976597885342A1.381976597885342,1.381976597885342 0 1,1 0,-1.381976597885342A1.381976597885342,1.381976597885342 0 1,1 0,1.381976597885342Z" style="fill: rgb(27, 158, 119); stroke: rgb(27, 158, 119);"></path><path transform="translate(779.96,451.32083372216124)" d="M0,1.381976597885342A1.381976597885342,1.381976597885342 0 1,1 0,-1.381976597885342A1.381976597885342,1.381976597885342 0 1,1 0,1.381976597885342Z" style="fill: rgb(27, 158, 119); stroke: rgb(27, 158, 119);"></path><path transform="translate(790.5,453.99330244533184)" d="M0,1.381976597885342A1.381976597885342,1.381976597885342 0 1,1 0,-1.381976597885342A1.381976597885342,1.381976597885342 0 1,1 0,1.381976597885342Z" style="fill: rgb(27, 158, 119); stroke: rgb(27, 158, 119);"></path><path transform="translate(801.04,456.47437336972183)" d="M0,1.381976597885342A1.381976597885342,1.381976597885342 0 1,1 0,-1.381976597885342A1.381976597885342,1.381976597885342 0 1,1 0,1.381976597885342Z" style="fill: rgb(27, 158, 119); stroke: rgb(27, 158, 119);"></path><path transform="translate(811.58,458.77775408975896)" d="M0,1.381976597885342A1.381976597885342,1.381976597885342 0 1,1 0,-1.381976597885342A1.381976597885342,1.381976597885342 0 1,1 0,1.381976597885342Z" style="fill: rgb(27, 158, 119); stroke: rgb(27, 158, 119);"></path><path transform="translate(822.12,460.91617048458386)" d="M0,1.381976597885342A1.381976597885342,1.381976597885342 0 1,1 0,-1.381976597885342A1.381976597885342,1.381976597885342 0 1,1 0,1.381976597885342Z" style="fill: rgb(27, 158, 119); stroke: rgb(27, 158, 119);"></path><path transform="translate(832.6600000000001,462.9014370268783)" d="M0,1.381976597885342A1.381976597885342,1.381976597885342 0 1,1 0,-1.381976597885342A1.381976597885342,1.381976597885342 0 1,1 0,1.381976597885342Z" style="fill: rgb(27, 158, 119); stroke: rgb(27, 158, 119);"></path><path transform="translate(843.2,464.7445220562916)" d="M0,1.381976597885342A1.381976597885342,1.381976597885342 0 1,1 0,-1.381976597885342A1.381976597885342,1.381976597885342 0 1,1 0,1.381976597885342Z" style="fill: rgb(27, 158, 119); stroke: rgb(27, 158, 119);"></path><path transform="translate(853.74,466.4556083780917)" d="M0,1.381976597885342A1.381976597885342,1.381976597885342 0 1,1 0,-1.381976597885342A1.381976597885342,1.381976597885342 0 1,1 0,1.381976597885342Z" style="fill: rgb(27, 158, 119); stroke: rgb(27, 158, 119);"></path><path transform="translate(864.28,468.044149521841)" d="M0,1.381976597885342A1.381976597885342,1.381976597885342 0 1,1 0,-1.381976597885342A1.381976597885342,1.381976597885342 0 1,1 0,1.381976597885342Z" style="fill: rgb(27, 158, 119); stroke: rgb(27, 158, 119);"></path><path transform="translate(874.8199999999999,469.5189219709186)" d="M0,1.381976597885342A1.381976597885342,1.381976597885342 0 1,1 0,-1.381976597885342A1.381976597885342,1.381976597885342 0 1,1 0,1.381976597885342Z" style="fill: rgb(27, 158, 119); stroke: rgb(27, 158, 119);"></path><path transform="translate(885.36,470.88807365145044)" d="M0,1.381976597885342A1.381976597885342,1.381976597885342 0 1,1 0,-1.381976597885342A1.381976597885342,1.381976597885342 0 1,1 0,1.381976597885342Z" style="fill: rgb(27, 158, 119); stroke: rgb(27, 158, 119);"></path><path transform="translate(895.9,472.1591689485424)" d="M0,1.381976597885342A1.381976597885342,1.381976597885342 0 1,1 0,-1.381976597885342A1.381976597885342,1.381976597885342 0 1,1 0,1.381976597885342Z" style="fill: rgb(27, 158, 119); stroke: rgb(27, 158, 119);"></path><path transform="translate(906.4399999999999,473.33923049852456)" d="M0,1.381976597885342A1.381976597885342,1.381976597885342 0 1,1 0,-1.381976597885342A1.381976597885342,1.381976597885342 0 1,1 0,1.381976597885342Z" style="fill: rgb(27, 158, 119); stroke: rgb(27, 158, 119);"></path><path transform="translate(916.98,474.4347779881048)" d="M0,1.381976597885342A1.381976597885342,1.381976597885342 0 1,1 0,-1.381976597885342A1.381976597885342,1.381976597885342 0 1,1 0,1.381976597885342Z" style="fill: rgb(27, 158, 119); stroke: rgb(27, 158, 119);"></path><path transform="translate(927.52,475.4518641747904)" d="M0,1.381976597885342A1.381976597885342,1.381976597885342 0 1,1 0,-1.381976597885342A1.381976597885342,1.381976597885342 0 1,1 0,1.381976597885342Z" style="fill: rgb(27, 158, 119); stroke: rgb(27, 158, 119);"></path><path transform="translate(938.0600000000001,476.39610832758655)" d="M0,1.381976597885342A1.381976597885342,1.381976597885342 0 1,1 0,-1.381976597885342A1.381976597885342,1.381976597885342 0 1,1 0,1.381976597885342Z" style="fill: rgb(27, 158, 119); stroke: rgb(27, 158, 119);"></path><path transform="translate(948.6,477.2727272727274)" d="M0,1.381976597885342A1.381976597885342,1.381976597885342 0 1,1 0,-1.381976597885342A1.381976597885342,1.381976597885342 0 1,1 0,1.381976597885342Z" style="fill: rgb(27, 158, 119); stroke: rgb(27, 158, 119);"></path></g><g id="g614" class="type-group"><g transform="translate(1078,0.5)"><rect class="background" style="pointer-events: none; fill: none;" width="95" height="61"></rect><g id="g615" class="type-text" style="pointer-events: none;"><text x="3" y="3" text-anchor="start" dy=".9em" style="font: bold 11px sans-serif; fill: rgb(0, 0, 0); opacity: 1;">cat</text></g><g id="g616" class="type-symbol" style="pointer-events: none;"><path transform="translate(7.5,23)" d="M0,3.989422804014327A3.989422804014327,3.989422804014327 0 1,1 0,-3.989422804014327A3.989422804014327,3.989422804014327 0 1,1 0,3.989422804014327Z" style="fill: rgb(27, 158, 119); stroke: rgb(136, 136, 136); stroke-width: 1; opacity: 1;"></path><path transform="translate(7.5,38)" d="M0,3.989422804014327A3.989422804014327,3.989422804014327 0 1,1 0,-3.989422804014327A3.989422804014327,3.989422804014327 0 1,1 0,3.989422804014327Z" style="fill: rgb(217, 95, 2); stroke: rgb(136, 136, 136); stroke-width: 1; opacity: 1;"></path><path transform="translate(7.5,53)" d="M0,3.989422804014327A3.989422804014327,3.989422804014327 0 1,1 0,-3.989422804014327A3.989422804014327,3.989422804014327 0 1,1 0,3.989422804014327Z" style="fill: rgb(117, 112, 179); stroke: rgb(136, 136, 136); stroke-width: 1; opacity: 1;"></path></g><g id="g617" class="type-text" style="pointer-events: none;"><text x="16" y="23" text-anchor="start" dy=".35em" style="font: 10px sans-serif; fill: rgb(0, 0, 0); opacity: 1;">Bottom-up</text><text x="16" y="38" text-anchor="start" dy=".35em" style="font: 10px sans-serif; fill: rgb(0, 0, 0); opacity: 1;">Historical</text><text x="16" y="53" text-anchor="start" dy=".35em" style="font: 10px sans-serif; fill: rgb(0, 0, 0); opacity: 1;">Historical Trend</text></g></g></g><g id="g618" class="type-group"><g transform="translate(1078,0.5)"><rect class="background" style="pointer-events: none; fill: none;" width="95" height="61"></rect><g id="g619" class="type-text" style="pointer-events: none;"><text x="3" y="3" text-anchor="start" dy=".9em" style="font: bold 11px sans-serif; fill: rgb(0, 0, 0); opacity: 1;">cat</text></g><g id="g620" class="type-symbol" style="pointer-events: none;"><path transform="translate(7.5,23)" d="M0,3.989422804014327A3.989422804014327,3.989422804014327 0 1,1 0,-3.989422804014327A3.989422804014327,3.989422804014327 0 1,1 0,3.989422804014327Z" style="fill: none; stroke: rgb(27, 158, 119); stroke-width: 1; opacity: 1;"></path><path transform="translate(7.5,38)" d="M0,3.989422804014327A3.989422804014327,3.989422804014327 0 1,1 0,-3.989422804014327A3.989422804014327,3.989422804014327 0 1,1 0,3.989422804014327Z" style="fill: none; stroke: rgb(217, 95, 2); stroke-width: 1; opacity: 1;"></path><path transform="translate(7.5,53)" d="M0,3.989422804014327A3.989422804014327,3.989422804014327 0 1,1 0,-3.989422804014327A3.989422804014327,3.989422804014327 0 1,1 0,3.989422804014327Z" style="fill: none; stroke: rgb(117, 112, 179); stroke-width: 1; opacity: 1;"></path></g><g id="g621" class="type-text" style="pointer-events: none;"><text x="16" y="23" text-anchor="start" dy=".35em" style="font: 10px sans-serif; fill: rgb(0, 0, 0); opacity: 1;">Bottom-up</text><text x="16" y="38" text-anchor="start" dy=".35em" style="font: 10px sans-serif; fill: rgb(0, 0, 0); opacity: 1;">Historical</text><text x="16" y="53" text-anchor="start" dy=".35em" style="font: 10px sans-serif; fill: rgb(0, 0, 0); opacity: 1;">Historical Trend</text></g></g></g></g></g></g></svg>