<svg class="marks" width="1235" height="554" xmlns="http://www.w3.org/2000/svg"><g transform="translate(46,6)"><g id="g543" class="type-group"><g transform="translate(0,0)"><rect class="background" style="pointer-events: none; fill: none;" width="1066" height="500"></rect><g id="g544" class="type-group"><g transform="translate(0,500)"><rect class="background" style="pointer-events: none; fill: none;" width="0" height="0"></rect><g id="g545" class="type-rule" style="pointer-events: none;"><line x1="0.5" y1="-500" x2="0.5" y2="0" style="fill: none; stroke: rgb(216, 216, 216); stroke-width: 1; opacity: 1;"></line><line x1="118.94444444444444" y1="-500" x2="118.94444444444444" y2="0" style="fill: none; stroke: rgb(216, 216, 216); stroke-width: 1; opacity: 1;"></line><line x1="237.38888888888889" y1="-500" x2="237.38888888888889" y2="0" style="fill: none; stroke: rgb(216, 216, 216); stroke-width: 1; opacity: 1;"></line><line x1="355.8333333333333" y1="-500" x2="355.8333333333333" y2="0" style="fill: none; stroke: rgb(216, 216, 216); stroke-width: 1; opacity: 1;"></line><line x1="474.27777777777777" y1="-500" x2="474.27777777777777" y2="0" style="fill: none; stroke: rgb(216, 216, 216); stroke-width: 1; opacity: 1;"></line><line x1="592.7222222222223" y1="-500" x2="592.7222222222223" y2="0" style="fill: none; stroke: rgb(216, 216, 216); stroke-width: 1; opacity: 1;"></line><line x1="711.1666666666666" y1="-500" x2="711.1666666666666" y2="0" style="fill: none; stroke: rgb(216, 216, 216); stroke-width: 1; opacity: 1;"></line><line x1="829.6111111111111" y1="-500" x2="829.6111111111111" y2="0" style="fill: none; stroke: rgb(216, 216, 216); stroke-width: 1; opacity: 1;"></line><line x1="948.0555555555555" y1="-500" x2="948.0555555555555" y2="0" style="fill: none; stroke: rgb(216, 216, 216); stroke-width: 1; opacity: 1;"></line><line x1="1066.5" y1="-500" x2="1066.5" y2="0" style="fill: none; stroke: rgb(216, 216, 216); stroke-width: 1; opacity: 1;"></line></g><g id="g546" class="type-rule" style="pointer-events: none;"><line x1="0.5" y1="0" x2="0.5" y2="6" style="fill: none; stroke: rgb(0, 0, 0); stroke-width: 1; opacity: 1;"></line><line x1="118.94444444444444" y1="0" x2="118.94444444444444" y2="6" style="fill: none; stroke: rgb(0, 0, 0); stroke-width: 1; opacity: 1;"></line><line x1="237.38888888888889" y1="0" x2="237.38888888888889" y2="6" style="fill: none; stroke: rgb(0, 0, 0); stroke-width: 1; opacity: 1;"></line><line x1="355.8333333333333" y1="0" x2="355.8333333333333" y2="6" style="fill: none; stroke: rgb(0, 0, 0); stroke-width: 1; opacity: 1;"></line><line x1="474.27777777777777" y1="0" x2="474.27777777777777" y2="6" style="fill: none; stroke: rgb(0, 0, 0); stroke-width: 1; opacity: 1;"></line><line x1="592.7222222222223" y1="0" x2="592.7222222222223" y2="6" style="fill: none; stroke: rgb(0, 0, 0); stroke-width: 1; opacity: 1;"></line><line x1="711.1666666666666" y1="0" x2="711.1666666666666" y2="6" style="fill: none; stroke: rgb(0, 0, 0); stroke-width: 1; opacity: 1;"></line><line x1="829.6111111111111" y1="0" x2="829.6111111111111" y2="6" style="fill: none; stroke: rgb(0, 0, 0); stroke-width: 1; opacity: 1;"></line><line x1="948.0555555555555" y1="0" x2="948.0555555555555" y2="6" style="fill: none; stroke: rgb(0, 0, 0); stroke-width: 1; opacity: 1;"></line><line x1="1066.5" y1="0" x2="1066.5" y2="6" style="fill: none; stroke: rgb(0, 0, 0); stroke-width: 1; opacity: 1;"></line></g><g id="g547" class="type-rule" style="pointer-events: none;"></g><g id="g548" class="type-text"><text x="0.5" y="9" text-anchor="middle" dy=".9em" style="font: 11px sans-serif; fill: rgb(0, 0, 0); opacity: 1;">1970</text><text x="118.94444444444444" y="9" text-anchor="middle" dy=".9em" style="font: 11px sans-serif; fill: rgb(0, 0, 0); opacity: 1;">1980</text><text x="237.38888888888889" y="9" text-anchor="middle" dy=".9em" style="font: 11px sans-serif; fill: rgb(0, 0, 0); opacity: 1;">1990</text><text x="355.8333333333333" y="9" text-anchor="middle" dy=".9em" style="font: 11px sans-serif; fill: rgb(0, 0, 0); opacity: 1;">2000</text><text x="474.27777777777777" y="9" text-anchor="middle" dy=".9em" style="font: 11px sans-serif; fill: rgb(0, 0, 0); opacity: 1;">2010</text><text x="592.7222222222223" y="9" text-anchor="middle" dy=".9em" style="font: 11px sans-serif; fill: rgb(0, 0, 0); opacity: 1;">2020</text><text x="711.1666666666666" y="9" text-anchor="middle" dy=".9em" style="font: 11px sans-serif; fill: rgb(0, 0, 0); opacity: 1;">2030</text><text x="829.6111111111111" y="9" text-anchor="middle" dy=".9em" style="font: 11px sans-serif; fill: rgb(0, 0, 0); opacity: 1;">2040</text><text x="948.0555555555555" y="9" text-anchor="middle" dy=".9em" style="font: 11px sans-serif; fill: rgb(0, 0, 0); opacity: 1;">2050</text><text x="1066.5" y="9" text-anchor="middle" dy=".9em" style="font: 11px sans-serif; fill: rgb(0, 0, 0); opacity: 1;">2060</text></g><g id="g549" class="type-path" style="pointer-events: none;"><path transform="translate(0.5,0.5)" d="M0,6V0H1066V6" style="fill: none; stroke: rgb(0, 0, 0); stroke-width: 1;"></path></g><g id="g550" class="type-text"><text x="533" y="35" text-anchor="middle" dy=".35em" style="font: bold 11px sans-serif; fill: rgb(0, 0, 0);">Year</text></g></g></g><g id="g551" class="type-group"><g transform="translate(0,0)"><rect class="background" style="pointer-events: none; fill: none;" width="0" height="0"></rect><g id="g552" class="type-rule" style="pointer-events: none;"><line x1="0" y1="500.5" x2="1066" y2="500.5" style="fill: none; stroke: rgb(216, 216, 216); stroke-width: 1; opacity: 1;"></line><line x1="0" y1="451.121705018591" x2="1066" y2="451.121705018591" style="fill: none; stroke: rgb(216, 216, 216); stroke-width: 1; opacity: 1;"></line><line x1="0" y1="401.743410037182" x2="1066" y2="401.743410037182" style="fill: none; stroke: rgb(216, 216, 216); stroke-width: 1; opacity: 1;"></line><line x1="0" y1="352.365115055773" x2="1066" y2="352.365115055773" style="fill: none; stroke: rgb(216, 216, 216); stroke-width: 1; opacity: 1;"></line><line x1="0" y1="302.98682007436406" x2="1066" y2="302.98682007436406" style="fill: none; stroke: rgb(216, 216, 216); stroke-width: 1; opacity: 1;"></line><line x1="0" y1="253.60852509295506" x2="1066" y2="253.60852509295506" style="fill: none; stroke: rgb(216, 216, 216); stroke-width: 1; opacity: 1;"></line><line x1="0" y1="204.23023011154606" x2="1066" y2="204.23023011154606" style="fill: none; stroke: rgb(216, 216, 216); stroke-width: 1; opacity: 1;"></line><line x1="0" y1="154.85193513013706" x2="1066" y2="154.85193513013706" style="fill: none; stroke: rgb(216, 216, 216); stroke-width: 1; opacity: 1;"></line><line x1="0" y1="105.47364014872812" x2="1066" y2="105.47364014872812" style="fill: none; stroke: rgb(216, 216, 216); stroke-width: 1; opacity: 1;"></line><line x1="0" y1="56.095345167319124" x2="1066" y2="56.095345167319124" style="fill: none; stroke: rgb(216, 216, 216); stroke-width: 1; opacity: 1;"></line><line x1="0" y1="6.717050185910122" x2="1066" y2="6.717050185910122" style="fill: none; stroke: rgb(216, 216, 216); stroke-width: 1; opacity: 1;"></line></g><g id="g553" class="type-rule" style="pointer-events: none;"><line x1="-6" y1="500.5" x2="0" y2="500.5" style="fill: none; stroke: rgb(0, 0, 0); stroke-width: 1; opacity: 1;"></line><line x1="-6" y1="451.121705018591" x2="0" y2="451.121705018591" style="fill: none; stroke: rgb(0, 0, 0); stroke-width: 1; opacity: 1;"></line><line x1="-6" y1="401.743410037182" x2="0" y2="401.743410037182" style="fill: none; stroke: rgb(0, 0, 0); stroke-width: 1; opacity: 1;"></line><line x1="-6" y1="352.365115055773" x2="0" y2="352.365115055773" style="fill: none; stroke: rgb(0, 0, 0); stroke-width: 1; opacity: 1;"></line><line x1="-6" y1="302.98682007436406" x2="0" y2="302.98682007436406" style="fill: none; stroke: rgb(0, 0, 0); stroke-width: 1; opacity: 1;"></line><line x1="-6" y1="253.60852509295506" x2="0" y2="253.60852509295506" style="fill: none; stroke: rgb(0, 0, 0); stroke-width: 1; opacity: 1;"></line><line x1="-6" y1="204.23023011154606" x2="0" y2="204.23023011154606" style="fill: none; stroke: rgb(0, 0, 0); stroke-width: 1; opacity: 1;"></line><line x1="-6" y1="154.85193513013706" x2="0" y2="154.85193513013706" style="fill: none; stroke: rgb(0, 0, 0); stroke-width: 1; opacity: 1;"></line><line x1="-6" y1="105.47364014872812" x2="0" y2="105.47364014872812" style="fill: none; stroke: rgb(0, 0, 0); stroke-width: 1; opacity: 1;"></line><line x1="-6" y1="56.095345167319124" x2="0" y2="56.095345167319124" style="fill: none; stroke: rgb(0, 0, 0); stroke-width: 1; opacity: 1;"></line><line x1="-6" y1="6.717050185910122" x2="0" y2="6.717050185910122" style="fill: none; stroke: rgb(0, 0, 0); stroke-width: 1; opacity: 1;"></line></g><g id="g554" class="type-rule" style="pointer-events: none;"></g><g id="g555" class="type-text"><text x="-9" y="500.5" text-anchor="end" dy=".35em" style="font: 11px sans-serif; fill: rgb(0, 0, 0); opacity: 1;">0</text><text x="-9" y="451.121705018591" text-anchor="end" dy=".35em" style="font: 11px sans-serif; fill: rgb(0, 0, 0); opacity: 1;">200</text><text x="-9" y="401.743410037182" text-anchor="end" dy=".35em" style="font: 11px sans-serif; fill: rgb(0, 0, 0); opacity: 1;">400</text><text x="-9" y="352.365115055773" text-anchor="end" dy=".35em" style="font: 11px sans-serif; fill: rgb(0, 0, 0); opacity: 1;">600</text><text x="-9" y="302.98682007436406" text-anchor="end" dy=".35em" style="font: 11px sans-serif; fill: rgb(0, 0, 0); opacity: 1;">800</text><text x="-9" y="253.60852509295506" text-anchor="end" dy=".35em" style="font: 11px sans-serif; fill: rgb(0, 0, 0); opacity: 1;">1,000</text><text x="-9" y="204.23023011154606" text-anchor="end" dy=".35em" style="font: 11px sans-serif; fill: rgb(0, 0, 0); opacity: 1;">1,200</text><text x="-9" y="154.85193513013706" text-anchor="end" dy=".35em" style="font: 11px sans-serif; fill: rgb(0, 0, 0); opacity: 1;">1,400</text><text x="-9" y="105.47364014872812" text-anchor="end" dy=".35em" style="font: 11px sans-serif; fill: rgb(0, 0, 0); opacity: 1;">1,600</text><text x="-9" y="56.095345167319124" text-anchor="end" dy=".35em" style="font: 11px sans-serif; fill: rgb(0, 0, 0); opacity: 1;">1,800</text><text x="-9" y="6.717050185910122" text-anchor="end" dy=".35em" style="font: 11px sans-serif; fill: rgb(0, 0, 0); opacity: 1;">2,000</text></g><g id="g556" class="type-path" style="pointer-events: none;"><path transform="translate(0.5,0.5)" d="M-6,0H0V500H-6" style="fill: none; stroke: rgb(0, 0, 0); stroke-width: 1;"></path></g><g id="g557" class="type-text"><text x="-35" y="250" text-anchor="middle" transform="rotate(-90 -35,250)" dy=".35em" style="font: bold 11px sans-serif; fill: rgb(0, 0, 0);">CO2 intensity (tonnes / $ million GDP)</text></g></g></g><g id="g558" class="type-group"><g transform="translate(0,0)"><rect class="background" width="0" height="0" style="fill: none;"></rect><g id="g559" class="type-line"><path d="M556.6888888888889,232.85783797956526L568.5333333333333,249.63134025481594L580.3777777777777,265.3516565542936L592.2222222222223,280.0849150294927L604.0666666666666,293.89309173292446L615.911111111111,306.8342713229078L627.7555555555556,318.96289139905286L639.6,330.32997149624345L651.4444444444445,340.9833277003912L663.2888888888889,350.967773788749L675.1333333333333,360.3253097408951L686.9777777777779,369.095298413357L698.8222222222222,377.31463112107343L710.6666666666666,385.01788282221577L722.5111111111112,392.2374575591581L734.3555555555555,399.00372476740233L746.1999999999999,405.34514702584886L758.0444444444445,411.2883997857935L769.8888888888889,416.85848358230163L781.7333333333332,422.0788291999787L793.5777777777778,426.9713962355202L805.4222222222222,431.556765471651L817.2666666666668,435.85422545102716L829.1111111111111,439.8818536142769L840.9555555555555,443.65659234349215L852.8000000000001,447.19432023104883L864.6444444444445,450.5099188735536L876.4888888888888,453.61733547188646L888.3333333333334,456.5296415006707L900.1777777777778,459.2590876939626L912.0222222222221,461.81715557846564L923.8666666666667,464.21460577103824L935.7111111111111,466.4615232436697L947.5555555555555,468.56735974632477" style="fill: none; stroke: rgb(27, 158, 119); stroke-width: 2;"></path></g></g><g transform="translate(0,0)"><rect class="background" width="0" height="0" style="fill: none;"></rect><g id="g560" class="type-line"><path d="M118.44444444444444,39.96424851911784L130.2888888888889,51.385320975671945L142.13333333333333,63.804473569209044L153.97777777777776,55.85006784948155L165.82222222222222,57.090922181894655L177.66666666666666,77.5675568578243L189.51111111111112,78.73246516258587L201.35555555555555,77.21412692123486L213.20000000000002,80.52351467364332L225.04444444444445,75.8347229207007L236.88888888888889,83.91102491573076L248.73333333333335,81.27517717717548L260.5777777777778,79.83654639637876L272.4222222222222,86.49113922140845L284.26666666666665,87.70930633929342L296.11111111111114,90.5465376079106L307.9555555555555,94.25175819751824L319.8,97.431665401783L331.64444444444445,104.13776362821109L343.48888888888894,116.46305125108259L355.3333333333333,130.17482362565647L367.17777777777775,134.98248565105348L379.02222222222224,144.45277863662858L390.8666666666666,148.29056324022395L402.7111111111111,149.2555018783561L414.55555555555554,162.068281685819L426.40000000000003,152.5436217441155L438.2444444444444,161.5053721335219L450.0888888888889,165.0026715163001L461.93333333333334,175.34095570719077L473.77777777777777,185.424114291523L485.6222222222222,188.40655955221303L497.4666666666667,205.54233267990207L509.31111111111113,215.94054592084444L521.1555555555556,217.96938873947425L533,219.15705647408095L544.8444444444444,226.8529759494868L556.6888888888889,232.85783797956526" style="fill: none; stroke: rgb(217, 95, 2); stroke-width: 2;"></path></g></g><g transform="translate(0,0)"><rect class="background" width="0" height="0" style="fill: none;"></rect><g id="g561" class="type-line"><path d="M118.44444444444444,22.312731416492092L130.2888888888889,28.909959730953727L142.13333333333333,35.4160752519741L153.97777777777776,41.83233631725136L165.82222222222222,48.159983885884216L177.66666666666666,54.40024177836478L189.51111111111112,60.55431691328161L201.35555555555555,66.62339954076224L213.20000000000002,72.60866347264822L225.04444444444445,78.51126630955346L236.88888888888889,84.33234966472813L248.73333333333335,90.07303938486389L260.5777777777778,95.73444576785417L272.4222222222222,101.31766377751872L284.26666666666665,106.82377325538167L296.11111111111114,112.25383912953696L307.9555555555555,117.60891162059062L319.8,122.89002644480507L331.64444444444445,128.09820501439785L343.48888888888894,133.2344546351036L355.3333333333333,138.29976870099142L367.17777777777775,143.29512688658608L379.02222222222224,148.22149533636443L390.8666666666666,153.07982685160033L402.7111111111111,157.87106107464987L414.55555555555554,162.5961246706899L426.40000000000003,167.25593150693234L438.2444444444444,171.85138282938567L450.0888888888889,176.3833674371604L461.93333333333334,180.85276185435995L473.77777777777777,185.2604304996237L485.6222222222222,189.60722585330137L497.4666666666667,193.8939886223331L509.31111111111113,198.1215479028564L521.1555555555556,202.2907213405476L533,206.40231528876814L544.8444444444444,210.4571249645235L556.6888888888889,214.4559346022593L568.5333333333333,218.39951760553643L580.3777777777777,222.28863669662798L592.2222222222223,226.12404406401643L604.0666666666666,229.90648150788755L615.911111111111,233.6366805835986L627.7555555555556,237.31536274315945L639.6,240.94323947478102L651.4444444444445,244.5210124404648L663.2888888888889,248.04937361172958L675.1333333333333,251.52900540343347L686.9777777777779,254.96058080575912L698.8222222222222,258.3447635143781L710.6666666666666,261.6822080588154L722.5111111111112,264.9735599290389L734.3555555555555,268.21945570030636L746.1999999999999,271.42052315627996L758.0444444444445,274.57738141044643L769.8888888888889,277.69064102586236L781.7333333333332,280.76090413323584L793.5777777777778,283.7887645473901L805.4222222222222,286.7748078821071L817.2666666666668,289.7196116633924L829.1111111111111,292.6237454411759L840.9555555555555,295.487770899463L852.8000000000001,298.3122419649707L864.6444444444445,301.0977049142657L876.4888888888888,303.8446984794116L888.3333333333334,306.553753952171L900.1777777777778,309.225395286757L912.0222222222221,311.86013920117296L923.8666666666667,314.45849527715063L935.7111111111111,317.0209660587049L947.5555555555555,319.548047149331" style="fill: none; stroke: rgb(117, 112, 179); stroke-width: 2;"></path></g></g></g><g id="g562" class="type-symbol"><path transform="translate(118.44444444444444,39.96424851911784)" d="M0,1.381976597885342A1.381976597885342,1.381976597885342 0 1,1 0,-1.381976597885342A1.381976597885342,1.381976597885342 0 1,1 0,1.381976597885342Z" style="fill: rgb(217, 95, 2); stroke: rgb(217, 95, 2);"></path><path transform="translate(130.2888888888889,51.385320975671945)" d="M0,1.381976597885342A1.381976597885342,1.381976597885342 0 1,1 0,-1.381976597885342A1.381976597885342,1.381976597885342 0 1,1 0,1.381976597885342Z" style="fill: rgb(217, 95, 2); stroke: rgb(217, 95, 2);"></path><path transform="translate(142.13333333333333,63.804473569209044)" d="M0,1.381976597885342A1.381976597885342,1.381976597885342 0 1,1 0,-1.381976597885342A1.381976597885342,1.381976597885342 0 1,1 0,1.381976597885342Z" style="fill: rgb(217, 95, 2); stroke: rgb(217, 95, 2);"></path><path transform="translate(153.97777777777776,55.85006784948155)" d="M0,1.381976597885342A1.381976597885342,1.381976597885342 0 1,1 0,-1.381976597885342A1.381976597885342,1.381976597885342 0 1,1 0,1.381976597885342Z" style="fill: rgb(217, 95, 2); stroke: rgb(217, 95, 2);"></path><path transform="translate(165.82222222222222,57.090922181894655)" d="M0,1.381976597885342A1.381976597885342,1.381976597885342 0 1,1 0,-1.381976597885342A1.381976597885342,1.381976597885342 0 1,1 0,1.381976597885342Z" style="fill: rgb(217, 95, 2); stroke: rgb(217, 95, 2);"></path><path transform="translate(177.66666666666666,77.5675568578243)" d="M0,1.381976597885342A1.381976597885342,1.381976597885342 0 1,1 0,-1.381976597885342A1.381976597885342,1.381976597885342 0 1,1 0,1.381976597885342Z" style="fill: rgb(217, 95, 2); stroke: rgb(217, 95, 2);"></path><path transform="translate(189.51111111111112,78.73246516258587)" d="M0,1.381976597885342A1.381976597885342,1.381976597885342 0 1,1 0,-1.381976597885342A1.381976597885342,1.381976597885342 0 1,1 0,1.381976597885342Z" style="fill: rgb(217, 95, 2); stroke: rgb(217, 95, 2);"></path><path transform="translate(201.35555555555555,77.21412692123486)" d="M0,1.381976597885342A1.381976597885342,1.381976597885342 0 1,1 0,-1.381976597885342A1.381976597885342,1.381976597885342 0 1,1 0,1.381976597885342Z" style="fill: rgb(217, 95, 2); stroke: rgb(217, 95, 2);"></path><path transform="translate(213.20000000000002,80.52351467364332)" d="M0,1.381976597885342A1.381976597885342,1.381976597885342 0 1,1 0,-1.381976597885342A1.381976597885342,1.381976597885342 0 1,1 0,1.381976597885342Z" style="fill: rgb(217, 95, 2); stroke: rgb(217, 95, 2);"></path><path transform="translate(225.04444444444445,75.8347229207007)" d="M0,1.381976597885342A1.381976597885342,1.381976597885342 0 1,1 0,-1.381976597885342A1.381976597885342,1.381976597885342 0 1,1 0,1.381976597885342Z" style="fill: rgb(217, 95, 2); stroke: rgb(217, 95, 2);"></path><path transform="translate(236.88888888888889,83.91102491573076)" d="M0,1.381976597885342A1.381976597885342,1.381976597885342 0 1,1 0,-1.381976597885342A1.381976597885342,1.381976597885342 0 1,1 0,1.381976597885342Z" style="fill: rgb(217, 95, 2); stroke: rgb(217, 95, 2);"></path><path transform="translate(248.73333333333335,81.27517717717548)" d="M0,1.381976597885342A1.381976597885342,1.381976597885342 0 1,1 0,-1.381976597885342A1.381976597885342,1.381976597885342 0 1,1 0,1.381976597885342Z" style="fill: rgb(217, 95, 2); stroke: rgb(217, 95, 2);"></path><path transform="translate(260.5777777777778,79.83654639637876)" d="M0,1.381976597885342A1.381976597885342,1.381976597885342 0 1,1 0,-1.381976597885342A1.381976597885342,1.381976597885342 0 1,1 0,1.381976597885342Z" style="fill: rgb(217, 95, 2); stroke: rgb(217, 95, 2);"></path><path transform="translate(272.4222222222222,86.49113922140845)" d="M0,1.381976597885342A1.381976597885342,1.381976597885342 0 1,1 0,-1.381976597885342A1.381976597885342,1.381976597885342 0 1,1 0,1.381976597885342Z" style="fill: rgb(217, 95, 2); stroke: rgb(217, 95, 2);"></path><path transform="translate(284.26666666666665,87.70930633929342)" d="M0,1.381976597885342A1.381976597885342,1.381976597885342 0 1,1 0,-1.381976597885342A1.381976597885342,1.381976597885342 0 1,1 0,1.381976597885342Z" style="fill: rgb(217, 95, 2); stroke: rgb(217, 95, 2);"></path><path transform="translate(296.11111111111114,90.5465376079106)" d="M0,1.381976597885342A1.381976597885342,1.381976597885342 0 1,1 0,-1.381976597885342A1.381976597885342,1.381976597885342 0 1,1 0,1.381976597885342Z" style="fill: rgb(217, 95, 2); stroke: rgb(217, 95, 2);"></path><path transform="translate(307.9555555555555,94.25175819751824)" d="M0,1.381976597885342A1.381976597885342,1.381976597885342 0 1,1 0,-1.381976597885342A1.381976597885342,1.381976597885342 0 1,1 0,1.381976597885342Z" style="fill: rgb(217, 95, 2); stroke: rgb(217, 95, 2);"></path><path transform="translate(319.8,97.431665401783)" d="M0,1.381976597885342A1.381976597885342,1.381976597885342 0 1,1 0,-1.381976597885342A1.381976597885342,1.381976597885342 0 1,1 0,1.381976597885342Z" style="fill: rgb(217, 95, 2); stroke: rgb(217, 95, 2);"></path><path transform="translate(331.64444444444445,104.13776362821109)" d="M0,1.381976597885342A1.381976597885342,1.381976597885342 0 1,1 0,-1.381976597885342A1.381976597885342,1.381976597885342 0 1,1 0,1.381976597885342Z" style="fill: rgb(217, 95, 2); stroke: rgb(217, 95, 2);"></path><path transform="translate(343.48888888888894,116.46305125108259)" d="M0,1.381976597885342A1.381976597885342,1.381976597885342 0 1,1 0,-1.381976597885342A1.381976597885342,1.381976597885342 0 1,1 0,1.381976597885342Z" style="fill: rgb(217, 95, 2); stroke: rgb(217, 95, 2);"></path><path transform="translate(355.3333333333333,130.17482362565647)" d="M0,1.381976597885342A1.381976597885342,1.381976597885342 0 1,1 0,-1.381976597885342A1.381976597885342,1.381976597885342 0 1,1 0,1.381976597885342Z" style="fill: rgb(217, 95, 2); stroke: rgb(217, 95, 2);"></path><path transform="translate(367.17777777777775,134.98248565105348)" d="M0,1.381976597885342A1.381976597885342,1.381976597885342 0 1,1 0,-1.381976597885342A1.381976597885342,1.381976597885342 0 1,1 0,1.381976597885342Z" style="fill: rgb(217, 95, 2); stroke: rgb(217, 95, 2);"></path><path transform="translate(379.02222222222224,144.45277863662858)" d="M0,1.381976597885342A1.381976597885342,1.381976597885342 0 1,1 0,-1.381976597885342A1.381976597885342,1.381976597885342 0 1,1 0,1.381976597885342Z" style="fill: rgb(217, 95, 2); stroke: rgb(217, 95, 2);"></path><path transform="translate(390.8666666666666,148.29056324022395)" d="M0,1.381976597885342A1.381976597885342,1.381976597885342 0 1,1 0,-1.381976597885342A1.381976597885342,1.381976597885342 0 1,1 0,1.381976597885342Z" style="fill: rgb(217, 95, 2); stroke: rgb(217, 95, 2);"></path><path transform="translate(402.7111111111111,149.2555018783561)" d="M0,1.381976597885342A1.381976597885342,1.381976597885342 0 1,1 0,-1.381976597885342A1.381976597885342,1.381976597885342 0 1,1 0,1.381976597885342Z" style="fill: rgb(217, 95, 2); stroke: rgb(217, 95, 2);"></path><path transform="translate(414.55555555555554,162.068281685819)" d="M0,1.381976597885342A1.381976597885342,1.381976597885342 0 1,1 0,-1.381976597885342A1.381976597885342,1.381976597885342 0 1,1 0,1.381976597885342Z" style="fill: rgb(217, 95, 2); stroke: rgb(217, 95, 2);"></path><path transform="translate(426.40000000000003,152.5436217441155)" d="M0,1.381976597885342A1.381976597885342,1.381976597885342 0 1,1 0,-1.381976597885342A1.381976597885342,1.381976597885342 0 1,1 0,1.381976597885342Z" style="fill: rgb(217, 95, 2); stroke: rgb(217, 95, 2);"></path><path transform="translate(438.2444444444444,161.5053721335219)" d="M0,1.381976597885342A1.381976597885342,1.381976597885342 0 1,1 0,-1.381976597885342A1.381976597885342,1.381976597885342 0 1,1 0,1.381976597885342Z" style="fill: rgb(217, 95, 2); stroke: rgb(217, 95, 2);"></path><path transform="translate(450.0888888888889,165.0026715163001)" d="M0,1.381976597885342A1.381976597885342,1.381976597885342 0 1,1 0,-1.381976597885342A1.381976597885342,1.381976597885342 0 1,1 0,1.381976597885342Z" style="fill: rgb(217, 95, 2); stroke: rgb(217, 95, 2);"></path><path transform="translate(461.93333333333334,175.34095570719077)" d="M0,1.381976597885342A1.381976597885342,1.381976597885342 0 1,1 0,-1.381976597885342A1.381976597885342,1.381976597885342 0 1,1 0,1.381976597885342Z" style="fill: rgb(217, 95, 2); stroke: rgb(217, 95, 2);"></path><path transform="translate(473.77777777777777,185.424114291523)" d="M0,1.381976597885342A1.381976597885342,1.381976597885342 0 1,1 0,-1.381976597885342A1.381976597885342,1.381976597885342 0 1,1 0,1.381976597885342Z" style="fill: rgb(217, 95, 2); stroke: rgb(217, 95, 2);"></path><path transform="translate(485.6222222222222,188.40655955221303)" d="M0,1.381976597885342A1.381976597885342,1.381976597885342 0 1,1 0,-1.381976597885342A1.381976597885342,1.381976597885342 0 1,1 0,1.381976597885342Z" style="fill: rgb(217, 95, 2); stroke: rgb(217, 95, 2);"></path><path transform="translate(497.4666666666667,205.54233267990207)" d="M0,1.381976597885342A1.381976597885342,1.381976597885342 0 1,1 0,-1.381976597885342A1.381976597885342,1.381976597885342 0 1,1 0,1.381976597885342Z" style="fill: rgb(217, 95, 2); stroke: rgb(217, 95, 2);"></path><path transform="translate(509.31111111111113,215.94054592084444)" d="M0,1.381976597885342A1.381976597885342,1.381976597885342 0 1,1 0,-1.381976597885342A1.381976597885342,1.381976597885342 0 1,1 0,1.381976597885342Z" style="fill: rgb(217, 95, 2); stroke: rgb(217, 95, 2);"></path><path transform="translate(521.1555555555556,217.96938873947425)" d="M0,1.381976597885342A1.381976597885342,1.381976597885342 0 1,1 0,-1.381976597885342A1.381976597885342,1.381976597885342 0 1,1 0,1.381976597885342Z" style="fill: rgb(217, 95, 2); stroke: rgb(217, 95, 2);"></path><path transform="translate(533,219.15705647408095)" d="M0,1.381976597885342A1.381976597885342,1.381976597885342 0 1,1 0,-1.381976597885342A1.381976597885342,1.381976597885342 0 1,1 0,1.381976597885342Z" style="fill: rgb(217, 95, 2); stroke: rgb(217, 95, 2);"></path><path transform="translate(544.8444444444444,226.8529759494868)" d="M0,1.381976597885342A1.381976597885342,1.381976597885342 0 1,1 0,-1.381976597885342A1.381976597885342,1.381976597885342 0 1,1 0,1.381976597885342Z" style="fill: rgb(217, 95, 2); stroke: rgb(217, 95, 2);"></path><path transform="translate(556.6888888888889,232.85783797956526)" d="M0,1.381976597885342A1.381976597885342,1.381976597885342 0 1,1 0,-1.381976597885342A1.381976597885342,1.381976597885342 0 1,1 0,1.381976597885342Z" style="fill: rgb(217, 95, 2); stroke: rgb(217, 95, 2);"></path><path transform="translate(118.44444444444444,22.312731416492092)" d="M0,1.381976597885342A1.381976597885342,1.381976597885342 0 1,1 0,-1.381976597885342A1.381976597885342,1.381976597885342 0 1,1 0,1.381976597885342Z" style="fill: rgb(117, 112, 179); stroke: rgb(117, 112, 179);"></path><path transform="translate(130.2888888888889,28.909959730953727)" d="M0,1.381976597885342A1.381976597885342,1.381976597885342 0 1,1 0,-1.381976597885342A1.381976597885342,1.381976597885342 0 1,1 0,1.381976597885342Z" style="fill: rgb(117, 112, 179); stroke: rgb(117, 112, 179);"></path><path transform="translate(142.13333333333333,35.4160752519741)" d="M0,1.381976597885342A1.381976597885342,1.381976597885342 0 1,1 0,-1.381976597885342A1.381976597885342,1.381976597885342 0 1,1 0,1.381976597885342Z" style="fill: rgb(117, 112, 179); stroke: rgb(117, 112, 179);"></path><path transform="translate(153.97777777777776,41.83233631725136)" d="M0,1.381976597885342A1.381976597885342,1.381976597885342 0 1,1 0,-1.381976597885342A1.381976597885342,1.381976597885342 0 1,1 0,1.381976597885342Z" style="fill: rgb(117, 112, 179); stroke: rgb(117, 112, 179);"></path><path transform="translate(165.82222222222222,48.159983885884216)" d="M0,1.381976597885342A1.381976597885342,1.381976597885342 0 1,1 0,-1.381976597885342A1.381976597885342,1.381976597885342 0 1,1 0,1.381976597885342Z" style="fill: rgb(117, 112, 179); stroke: rgb(117, 112, 179);"></path><path transform="translate(177.66666666666666,54.40024177836478)" d="M0,1.381976597885342A1.381976597885342,1.381976597885342 0 1,1 0,-1.381976597885342A1.381976597885342,1.381976597885342 0 1,1 0,1.381976597885342Z" style="fill: rgb(117, 112, 179); stroke: rgb(117, 112, 179);"></path><path transform="translate(189.51111111111112,60.55431691328161)" d="M0,1.381976597885342A1.381976597885342,1.381976597885342 0 1,1 0,-1.381976597885342A1.381976597885342,1.381976597885342 0 1,1 0,1.381976597885342Z" style="fill: rgb(117, 112, 179); stroke: rgb(117, 112, 179);"></path><path transform="translate(201.35555555555555,66.62339954076224)" d="M0,1.381976597885342A1.381976597885342,1.381976597885342 0 1,1 0,-1.381976597885342A1.381976597885342,1.381976597885342 0 1,1 0,1.381976597885342Z" style="fill: rgb(117, 112, 179); stroke: rgb(117, 112, 179);"></path><path transform="translate(213.20000000000002,72.60866347264822)" d="M0,1.381976597885342A1.381976597885342,1.381976597885342 0 1,1 0,-1.381976597885342A1.381976597885342,1.381976597885342 0 1,1 0,1.381976597885342Z" style="fill: rgb(117, 112, 179); stroke: rgb(117, 112, 179);"></path><path transform="translate(225.04444444444445,78.51126630955346)" d="M0,1.381976597885342A1.381976597885342,1.381976597885342 0 1,1 0,-1.381976597885342A1.381976597885342,1.381976597885342 0 1,1 0,1.381976597885342Z" style="fill: rgb(117, 112, 179); stroke: rgb(117, 112, 179);"></path><path transform="translate(236.88888888888889,84.33234966472813)" d="M0,1.381976597885342A1.381976597885342,1.381976597885342 0 1,1 0,-1.381976597885342A1.381976597885342,1.381976597885342 0 1,1 0,1.381976597885342Z" style="fill: rgb(117, 112, 179); stroke: rgb(117, 112, 179);"></path><path transform="translate(248.73333333333335,90.07303938486389)" d="M0,1.381976597885342A1.381976597885342,1.381976597885342 0 1,1 0,-1.381976597885342A1.381976597885342,1.381976597885342 0 1,1 0,1.381976597885342Z" style="fill: rgb(117, 112, 179); stroke: rgb(117, 112, 179);"></path><path transform="translate(260.5777777777778,95.73444576785417)" d="M0,1.381976597885342A1.381976597885342,1.381976597885342 0 1,1 0,-1.381976597885342A1.381976597885342,1.381976597885342 0 1,1 0,1.381976597885342Z" style="fill: rgb(117, 112, 179); stroke: rgb(117, 112, 179);"></path><path transform="translate(272.4222222222222,101.31766377751872)" d="M0,1.381976597885342A1.381976597885342,1.381976597885342 0 1,1 0,-1.381976597885342A1.381976597885342,1.381976597885342 0 1,1 0,1.381976597885342Z" style="fill: rgb(117, 112, 179); stroke: rgb(117, 112, 179);"></path><path transform="translate(284.26666666666665,106.82377325538167)" d="M0,1.381976597885342A1.381976597885342,1.381976597885342 0 1,1 0,-1.381976597885342A1.381976597885342,1.381976597885342 0 1,1 0,1.381976597885342Z" style="fill: rgb(117, 112, 179); stroke: rgb(117, 112, 179);"></path><path transform="translate(296.11111111111114,112.25383912953696)" d="M0,1.381976597885342A1.381976597885342,1.381976597885342 0 1,1 0,-1.381976597885342A1.381976597885342,1.381976597885342 0 1,1 0,1.381976597885342Z" style="fill: rgb(117, 112, 179); stroke: rgb(117, 112, 179);"></path><path transform="translate(307.9555555555555,117.60891162059062)" d="M0,1.381976597885342A1.381976597885342,1.381976597885342 0 1,1 0,-1.381976597885342A1.381976597885342,1.381976597885342 0 1,1 0,1.381976597885342Z" style="fill: rgb(117, 112, 179); stroke: rgb(117, 112, 179);"></path><path transform="translate(319.8,122.89002644480507)" d="M0,1.381976597885342A1.381976597885342,1.381976597885342 0 1,1 0,-1.381976597885342A1.381976597885342,1.381976597885342 0 1,1 0,1.381976597885342Z" style="fill: rgb(117, 112, 179); stroke: rgb(117, 112, 179);"></path><path transform="translate(331.64444444444445,128.09820501439785)" d="M0,1.381976597885342A1.381976597885342,1.381976597885342 0 1,1 0,-1.381976597885342A1.381976597885342,1.381976597885342 0 1,1 0,1.381976597885342Z" style="fill: rgb(117, 112, 179); stroke: rgb(117, 112, 179);"></path><path transform="translate(343.48888888888894,133.2344546351036)" d="M0,1.381976597885342A1.381976597885342,1.381976597885342 0 1,1 0,-1.381976597885342A1.381976597885342,1.381976597885342 0 1,1 0,1.381976597885342Z" style="fill: rgb(117, 112, 179); stroke: rgb(117, 112, 179);"></path><path transform="translate(355.3333333333333,138.29976870099142)" d="M0,1.381976597885342A1.381976597885342,1.381976597885342 0 1,1 0,-1.381976597885342A1.381976597885342,1.381976597885342 0 1,1 0,1.381976597885342Z" style="fill: rgb(117, 112, 179); stroke: rgb(117, 112, 179);"></path><path transform="translate(367.17777777777775,143.29512688658608)" d="M0,1.381976597885342A1.381976597885342,1.381976597885342 0 1,1 0,-1.381976597885342A1.381976597885342,1.381976597885342 0 1,1 0,1.381976597885342Z" style="fill: rgb(117, 112, 179); stroke: rgb(117, 112, 179);"></path><path transform="translate(379.02222222222224,148.22149533636443)" d="M0,1.381976597885342A1.381976597885342,1.381976597885342 0 1,1 0,-1.381976597885342A1.381976597885342,1.381976597885342 0 1,1 0,1.381976597885342Z" style="fill: rgb(117, 112, 179); stroke: rgb(117, 112, 179);"></path><path transform="translate(390.8666666666666,153.07982685160033)" d="M0,1.381976597885342A1.381976597885342,1.381976597885342 0 1,1 0,-1.381976597885342A1.381976597885342,1.381976597885342 0 1,1 0,1.381976597885342Z" style="fill: rgb(117, 112, 179); stroke: rgb(117, 112, 179);"></path><path transform="translate(402.7111111111111,157.87106107464987)" d="M0,1.381976597885342A1.381976597885342,1.381976597885342 0 1,1 0,-1.381976597885342A1.381976597885342,1.381976597885342 0 1,1 0,1.381976597885342Z" style="fill: rgb(117, 112, 179); stroke: rgb(117, 112, 179);"></path><path transform="translate(414.55555555555554,162.5961246706899)" d="M0,1.381976597885342A1.381976597885342,1.381976597885342 0 1,1 0,-1.381976597885342A1.381976597885342,1.381976597885342 0 1,1 0,1.381976597885342Z" style="fill: rgb(117, 112, 179); stroke: rgb(117, 112, 179);"></path><path transform="translate(426.40000000000003,167.25593150693234)" d="M0,1.381976597885342A1.381976597885342,1.381976597885342 0 1,1 0,-1.381976597885342A1.381976597885342,1.381976597885342 0 1,1 0,1.381976597885342Z" style="fill: rgb(117, 112, 179); stroke: rgb(117, 112, 179);"></path><path transform="translate(438.2444444444444,171.85138282938567)" d="M0,1.381976597885342A1.381976597885342,1.381976597885342 0 1,1 0,-1.381976597885342A1.381976597885342,1.381976597885342 0 1,1 0,1.381976597885342Z" style="fill: rgb(117, 112, 179); stroke: rgb(117, 112, 179);"></path><path transform="translate(450.0888888888889,176.3833674371604)" d="M0,1.381976597885342A1.381976597885342,1.381976597885342 0 1,1 0,-1.381976597885342A1.381976597885342,1.381976597885342 0 1,1 0,1.381976597885342Z" style="fill: rgb(117, 112, 179); stroke: rgb(117, 112, 179);"></path><path transform="translate(461.93333333333334,180.85276185435995)" d="M0,1.381976597885342A1.381976597885342,1.381976597885342 0 1,1 0,-1.381976597885342A1.381976597885342,1.381976597885342 0 1,1 0,1.381976597885342Z" style="fill: rgb(117, 112, 179); stroke: rgb(117, 112, 179);"></path><path transform="translate(473.77777777777777,185.2604304996237)" d="M0,1.381976597885342A1.381976597885342,1.381976597885342 0 1,1 0,-1.381976597885342A1.381976597885342,1.381976597885342 0 1,1 0,1.381976597885342Z" style="fill: rgb(117, 112, 179); stroke: rgb(117, 112, 179);"></path><path transform="translate(485.6222222222222,189.60722585330137)" d="M0,1.381976597885342A1.381976597885342,1.381976597885342 0 1,1 0,-1.381976597885342A1.381976597885342,1.381976597885342 0 1,1 0,1.381976597885342Z" style="fill: rgb(117, 112, 179); stroke: rgb(117, 112, 179);"></path><path transform="translate(497.4666666666667,193.8939886223331)" d="M0,1.381976597885342A1.381976597885342,1.381976597885342 0 1,1 0,-1.381976597885342A1.381976597885342,1.381976597885342 0 1,1 0,1.381976597885342Z" style="fill: rgb(117, 112, 179); stroke: rgb(117, 112, 179);"></path><path transform="translate(509.31111111111113,198.1215479028564)" d="M0,1.381976597885342A1.381976597885342,1.381976597885342 0 1,1 0,-1.381976597885342A1.381976597885342,1.381976597885342 0 1,1 0,1.381976597885342Z" style="fill: rgb(117, 112, 179); stroke: rgb(117, 112, 179);"></path><path transform="translate(521.1555555555556,202.2907213405476)" d="M0,1.381976597885342A1.381976597885342,1.381976597885342 0 1,1 0,-1.381976597885342A1.381976597885342,1.381976597885342 0 1,1 0,1.381976597885342Z" style="fill: rgb(117, 112, 179); stroke: rgb(117, 112, 179);"></path><path transform="translate(533,206.40231528876814)" d="M0,1.381976597885342A1.381976597885342,1.381976597885342 0 1,1 0,-1.381976597885342A1.381976597885342,1.381976597885342 0 1,1 0,1.381976597885342Z" style="fill: rgb(117, 112, 179); stroke: rgb(117, 112, 179);"></path><path transform="translate(544.8444444444444,210.4571249645235)" d="M0,1.381976597885342A1.381976597885342,1.381976597885342 0 1,1 0,-1.381976597885342A1.381976597885342,1.381976597885342 0 1,1 0,1.381976597885342Z" style="fill: rgb(117, 112, 179); stroke: rgb(117, 112, 179);"></path><path transform="translate(556.6888888888889,214.4559346022593)" d="M0,1.381976597885342A1.381976597885342,1.381976597885342 0 1,1 0,-1.381976597885342A1.381976597885342,1.381976597885342 0 1,1 0,1.381976597885342Z" style="fill: rgb(117, 112, 179); stroke: rgb(117, 112, 179);"></path><path transform="translate(568.5333333333333,218.39951760553643)" d="M0,1.381976597885342A1.381976597885342,1.381976597885342 0 1,1 0,-1.381976597885342A1.381976597885342,1.381976597885342 0 1,1 0,1.381976597885342Z" style="fill: rgb(117, 112, 179); stroke: rgb(117, 112, 179);"></path><path transform="translate(580.3777777777777,222.28863669662798)" d="M0,1.381976597885342A1.381976597885342,1.381976597885342 0 1,1 0,-1.381976597885342A1.381976597885342,1.381976597885342 0 1,1 0,1.381976597885342Z" style="fill: rgb(117, 112, 179); stroke: rgb(117, 112, 179);"></path><path transform="translate(592.2222222222223,226.12404406401643)" d="M0,1.381976597885342A1.381976597885342,1.381976597885342 0 1,1 0,-1.381976597885342A1.381976597885342,1.381976597885342 0 1,1 0,1.381976597885342Z" style="fill: rgb(117, 112, 179); stroke: rgb(117, 112, 179);"></path><path transform="translate(604.0666666666666,229.90648150788755)" d="M0,1.381976597885342A1.381976597885342,1.381976597885342 0 1,1 0,-1.381976597885342A1.381976597885342,1.381976597885342 0 1,1 0,1.381976597885342Z" style="fill: rgb(117, 112, 179); stroke: rgb(117, 112, 179);"></path><path transform="translate(615.911111111111,233.6366805835986)" d="M0,1.381976597885342A1.381976597885342,1.381976597885342 0 1,1 0,-1.381976597885342A1.381976597885342,1.381976597885342 0 1,1 0,1.381976597885342Z" style="fill: rgb(117, 112, 179); stroke: rgb(117, 112, 179);"></path><path transform="translate(627.7555555555556,237.31536274315945)" d="M0,1.381976597885342A1.381976597885342,1.381976597885342 0 1,1 0,-1.381976597885342A1.381976597885342,1.381976597885342 0 1,1 0,1.381976597885342Z" style="fill: rgb(117, 112, 179); stroke: rgb(117, 112, 179);"></path><path transform="translate(639.6,240.94323947478102)" d="M0,1.381976597885342A1.381976597885342,1.381976597885342 0 1,1 0,-1.381976597885342A1.381976597885342,1.381976597885342 0 1,1 0,1.381976597885342Z" style="fill: rgb(117, 112, 179); stroke: rgb(117, 112, 179);"></path><path transform="translate(651.4444444444445,244.5210124404648)" d="M0,1.381976597885342A1.381976597885342,1.381976597885342 0 1,1 0,-1.381976597885342A1.381976597885342,1.381976597885342 0 1,1 0,1.381976597885342Z" style="fill: rgb(117, 112, 179); stroke: rgb(117, 112, 179);"></path><path transform="translate(663.2888888888889,248.04937361172958)" d="M0,1.381976597885342A1.381976597885342,1.381976597885342 0 1,1 0,-1.381976597885342A1.381976597885342,1.381976597885342 0 1,1 0,1.381976597885342Z" style="fill: rgb(117, 112, 179); stroke: rgb(117, 112, 179);"></path><path transform="translate(675.1333333333333,251.52900540343347)" d="M0,1.381976597885342A1.381976597885342,1.381976597885342 0 1,1 0,-1.381976597885342A1.381976597885342,1.381976597885342 0 1,1 0,1.381976597885342Z" style="fill: rgb(117, 112, 179); stroke: rgb(117, 112, 179);"></path><path transform="translate(686.9777777777779,254.96058080575912)" d="M0,1.381976597885342A1.381976597885342,1.381976597885342 0 1,1 0,-1.381976597885342A1.381976597885342,1.381976597885342 0 1,1 0,1.381976597885342Z" style="fill: rgb(117, 112, 179); stroke: rgb(117, 112, 179);"></path><path transform="translate(698.8222222222222,258.3447635143781)" d="M0,1.381976597885342A1.381976597885342,1.381976597885342 0 1,1 0,-1.381976597885342A1.381976597885342,1.381976597885342 0 1,1 0,1.381976597885342Z" style="fill: rgb(117, 112, 179); stroke: rgb(117, 112, 179);"></path><path transform="translate(710.6666666666666,261.6822080588154)" d="M0,1.381976597885342A1.381976597885342,1.381976597885342 0 1,1 0,-1.381976597885342A1.381976597885342,1.381976597885342 0 1,1 0,1.381976597885342Z" style="fill: rgb(117, 112, 179); stroke: rgb(117, 112, 179);"></path><path transform="translate(722.5111111111112,264.9735599290389)" d="M0,1.381976597885342A1.381976597885342,1.381976597885342 0 1,1 0,-1.381976597885342A1.381976597885342,1.381976597885342 0 1,1 0,1.381976597885342Z" style="fill: rgb(117, 112, 179); stroke: rgb(117, 112, 179);"></path><path transform="translate(734.3555555555555,268.21945570030636)" d="M0,1.381976597885342A1.381976597885342,1.381976597885342 0 1,1 0,-1.381976597885342A1.381976597885342,1.381976597885342 0 1,1 0,1.381976597885342Z" style="fill: rgb(117, 112, 179); stroke: rgb(117, 112, 179);"></path><path transform="translate(746.1999999999999,271.42052315627996)" d="M0,1.381976597885342A1.381976597885342,1.381976597885342 0 1,1 0,-1.381976597885342A1.381976597885342,1.381976597885342 0 1,1 0,1.381976597885342Z" style="fill: rgb(117, 112, 179); stroke: rgb(117, 112, 179);"></path><path transform="translate(758.0444444444445,274.57738141044643)" d="M0,1.381976597885342A1.381976597885342,1.381976597885342 0 1,1 0,-1.381976597885342A1.381976597885342,1.381976597885342 0 1,1 0,1.381976597885342Z" style="fill: rgb(117, 112, 179); stroke: rgb(117, 112, 179);"></path><path transform="translate(769.8888888888889,277.69064102586236)" d="M0,1.381976597885342A1.381976597885342,1.381976597885342 0 1,1 0,-1.381976597885342A1.381976597885342,1.381976597885342 0 1,1 0,1.381976597885342Z" style="fill: rgb(117, 112, 179); stroke: rgb(117, 112, 179);"></path><path transform="translate(781.7333333333332,280.76090413323584)" d="M0,1.381976597885342A1.381976597885342,1.381976597885342 0 1,1 0,-1.381976597885342A1.381976597885342,1.381976597885342 0 1,1 0,1.381976597885342Z" style="fill: rgb(117, 112, 179); stroke: rgb(117, 112, 179);"></path><path transform="translate(793.5777777777778,283.7887645473901)" d="M0,1.381976597885342A1.381976597885342,1.381976597885342 0 1,1 0,-1.381976597885342A1.381976597885342,1.381976597885342 0 1,1 0,1.381976597885342Z" style="fill: rgb(117, 112, 179); stroke: rgb(117, 112, 179);"></path><path transform="translate(805.4222222222222,286.7748078821071)" d="M0,1.381976597885342A1.381976597885342,1.381976597885342 0 1,1 0,-1.381976597885342A1.381976597885342,1.381976597885342 0 1,1 0,1.381976597885342Z" style="fill: rgb(117, 112, 179); stroke: rgb(117, 112, 179);"></path><path transform="translate(817.2666666666668,289.7196116633924)" d="M0,1.381976597885342A1.381976597885342,1.381976597885342 0 1,1 0,-1.381976597885342A1.381976597885342,1.381976597885342 0 1,1 0,1.381976597885342Z" style="fill: rgb(117, 112, 179); stroke: rgb(117, 112, 179);"></path><path transform="translate(829.1111111111111,292.6237454411759)" d="M0,1.381976597885342A1.381976597885342,1.381976597885342 0 1,1 0,-1.381976597885342A1.381976597885342,1.381976597885342 0 1,1 0,1.381976597885342Z" style="fill: rgb(117, 112, 179); stroke: rgb(117, 112, 179);"></path><path transform="translate(840.9555555555555,295.487770899463)" d="M0,1.381976597885342A1.381976597885342,1.381976597885342 0 1,1 0,-1.381976597885342A1.381976597885342,1.381976597885342 0 1,1 0,1.381976597885342Z" style="fill: rgb(117, 112, 179); stroke: rgb(117, 112, 179);"></path><path transform="translate(852.8000000000001,298.3122419649707)" d="M0,1.381976597885342A1.381976597885342,1.381976597885342 0 1,1 0,-1.381976597885342A1.381976597885342,1.381976597885342 0 1,1 0,1.381976597885342Z" style="fill: rgb(117, 112, 179); stroke: rgb(117, 112, 179);"></path><path transform="translate(864.6444444444445,301.0977049142657)" d="M0,1.381976597885342A1.381976597885342,1.381976597885342 0 1,1 0,-1.381976597885342A1.381976597885342,1.381976597885342 0 1,1 0,1.381976597885342Z" style="fill: rgb(117, 112, 179); stroke: rgb(117, 112, 179);"></path><path transform="translate(876.4888888888888,303.8446984794116)" d="M0,1.381976597885342A1.381976597885342,1.381976597885342 0 1,1 0,-1.381976597885342A1.381976597885342,1.381976597885342 0 1,1 0,1.381976597885342Z" style="fill: rgb(117, 112, 179); stroke: rgb(117, 112, 179);"></path><path transform="translate(888.3333333333334,306.553753952171)" d="M0,1.381976597885342A1.381976597885342,1.381976597885342 0 1,1 0,-1.381976597885342A1.381976597885342,1.381976597885342 0 1,1 0,1.381976597885342Z" style="fill: rgb(117, 112, 179); stroke: rgb(117, 112, 179);"></path><path transform="translate(900.1777777777778,309.225395286757)" d="M0,1.381976597885342A1.381976597885342,1.381976597885342 0 1,1 0,-1.381976597885342A1.381976597885342,1.381976597885342 0 1,1 0,1.381976597885342Z" style="fill: rgb(117, 112, 179); stroke: rgb(117, 112, 179);"></path><path transform="translate(912.0222222222221,311.86013920117296)" d="M0,1.381976597885342A1.381976597885342,1.381976597885342 0 1,1 0,-1.381976597885342A1.381976597885342,1.381976597885342 0 1,1 0,1.381976597885342Z" style="fill: rgb(117, 112, 179); stroke: rgb(117, 112, 179);"></path><path transform="translate(923.8666666666667,314.45849527715063)" d="M0,1.381976597885342A1.381976597885342,1.381976597885342 0 1,1 0,-1.381976597885342A1.381976597885342,1.381976597885342 0 1,1 0,1.381976597885342Z" style="fill: rgb(117, 112, 179); stroke: rgb(117, 112, 179);"></path><path transform="translate(935.7111111111111,317.0209660587049)" d="M0,1.381976597885342A1.381976597885342,1.381976597885342 0 1,1 0,-1.381976597885342A1.381976597885342,1.381976597885342 0 1,1 0,1.381976597885342Z" style="fill: rgb(117, 112, 179); stroke: rgb(117, 112, 179);"></path><path transform="translate(947.5555555555555,319.548047149331)" d="M0,1.381976597885342A1.381976597885342,1.381976597885342 0 1,1 0,-1.381976597885342A1.381976597885342,1.381976597885342 0 1,1 0,1.381976597885342Z" style="fill: rgb(117, 112, 179); stroke: rgb(117, 112, 179);"></path><path transform="translate(556.6888888888889,232.85783797956526)" d="M0,1.381976597885342A1.381976597885342,1.381976597885342 0 1,1 0,-1.381976597885342A1.381976597885342,1.381976597885342 0 1,1 0,1.381976597885342Z" style="fill: rgb(27, 158, 119); stroke: rgb(27, 158, 119);"></path><path transform="translate(568.5333333333333,249.63134025481594)" d="M0,1.381976597885342A1.381976597885342,1.381976597885342 0 1,1 0,-1.381976597885342A1.381976597885342,1.381976597885342 0 1,1 0,1.381976597885342Z" style="fill: rgb(27, 158, 119); stroke: rgb(27, 158, 119);"></path><path transform="translate(580.3777777777777,265.3516565542936)" d="M0,1.381976597885342A1.381976597885342,1.381976597885342 0 1,1 0,-1.381976597885342A1.381976597885342,1.381976597885342 0 1,1 0,1.381976597885342Z" style="fill: rgb(27, 158, 119); stroke: rgb(27, 158, 119);"></path><path transform="translate(592.2222222222223,280.0849150294927)" d="M0,1.381976597885342A1.381976597885342,1.381976597885342 0 1,1 0,-1.381976597885342A1.381976597885342,1.381976597885342 0 1,1 0,1.381976597885342Z" style="fill: rgb(27, 158, 119); stroke: rgb(27, 158, 119);"></path><path transform="translate(604.0666666666666,293.89309173292446)" d="M0,1.381976597885342A1.381976597885342,1.381976597885342 0 1,1 0,-1.381976597885342A1.381976597885342,1.381976597885342 0 1,1 0,1.381976597885342Z" style="fill: rgb(27, 158, 119); stroke: rgb(27, 158, 119);"></path><path transform="translate(615.911111111111,306.8342713229078)" d="M0,1.381976597885342A1.381976597885342,1.381976597885342 0 1,1 0,-1.381976597885342A1.381976597885342,1.381976597885342 0 1,1 0,1.381976597885342Z" style="fill: rgb(27, 158, 119); stroke: rgb(27, 158, 119);"></path><path transform="translate(627.7555555555556,318.96289139905286)" d="M0,1.381976597885342A1.381976597885342,1.381976597885342 0 1,1 0,-1.381976597885342A1.381976597885342,1.381976597885342 0 1,1 0,1.381976597885342Z" style="fill: rgb(27, 158, 119); stroke: rgb(27, 158, 119);"></path><path transform="translate(639.6,330.32997149624345)" d="M0,1.381976597885342A1.381976597885342,1.381976597885342 0 1,1 0,-1.381976597885342A1.381976597885342,1.381976597885342 0 1,1 0,1.381976597885342Z" style="fill: rgb(27, 158, 119); stroke: rgb(27, 158, 119);"></path><path transform="translate(651.4444444444445,340.9833277003912)" d="M0,1.381976597885342A1.381976597885342,1.381976597885342 0 1,1 0,-1.381976597885342A1.381976597885342,1.381976597885342 0 1,1 0,1.381976597885342Z" style="fill: rgb(27, 158, 119); stroke: rgb(27, 158, 119);"></path><path transform="translate(663.2888888888889,350.967773788749)" d="M0,1.381976597885342A1.381976597885342,1.381976597885342 0 1,1 0,-1.381976597885342A1.381976597885342,1.381976597885342 0 1,1 0,1.381976597885342Z" style="fill: rgb(27, 158, 119); stroke: rgb(27, 158, 119);"></path><path transform="translate(675.1333333333333,360.3253097408951)" d="M0,1.381976597885342A1.381976597885342,1.381976597885342 0 1,1 0,-1.381976597885342A1.381976597885342,1.381976597885342 0 1,1 0,1.381976597885342Z" style="fill: rgb(27, 158, 119); stroke: rgb(27, 158, 119);"></path><path transform="translate(686.9777777777779,369.095298413357)" d="M0,1.381976597885342A1.381976597885342,1.381976597885342 0 1,1 0,-1.381976597885342A1.381976597885342,1.381976597885342 0 1,1 0,1.381976597885342Z" style="fill: rgb(27, 158, 119); stroke: rgb(27, 158, 119);"></path><path transform="translate(698.8222222222222,377.31463112107343)" d="M0,1.381976597885342A1.381976597885342,1.381976597885342 0 1,1 0,-1.381976597885342A1.381976597885342,1.381976597885342 0 1,1 0,1.381976597885342Z" style="fill: rgb(27, 158, 119); stroke: rgb(27, 158, 119);"></path><path transform="translate(710.6666666666666,385.01788282221577)" d="M0,1.381976597885342A1.381976597885342,1.381976597885342 0 1,1 0,-1.381976597885342A1.381976597885342,1.381976597885342 0 1,1 0,1.381976597885342Z" style="fill: rgb(27, 158, 119); stroke: rgb(27, 158, 119);"></path><path transform="translate(722.5111111111112,392.2374575591581)" d="M0,1.381976597885342A1.381976597885342,1.381976597885342 0 1,1 0,-1.381976597885342A1.381976597885342,1.381976597885342 0 1,1 0,1.381976597885342Z" style="fill: rgb(27, 158, 119); stroke: rgb(27, 158, 119);"></path><path transform="translate(734.3555555555555,399.00372476740233)" d="M0,1.381976597885342A1.381976597885342,1.381976597885342 0 1,1 0,-1.381976597885342A1.381976597885342,1.381976597885342 0 1,1 0,1.381976597885342Z" style="fill: rgb(27, 158, 119); stroke: rgb(27, 158, 119);"></path><path transform="translate(746.1999999999999,405.34514702584886)" d="M0,1.381976597885342A1.381976597885342,1.381976597885342 0 1,1 0,-1.381976597885342A1.381976597885342,1.381976597885342 0 1,1 0,1.381976597885342Z" style="fill: rgb(27, 158, 119); stroke: rgb(27, 158, 119);"></path><path transform="translate(758.0444444444445,411.2883997857935)" d="M0,1.381976597885342A1.381976597885342,1.381976597885342 0 1,1 0,-1.381976597885342A1.381976597885342,1.381976597885342 0 1,1 0,1.381976597885342Z" style="fill: rgb(27, 158, 119); stroke: rgb(27, 158, 119);"></path><path transform="translate(769.8888888888889,416.85848358230163)" d="M0,1.381976597885342A1.381976597885342,1.381976597885342 0 1,1 0,-1.381976597885342A1.381976597885342,1.381976597885342 0 1,1 0,1.381976597885342Z" style="fill: rgb(27, 158, 119); stroke: rgb(27, 158, 119);"></path><path transform="translate(781.7333333333332,422.0788291999787)" d="M0,1.381976597885342A1.381976597885342,1.381976597885342 0 1,1 0,-1.381976597885342A1.381976597885342,1.381976597885342 0 1,1 0,1.381976597885342Z" style="fill: rgb(27, 158, 119); stroke: rgb(27, 158, 119);"></path><path transform="translate(793.5777777777778,426.9713962355202)" d="M0,1.381976597885342A1.381976597885342,1.381976597885342 0 1,1 0,-1.381976597885342A1.381976597885342,1.381976597885342 0 1,1 0,1.381976597885342Z" style="fill: rgb(27, 158, 119); stroke: rgb(27, 158, 119);"></path><path transform="translate(805.4222222222222,431.556765471651)" d="M0,1.381976597885342A1.381976597885342,1.381976597885342 0 1,1 0,-1.381976597885342A1.381976597885342,1.381976597885342 0 1,1 0,1.381976597885342Z" style="fill: rgb(27, 158, 119); stroke: rgb(27, 158, 119);"></path><path transform="translate(817.2666666666668,435.85422545102716)" d="M0,1.381976597885342A1.381976597885342,1.381976597885342 0 1,1 0,-1.381976597885342A1.381976597885342,1.381976597885342 0 1,1 0,1.381976597885342Z" style="fill: rgb(27, 158, 119); stroke: rgb(27, 158, 119);"></path><path transform="translate(829.1111111111111,439.8818536142769)" d="M0,1.381976597885342A1.381976597885342,1.381976597885342 0 1,1 0,-1.381976597885342A1.381976597885342,1.381976597885342 0 1,1 0,1.381976597885342Z" style="fill: rgb(27, 158, 119); stroke: rgb(27, 158, 119);"></path><path transform="translate(840.9555555555555,443.65659234349215)" d="M0,1.381976597885342A1.381976597885342,1.381976597885342 0 1,1 0,-1.381976597885342A1.381976597885342,1.381976597885342 0 1,1 0,1.381976597885342Z" style="fill: rgb(27, 158, 119); stroke: rgb(27, 158, 119);"></path><path transform="translate(852.8000000000001,447.19432023104883)" d="M0,1.381976597885342A1.381976597885342,1.381976597885342 0 1,1 0,-1.381976597885342A1.381976597885342,1.381976597885342 0 1,1 0,1.381976597885342Z" style="fill: rgb(27, 158, 119); stroke: rgb(27, 158, 119);"></path><path transform="translate(864.6444444444445,450.5099188735536)" d="M0,1.381976597885342A1.381976597885342,1.381976597885342 0 1,1 0,-1.381976597885342A1.381976597885342,1.381976597885342 0 1,1 0,1.381976597885342Z" style="fill: rgb(27, 158, 119); stroke: rgb(27, 158, 119);"></path><path transform="translate(876.4888888888888,453.61733547188646)" d="M0,1.381976597885342A1.381976597885342,1.381976597885342 0 1,1 0,-1.381976597885342A1.381976597885342,1.381976597885342 0 1,1 0,1.381976597885342Z" style="fill: rgb(27, 158, 119); stroke: rgb(27, 158, 119);"></path><path transform="translate(888.3333333333334,456.5296415006707)" d="M0,1.381976597885342A1.381976597885342,1.381976597885342 0 1,1 0,-1.381976597885342A1.381976597885342,1.381976597885342 0 1,1 0,1.381976597885342Z" style="fill: rgb(27, 158, 119); stroke: rgb(27, 158, 119);"></path><path transform="translate(900.1777777777778,459.2590876939626)" d="M0,1.381976597885342A1.381976597885342,1.381976597885342 0 1,1 0,-1.381976597885342A1.381976597885342,1.381976597885342 0 1,1 0,1.381976597885342Z" style="fill: rgb(27, 158, 119); stroke: rgb(27, 158, 119);"></path><path transform="translate(912.0222222222221,461.81715557846564)" d="M0,1.381976597885342A1.381976597885342,1.381976597885342 0 1,1 0,-1.381976597885342A1.381976597885342,1.381976597885342 0 1,1 0,1.381976597885342Z" style="fill: rgb(27, 158, 119); stroke: rgb(27, 158, 119);"></path><path transform="translate(923.8666666666667,464.21460577103824)" d="M0,1.381976597885342A1.381976597885342,1.381976597885342 0 1,1 0,-1.381976597885342A1.381976597885342,1.381976597885342 0 1,1 0,1.381976597885342Z" style="fill: rgb(27, 158, 119); stroke: rgb(27, 158, 119);"></path><path transform="translate(935.7111111111111,466.4615232436697)" d="M0,1.381976597885342A1.381976597885342,1.381976597885342 0 1,1 0,-1.381976597885342A1.381976597885342,1.381976597885342 0 1,1 0,1.381976597885342Z" style="fill: rgb(27, 158, 119); stroke: rgb(27, 158, 119);"></path><path transform="translate(947.5555555555555,468.56735974632477)" d="M0,1.381976597885342A1.381976597885342,1.381976597885342 0 1,1 0,-1.381976597885342A1.381976597885342,1.381976597885342 0 1,1 0,1.381976597885342Z" style="fill: rgb(27, 158, 119); stroke: rgb(27, 158, 119);"></path></g><g id="g563" class="type-group"><g transform="translate(1090,0.5)"><rect class="background" style="pointer-events: none; fill: none;" width="94" height="48"></rect><g id="g564" class="type-text" style="pointer-events: none;"></g><g id="g565" class="type-symbol" style="pointer-events: none;"><path transform="translate(7.5,7)" d="M0,3.989422804014327A3.989422804014327,3.989422804014327 0 1,1 0,-3.989422804014327A3.989422804014327,3.989422804014327 0 1,1 0,3.989422804014327Z" style="fill: rgb(217, 95, 2); stroke: rgb(136, 136, 136); stroke-width: 1; opacity: 1;"></path><path transform="translate(7.5,22)" d="M0,3.989422804014327A3.989422804014327,3.989422804014327 0 1,1 0,-3.989422804014327A3.989422804014327,3.989422804014327 0 1,1 0,3.989422804014327Z" style="fill: rgb(117, 112, 179); stroke: rgb(136, 136, 136); stroke-width: 1; opacity: 1;"></path><path transform="translate(7.5,37)" d="M0,3.989422804014327A3.989422804014327,3.989422804014327 0 1,1 0,-3.989422804014327A3.989422804014327,3.989422804014327 0 1,1 0,3.989422804014327Z" style="fill: rgb(27, 158, 119); stroke: rgb(136, 136, 136); stroke-width: 1; opacity: 1;"></path></g><g id="g566" class="type-text" style="pointer-events: none;"><text x="16" y="7" text-anchor="start" dy=".35em" style="font: 10px sans-serif; fill: rgb(0, 0, 0); opacity: 1;">Historical</text><text x="16" y="22" text-anchor="start" dy=".35em" style="font: 10px sans-serif; fill: rgb(0, 0, 0); opacity: 1;">Historical Trend</text><text x="16" y="37" text-anchor="start" dy=".35em" style="font: 10px sans-serif; fill: rgb(0, 0, 0); opacity: 1;">Bottom-up</text></g></g></g><g id="g567" class="type-group"><g transform="translate(1090,0.5)"><rect class="background" style="pointer-events: none; fill: none;" width="94" height="48"></rect><g id="g568" class="type-text" style="pointer-events: none;"></g><g id="g569" class="type-symbol" style="pointer-events: none;"><path transform="translate(7.5,7)" d="M0,3.989422804014327A3.989422804014327,3.989422804014327 0 1,1 0,-3.989422804014327A3.989422804014327,3.989422804014327 0 1,1 0,3.989422804014327Z" style="fill: none; stroke: rgb(217, 95, 2); stroke-width: 1; opacity: 1;"></path><path transform="translate(7.5,22)" d="M0,3.989422804014327A3.989422804014327,3.989422804014327 0 1,1 0,-3.989422804014327A3.989422804014327,3.989422804014327 0 1,1 0,3.989422804014327Z" style="fill: none; stroke: rgb(117, 112, 179); stroke-width: 1; opacity: 1;"></path><path transform="translate(7.5,37)" d="M0,3.989422804014327A3.989422804014327,3.989422804014327 0 1,1 0,-3.989422804014327A3.989422804014327,3.989422804014327 0 1,1 0,3.989422804014327Z" style="fill: none; stroke: rgb(27, 158, 119); stroke-width: 1; opacity: 1;"></path></g><g id="g570" class="type-text" style="pointer-events: none;"><text x="16" y="7" text-anchor="start" dy=".35em" style="font: 10px sans-serif; fill: rgb(0, 0, 0); opacity: 1;">Historical</text><text x="16" y="22" text-anchor="start" dy=".35em" style="font: 10px sans-serif; fill: rgb(0, 0, 0); opacity: 1;">Historical Trend</text><text x="16" y="37" text-anchor="start" dy=".35em" style="font: 10px sans-serif; fill: rgb(0, 0, 0); opacity: 1;">Bottom-up</text></g></g></g></g></g></g></svg>