<svg class="marks" width="1235" height="554" xmlns="http://www.w3.org/2000/svg"><g transform="translate(46,6)"><g id="g263" class="type-group"><g transform="translate(0,0)"><rect class="background" style="pointer-events: none; fill: none;" width="1066" height="500"></rect><g id="g264" class="type-group"><g transform="translate(0,500)"><rect class="background" style="pointer-events: none; fill: none;" width="0" height="0"></rect><g id="g265" class="type-rule" style="pointer-events: none;"><line x1="0.5" y1="-500" x2="0.5" y2="0" style="fill: none; stroke: rgb(216, 216, 216); stroke-width: 1; opacity: 1;"></line><line x1="118.94444444444444" y1="-500" x2="118.94444444444444" y2="0" style="fill: none; stroke: rgb(216, 216, 216); stroke-width: 1; opacity: 1;"></line><line x1="237.38888888888889" y1="-500" x2="237.38888888888889" y2="0" style="fill: none; stroke: rgb(216, 216, 216); stroke-width: 1; opacity: 1;"></line><line x1="355.8333333333333" y1="-500" x2="355.8333333333333" y2="0" style="fill: none; stroke: rgb(216, 216, 216); stroke-width: 1; opacity: 1;"></line><line x1="474.27777777777777" y1="-500" x2="474.27777777777777" y2="0" style="fill: none; stroke: rgb(216, 216, 216); stroke-width: 1; opacity: 1;"></line><line x1="592.7222222222223" y1="-500" x2="592.7222222222223" y2="0" style="fill: none; stroke: rgb(216, 216, 216); stroke-width: 1; opacity: 1;"></line><line x1="711.1666666666666" y1="-500" x2="711.1666666666666" y2="0" style="fill: none; stroke: rgb(216, 216, 216); stroke-width: 1; opacity: 1;"></line><line x1="829.6111111111111" y1="-500" x2="829.6111111111111" y2="0" style="fill: none; stroke: rgb(216, 216, 216); stroke-width: 1; opacity: 1;"></line><line x1="948.0555555555555" y1="-500" x2="948.0555555555555" y2="0" style="fill: none; stroke: rgb(216, 216, 216); stroke-width: 1; opacity: 1;"></line><line x1="1066.5" y1="-500" x2="1066.5" y2="0" style="fill: none; stroke: rgb(216, 216, 216); stroke-width: 1; opacity: 1;"></line></g><g id="g266" class="type-rule" style="pointer-events: none;"><line x1="0.5" y1="0" x2="0.5" y2="6" style="fill: none; stroke: rgb(0, 0, 0); stroke-width: 1; opacity: 1;"></line><line x1="118.94444444444444" y1="0" x2="118.94444444444444" y2="6" style="fill: none; stroke: rgb(0, 0, 0); stroke-width: 1; opacity: 1;"></line><line x1="237.38888888888889" y1="0" x2="237.38888888888889" y2="6" style="fill: none; stroke: rgb(0, 0, 0); stroke-width: 1; opacity: 1;"></line><line x1="355.8333333333333" y1="0" x2="355.8333333333333" y2="6" style="fill: none; stroke: rgb(0, 0, 0); stroke-width: 1; opacity: 1;"></line><line x1="474.27777777777777" y1="0" x2="474.27777777777777" y2="6" style="fill: none; stroke: rgb(0, 0, 0); stroke-width: 1; opacity: 1;"></line><line x1="592.7222222222223" y1="0" x2="592.7222222222223" y2="6" style="fill: none; stroke: rgb(0, 0, 0); stroke-width: 1; opacity: 1;"></line><line x1="711.1666666666666" y1="0" x2="711.1666666666666" y2="6" style="fill: none; stroke: rgb(0, 0, 0); stroke-width: 1; opacity: 1;"></line><line x1="829.6111111111111" y1="0" x2="829.6111111111111" y2="6" style="fill: none; stroke: rgb(0, 0, 0); stroke-width: 1; opacity: 1;"></line><line x1="948.0555555555555" y1="0" x2="948.0555555555555" y2="6" style="fill: none; stroke: rgb(0, 0, 0); stroke-width: 1; opacity: 1;"></line><line x1="1066.5" y1="0" x2="1066.5" y2="6" style="fill: none; stroke: rgb(0, 0, 0); stroke-width: 1; opacity: 1;"></line></g><g id="g267" class="type-rule" style="pointer-events: none;"></g><g id="g268" class="type-text"><text x="0.5" y="9" text-anchor="middle" dy=".9em" style="font: 11px sans-serif; fill: rgb(0, 0, 0); opacity: 1;">1970</text><text x="118.94444444444444" y="9" text-anchor="middle" dy=".9em" style="font: 11px sans-serif; fill: rgb(0, 0, 0); opacity: 1;">1980</text><text x="237.38888888888889" y="9" text-anchor="middle" dy=".9em" style="font: 11px sans-serif; fill: rgb(0, 0, 0); opacity: 1;">1990</text><text x="355.8333333333333" y="9" text-anchor="middle" dy=".9em" style="font: 11px sans-serif; fill: rgb(0, 0, 0); opacity: 1;">2000</text><text x="474.27777777777777" y="9" text-anchor="middle" dy=".9em" style="font: 11px sans-serif; fill: rgb(0, 0, 0); opacity: 1;">2010</text><text x="592.7222222222223" y="9" text-anchor="middle" dy=".9em" style="font: 11px sans-serif; fill: rgb(0, 0, 0); opacity: 1;">2020</text><text x="711.1666666666666" y="9" text-anchor="middle" dy=".9em" style="font: 11px sans-serif; fill: rgb(0, 0, 0); opacity: 1;">2030</text><text x="829.6111111111111" y="9" text-anchor="middle" dy=".9em" style="font: 11px sans-serif; fill: rgb(0, 0, 0); opacity: 1;">2040</text><text x="948.0555555555555" y="9" text-anchor="middle" dy=".9em" style="font: 11px sans-serif; fill: rgb(0, 0, 0); opacity: 1;">2050</text><text x="1066.5" y="9" text-anchor="middle" dy=".9em" style="font: 11px sans-serif; fill: rgb(0, 0, 0); opacity: 1;">2060</text></g><g id="g269" class="type-path" style="pointer-events: none;"><path transform="translate(0.5,0.5)" d="M0,6V0H1066V6" style="fill: none; stroke: rgb(0, 0, 0); stroke-width: 1;"></path></g><g id="g270" class="type-text"><text x="533" y="35" text-anchor="middle" dy=".35em" style="font: bold 11px sans-serif; fill: rgb(0, 0, 0);">Year</text></g></g></g><g id="g271" class="type-group"><g transform="translate(0,0)"><rect class="background" style="pointer-events: none; fill: none;" width="0" height="0"></rect><g id="g272" class="type-rule" style="pointer-events: none;"><line x1="0" y1="496.74504945937986" x2="1066" y2="496.74504945937986" style="fill: none; stroke: rgb(216, 216, 216); stroke-width: 1; opacity: 1;"></line><line x1="0" y1="444.3354296130386" x2="1066" y2="444.3354296130386" style="fill: none; stroke: rgb(216, 216, 216); stroke-width: 1; opacity: 1;"></line><line x1="0" y1="391.9258097666974" x2="1066" y2="391.9258097666974" style="fill: none; stroke: rgb(216, 216, 216); stroke-width: 1; opacity: 1;"></line><line x1="0" y1="339.5161899203561" x2="1066" y2="339.5161899203561" style="fill: none; stroke: rgb(216, 216, 216); stroke-width: 1; opacity: 1;"></line><line x1="0" y1="287.1065700740149" x2="1066" y2="287.1065700740149" style="fill: none; stroke: rgb(216, 216, 216); stroke-width: 1; opacity: 1;"></line><line x1="0" y1="234.69695022767363" x2="1066" y2="234.69695022767363" style="fill: none; stroke: rgb(216, 216, 216); stroke-width: 1; opacity: 1;"></line><line x1="0" y1="182.28733038133237" x2="1066" y2="182.28733038133237" style="fill: none; stroke: rgb(216, 216, 216); stroke-width: 1; opacity: 1;"></line><line x1="0" y1="129.87771053499108" x2="1066" y2="129.87771053499108" style="fill: none; stroke: rgb(216, 216, 216); stroke-width: 1; opacity: 1;"></line><line x1="0" y1="77.46809068864985" x2="1066" y2="77.46809068864985" style="fill: none; stroke: rgb(216, 216, 216); stroke-width: 1; opacity: 1;"></line><line x1="0" y1="25.058470842308612" x2="1066" y2="25.058470842308612" style="fill: none; stroke: rgb(216, 216, 216); stroke-width: 1; opacity: 1;"></line></g><g id="g273" class="type-rule" style="pointer-events: none;"><line x1="-6" y1="496.74504945937986" x2="0" y2="496.74504945937986" style="fill: none; stroke: rgb(0, 0, 0); stroke-width: 1; opacity: 1;"></line><line x1="-6" y1="444.3354296130386" x2="0" y2="444.3354296130386" style="fill: none; stroke: rgb(0, 0, 0); stroke-width: 1; opacity: 1;"></line><line x1="-6" y1="391.9258097666974" x2="0" y2="391.9258097666974" style="fill: none; stroke: rgb(0, 0, 0); stroke-width: 1; opacity: 1;"></line><line x1="-6" y1="339.5161899203561" x2="0" y2="339.5161899203561" style="fill: none; stroke: rgb(0, 0, 0); stroke-width: 1; opacity: 1;"></line><line x1="-6" y1="287.1065700740149" x2="0" y2="287.1065700740149" style="fill: none; stroke: rgb(0, 0, 0); stroke-width: 1; opacity: 1;"></line><line x1="-6" y1="234.69695022767363" x2="0" y2="234.69695022767363" style="fill: none; stroke: rgb(0, 0, 0); stroke-width: 1; opacity: 1;"></line><line x1="-6" y1="182.28733038133237" x2="0" y2="182.28733038133237" style="fill: none; stroke: rgb(0, 0, 0); stroke-width: 1; opacity: 1;"></line><line x1="-6" y1="129.87771053499108" x2="0" y2="129.87771053499108" style="fill: none; stroke: rgb(0, 0, 0); stroke-width: 1; opacity: 1;"></line><line x1="-6" y1="77.46809068864985" x2="0" y2="77.46809068864985" style="fill: none; stroke: rgb(0, 0, 0); stroke-width: 1; opacity: 1;"></line><line x1="-6" y1="25.058470842308612" x2="0" y2="25.058470842308612" style="fill: none; stroke: rgb(0, 0, 0); stroke-width: 1; opacity: 1;"></line></g><g id="g274" class="type-rule" style="pointer-events: none;"></g><g id="g275" class="type-text"><text x="-9" y="496.74504945937986" text-anchor="end" dy=".35em" style="font: 11px sans-serif; fill: rgb(0, 0, 0); opacity: 1;">0</text><text x="-9" y="444.3354296130386" text-anchor="end" dy=".35em" style="font: 11px sans-serif; fill: rgb(0, 0, 0); opacity: 1;">200</text><text x="-9" y="391.9258097666974" text-anchor="end" dy=".35em" style="font: 11px sans-serif; fill: rgb(0, 0, 0); opacity: 1;">400</text><text x="-9" y="339.5161899203561" text-anchor="end" dy=".35em" style="font: 11px sans-serif; fill: rgb(0, 0, 0); opacity: 1;">600</text><text x="-9" y="287.1065700740149" text-anchor="end" dy=".35em" style="font: 11px sans-serif; fill: rgb(0, 0, 0); opacity: 1;">800</text><text x="-9" y="234.69695022767363" text-anchor="end" dy=".35em" style="font: 11px sans-serif; fill: rgb(0, 0, 0); opacity: 1;">1,000</text><text x="-9" y="182.28733038133237" text-anchor="end" dy=".35em" style="font: 11px sans-serif; fill: rgb(0, 0, 0); opacity: 1;">1,200</text><text x="-9" y="129.87771053499108" text-anchor="end" dy=".35em" style="font: 11px sans-serif; fill: rgb(0, 0, 0); opacity: 1;">1,400</text><text x="-9" y="77.46809068864985" text-anchor="end" dy=".35em" style="font: 11px sans-serif; fill: rgb(0, 0, 0); opacity: 1;">1,600</text><text x="-9" y="25.058470842308612" text-anchor="end" dy=".35em" style="font: 11px sans-serif; fill: rgb(0, 0, 0); opacity: 1;">1,800</text></g><g id="g276" class="type-path" style="pointer-events: none;"><path transform="translate(0.5,0.5)" d="M-6,0H0V500H-6" style="fill: none; stroke: rgb(0, 0, 0); stroke-width: 1;"></path></g><g id="g277" class="type-text"><text x="-35" y="250" text-anchor="middle" transform="rotate(-90 -35,250)" dy=".35em" style="font: bold 11px sans-serif; fill: rgb(0, 0, 0);">CO2 intensity (tonnes / $ million GDP)</text></g></g></g><g id="g278" class="type-group"><g transform="translate(0,0)"><rect class="background" width="0" height="0" style="fill: none;"></rect><g id="g279" class="type-line"><path d="M556.6888888888889,359.9443022833491L568.5333333333333,367.85026108698014L580.3777777777777,375.2976443809407L592.2222222222223,382.3130512790503L604.0666666666666,388.92153804593295L615.911111111111,395.14670758810655L627.7555555555556,401.0107937542479L639.6,406.534740745726L651.4444444444445,411.7382779210223L663.2888888888889,416.63999026121417L675.1333333333333,421.25738474818996L686.9777777777779,425.60695289268085L698.8222222222222,429.7042296354267L710.6666666666666,433.56384883185416L722.5111111111112,437.1995955184321L734.3555555555555,440.62445514738135L746.1999999999999,443.85065996558535L758.0444444444445,446.8897327033481L769.8888888888889,449.75252772903787L781.7333333333332,452.449269816609L793.5777777777778,454.989590664458L805.4222222222222,457.38256329604803L817.2666666666668,459.6367344651699L829.1111111111111,461.7601551815714L840.9555555555555,463.7604094659871L852.8000000000001,465.644641437268L864.6444444444445,467.41958082835333L876.4888888888888,469.0915670222217L888.3333333333334,470.6665716936638L900.1777777777778,472.15022013774876L912.0222222222221,473.547811361158L923.8666666666667,474.86433700814507L935.7111111111111,476.10449918871944L947.5555555555555,477.27272727272737" style="fill: none; stroke: rgb(27, 158, 119); stroke-width: 2;"></path></g></g><g transform="translate(0,0)"><rect class="background" width="0" height="0" style="fill: none;"></rect><g id="g280" class="type-line"><path d="M118.44444444444444,22.727272727272542L130.2888888888889,35.572251677407685L142.13333333333333,57.17930719569142L153.97777777777776,79.48848491875937L165.82222222222222,103.15766795631825L177.66666666666666,99.1954945772061L189.51111111111112,100.29410924229477L201.35555555555555,118.06838394771574L213.20000000000002,138.88166500026145L225.04444444444445,153.3597006768243L236.88888888888889,149.32814333395106L248.73333333333335,139.71774504365004L260.5777777777778,151.7467474868338L272.4222222222222,168.36067632149297L284.26666666666665,188.44581490124406L296.11111111111114,197.51862383706487L307.9555555555555,194.32033799421868L319.8,215.54935383974143L331.64444444444445,223.3809628862704L343.48888888888894,236.19381387861986L355.3333333333333,238.04740640861306L367.17777777777775,239.39900603105323L379.02222222222224,254.72740494343205L390.8666666666666,258.40595413271706L402.7111111111111,261.646486389381L414.55555555555554,265.906556165423L426.40000000000003,270.21932983860944L438.2444444444444,279.2741050251122L450.0888888888889,281.4034503779694L461.93333333333334,290.9207237740401L473.77777777777777,288.0473522718717L485.6222222222222,304.49466834574844L497.4666666666667,300.9366253517748L509.31111111111113,309.90117874481615L521.1555555555556,330.58406214881796L533,341.50915782149485L544.8444444444444,353.2488924948888L556.6888888888889,359.9443022833491" style="fill: none; stroke: rgb(217, 95, 2); stroke-width: 2;"></path></g></g><g transform="translate(0,0)"><rect class="background" width="0" height="0" style="fill: none;"></rect><g id="g281" class="type-line"><path d="M118.44444444444444,26.30172246687612L130.2888888888889,40.07551163711437L142.13333333333333,53.44559836663609L153.97777777777776,66.42381495943111L165.82222222222222,79.0216469209622L177.66666666666666,91.2502431226182L189.51111111111112,103.12042566829638L201.35555555555555,114.64269947177874L213.20000000000002,125.82726155340917L225.04444444444445,136.68401006428894L236.88888888888889,147.22255304595998L248.73333333333335,157.45221693337845L260.5777777777778,167.38205480865147L272.4222222222222,177.02085441285388L284.26666666666665,186.3771459230391L296.11111111111114,195.45920950131855L307.9555555555555,204.27508262263544L319.8,212.83256718782212L331.64444444444445,221.13923642814305L343.48888888888894,229.20244160747853L355.3333333333333,237.02931852806597L367.17777777777775,244.62679384558294L379.02222222222224,252.00159119910103L390.8666666666666,259.16023716140626L402.7111111111111,266.1090670149049L414.55555555555554,272.8542303582427L426.40000000000003,279.4016965485957L438.2444444444444,285.7572599844577L450.0888888888889,291.92654523357777L461.93333333333334,297.91501201061465L473.77777777777777,303.7279600088921L485.6222222222222,309.37053359053766L497.4666666666667,314.8477263391623L509.31111111111113,320.1643854790921L521.1555555555556,325.3252161650842L533,330.3347856463114L544.8444444444444,335.1975273083L556.6888888888889,339.91774459640146L568.5333333333333,344.4996148242739L580.3777777777777,348.94719287072996L592.2222222222223,353.26441476823857L604.0666666666666,357.45510118625043L615.911111111111,361.52296081242406L627.7555555555556,365.47159363475276L639.6,369.3044941274984L651.4444444444445,373.02505434373535L663.2888888888889,376.6365669172672L675.1333333333333,380.1422279765498L686.9777777777779,383.5451399732117L698.8222222222222,386.84831442767575L710.6666666666666,390.05467459429923L722.5111111111112,393.1670580484078L734.3555555555555,396.18821919750343L746.1999999999999,399.12083171886707L758.0444444444445,401.9674909257192L769.8888888888889,404.7307160640308L781.7333333333332,407.4129525420108L793.5777777777778,410.01657409425286L805.4222222222222,412.5438848824523L817.2666666666668,414.99712153454857L829.1111111111111,417.3784551241049L840.9555555555555,419.68999309167407L852.8000000000001,421.93378110984344L864.6444444444445,424.111804893626L876.4888888888888,426.2259919577821L888.3333333333334,428.2782133226389L900.1777777777778,430.27028516991146L912.0222222222221,432.2039704499961L923.8666666666667,434.0809804421478L935.7111111111111,435.9029762689363L947.5555555555555,437.6715703663128" style="fill: none; stroke: rgb(117, 112, 179); stroke-width: 2;"></path></g></g></g><g id="g282" class="type-symbol"><path transform="translate(118.44444444444444,22.727272727272542)" d="M0,1.381976597885342A1.381976597885342,1.381976597885342 0 1,1 0,-1.381976597885342A1.381976597885342,1.381976597885342 0 1,1 0,1.381976597885342Z" style="fill: rgb(217, 95, 2); stroke: rgb(217, 95, 2);"></path><path transform="translate(130.2888888888889,35.572251677407685)" d="M0,1.381976597885342A1.381976597885342,1.381976597885342 0 1,1 0,-1.381976597885342A1.381976597885342,1.381976597885342 0 1,1 0,1.381976597885342Z" style="fill: rgb(217, 95, 2); stroke: rgb(217, 95, 2);"></path><path transform="translate(142.13333333333333,57.17930719569142)" d="M0,1.381976597885342A1.381976597885342,1.381976597885342 0 1,1 0,-1.381976597885342A1.381976597885342,1.381976597885342 0 1,1 0,1.381976597885342Z" style="fill: rgb(217, 95, 2); stroke: rgb(217, 95, 2);"></path><path transform="translate(153.97777777777776,79.48848491875937)" d="M0,1.381976597885342A1.381976597885342,1.381976597885342 0 1,1 0,-1.381976597885342A1.381976597885342,1.381976597885342 0 1,1 0,1.381976597885342Z" style="fill: rgb(217, 95, 2); stroke: rgb(217, 95, 2);"></path><path transform="translate(165.82222222222222,103.15766795631825)" d="M0,1.381976597885342A1.381976597885342,1.381976597885342 0 1,1 0,-1.381976597885342A1.381976597885342,1.381976597885342 0 1,1 0,1.381976597885342Z" style="fill: rgb(217, 95, 2); stroke: rgb(217, 95, 2);"></path><path transform="translate(177.66666666666666,99.1954945772061)" d="M0,1.381976597885342A1.381976597885342,1.381976597885342 0 1,1 0,-1.381976597885342A1.381976597885342,1.381976597885342 0 1,1 0,1.381976597885342Z" style="fill: rgb(217, 95, 2); stroke: rgb(217, 95, 2);"></path><path transform="translate(189.51111111111112,100.29410924229477)" d="M0,1.381976597885342A1.381976597885342,1.381976597885342 0 1,1 0,-1.381976597885342A1.381976597885342,1.381976597885342 0 1,1 0,1.381976597885342Z" style="fill: rgb(217, 95, 2); stroke: rgb(217, 95, 2);"></path><path transform="translate(201.35555555555555,118.06838394771574)" d="M0,1.381976597885342A1.381976597885342,1.381976597885342 0 1,1 0,-1.381976597885342A1.381976597885342,1.381976597885342 0 1,1 0,1.381976597885342Z" style="fill: rgb(217, 95, 2); stroke: rgb(217, 95, 2);"></path><path transform="translate(213.20000000000002,138.88166500026145)" d="M0,1.381976597885342A1.381976597885342,1.381976597885342 0 1,1 0,-1.381976597885342A1.381976597885342,1.381976597885342 0 1,1 0,1.381976597885342Z" style="fill: rgb(217, 95, 2); stroke: rgb(217, 95, 2);"></path><path transform="translate(225.04444444444445,153.3597006768243)" d="M0,1.381976597885342A1.381976597885342,1.381976597885342 0 1,1 0,-1.381976597885342A1.381976597885342,1.381976597885342 0 1,1 0,1.381976597885342Z" style="fill: rgb(217, 95, 2); stroke: rgb(217, 95, 2);"></path><path transform="translate(236.88888888888889,149.32814333395106)" d="M0,1.381976597885342A1.381976597885342,1.381976597885342 0 1,1 0,-1.381976597885342A1.381976597885342,1.381976597885342 0 1,1 0,1.381976597885342Z" style="fill: rgb(217, 95, 2); stroke: rgb(217, 95, 2);"></path><path transform="translate(248.73333333333335,139.71774504365004)" d="M0,1.381976597885342A1.381976597885342,1.381976597885342 0 1,1 0,-1.381976597885342A1.381976597885342,1.381976597885342 0 1,1 0,1.381976597885342Z" style="fill: rgb(217, 95, 2); stroke: rgb(217, 95, 2);"></path><path transform="translate(260.5777777777778,151.7467474868338)" d="M0,1.381976597885342A1.381976597885342,1.381976597885342 0 1,1 0,-1.381976597885342A1.381976597885342,1.381976597885342 0 1,1 0,1.381976597885342Z" style="fill: rgb(217, 95, 2); stroke: rgb(217, 95, 2);"></path><path transform="translate(272.4222222222222,168.36067632149297)" d="M0,1.381976597885342A1.381976597885342,1.381976597885342 0 1,1 0,-1.381976597885342A1.381976597885342,1.381976597885342 0 1,1 0,1.381976597885342Z" style="fill: rgb(217, 95, 2); stroke: rgb(217, 95, 2);"></path><path transform="translate(284.26666666666665,188.44581490124406)" d="M0,1.381976597885342A1.381976597885342,1.381976597885342 0 1,1 0,-1.381976597885342A1.381976597885342,1.381976597885342 0 1,1 0,1.381976597885342Z" style="fill: rgb(217, 95, 2); stroke: rgb(217, 95, 2);"></path><path transform="translate(296.11111111111114,197.51862383706487)" d="M0,1.381976597885342A1.381976597885342,1.381976597885342 0 1,1 0,-1.381976597885342A1.381976597885342,1.381976597885342 0 1,1 0,1.381976597885342Z" style="fill: rgb(217, 95, 2); stroke: rgb(217, 95, 2);"></path><path transform="translate(307.9555555555555,194.32033799421868)" d="M0,1.381976597885342A1.381976597885342,1.381976597885342 0 1,1 0,-1.381976597885342A1.381976597885342,1.381976597885342 0 1,1 0,1.381976597885342Z" style="fill: rgb(217, 95, 2); stroke: rgb(217, 95, 2);"></path><path transform="translate(319.8,215.54935383974143)" d="M0,1.381976597885342A1.381976597885342,1.381976597885342 0 1,1 0,-1.381976597885342A1.381976597885342,1.381976597885342 0 1,1 0,1.381976597885342Z" style="fill: rgb(217, 95, 2); stroke: rgb(217, 95, 2);"></path><path transform="translate(331.64444444444445,223.3809628862704)" d="M0,1.381976597885342A1.381976597885342,1.381976597885342 0 1,1 0,-1.381976597885342A1.381976597885342,1.381976597885342 0 1,1 0,1.381976597885342Z" style="fill: rgb(217, 95, 2); stroke: rgb(217, 95, 2);"></path><path transform="translate(343.48888888888894,236.19381387861986)" d="M0,1.381976597885342A1.381976597885342,1.381976597885342 0 1,1 0,-1.381976597885342A1.381976597885342,1.381976597885342 0 1,1 0,1.381976597885342Z" style="fill: rgb(217, 95, 2); stroke: rgb(217, 95, 2);"></path><path transform="translate(355.3333333333333,238.04740640861306)" d="M0,1.381976597885342A1.381976597885342,1.381976597885342 0 1,1 0,-1.381976597885342A1.381976597885342,1.381976597885342 0 1,1 0,1.381976597885342Z" style="fill: rgb(217, 95, 2); stroke: rgb(217, 95, 2);"></path><path transform="translate(367.17777777777775,239.39900603105323)" d="M0,1.381976597885342A1.381976597885342,1.381976597885342 0 1,1 0,-1.381976597885342A1.381976597885342,1.381976597885342 0 1,1 0,1.381976597885342Z" style="fill: rgb(217, 95, 2); stroke: rgb(217, 95, 2);"></path><path transform="translate(379.02222222222224,254.72740494343205)" d="M0,1.381976597885342A1.381976597885342,1.381976597885342 0 1,1 0,-1.381976597885342A1.381976597885342,1.381976597885342 0 1,1 0,1.381976597885342Z" style="fill: rgb(217, 95, 2); stroke: rgb(217, 95, 2);"></path><path transform="translate(390.8666666666666,258.40595413271706)" d="M0,1.381976597885342A1.381976597885342,1.381976597885342 0 1,1 0,-1.381976597885342A1.381976597885342,1.381976597885342 0 1,1 0,1.381976597885342Z" style="fill: rgb(217, 95, 2); stroke: rgb(217, 95, 2);"></path><path transform="translate(402.7111111111111,261.646486389381)" d="M0,1.381976597885342A1.381976597885342,1.381976597885342 0 1,1 0,-1.381976597885342A1.381976597885342,1.381976597885342 0 1,1 0,1.381976597885342Z" style="fill: rgb(217, 95, 2); stroke: rgb(217, 95, 2);"></path><path transform="translate(414.55555555555554,265.906556165423)" d="M0,1.381976597885342A1.381976597885342,1.381976597885342 0 1,1 0,-1.381976597885342A1.381976597885342,1.381976597885342 0 1,1 0,1.381976597885342Z" style="fill: rgb(217, 95, 2); stroke: rgb(217, 95, 2);"></path><path transform="translate(426.40000000000003,270.21932983860944)" d="M0,1.381976597885342A1.381976597885342,1.381976597885342 0 1,1 0,-1.381976597885342A1.381976597885342,1.381976597885342 0 1,1 0,1.381976597885342Z" style="fill: rgb(217, 95, 2); stroke: rgb(217, 95, 2);"></path><path transform="translate(438.2444444444444,279.2741050251122)" d="M0,1.381976597885342A1.381976597885342,1.381976597885342 0 1,1 0,-1.381976597885342A1.381976597885342,1.381976597885342 0 1,1 0,1.381976597885342Z" style="fill: rgb(217, 95, 2); stroke: rgb(217, 95, 2);"></path><path transform="translate(450.0888888888889,281.4034503779694)" d="M0,1.381976597885342A1.381976597885342,1.381976597885342 0 1,1 0,-1.381976597885342A1.381976597885342,1.381976597885342 0 1,1 0,1.381976597885342Z" style="fill: rgb(217, 95, 2); stroke: rgb(217, 95, 2);"></path><path transform="translate(461.93333333333334,290.9207237740401)" d="M0,1.381976597885342A1.381976597885342,1.381976597885342 0 1,1 0,-1.381976597885342A1.381976597885342,1.381976597885342 0 1,1 0,1.381976597885342Z" style="fill: rgb(217, 95, 2); stroke: rgb(217, 95, 2);"></path><path transform="translate(473.77777777777777,288.0473522718717)" d="M0,1.381976597885342A1.381976597885342,1.381976597885342 0 1,1 0,-1.381976597885342A1.381976597885342,1.381976597885342 0 1,1 0,1.381976597885342Z" style="fill: rgb(217, 95, 2); stroke: rgb(217, 95, 2);"></path><path transform="translate(485.6222222222222,304.49466834574844)" d="M0,1.381976597885342A1.381976597885342,1.381976597885342 0 1,1 0,-1.381976597885342A1.381976597885342,1.381976597885342 0 1,1 0,1.381976597885342Z" style="fill: rgb(217, 95, 2); stroke: rgb(217, 95, 2);"></path><path transform="translate(497.4666666666667,300.9366253517748)" d="M0,1.381976597885342A1.381976597885342,1.381976597885342 0 1,1 0,-1.381976597885342A1.381976597885342,1.381976597885342 0 1,1 0,1.381976597885342Z" style="fill: rgb(217, 95, 2); stroke: rgb(217, 95, 2);"></path><path transform="translate(509.31111111111113,309.90117874481615)" d="M0,1.381976597885342A1.381976597885342,1.381976597885342 0 1,1 0,-1.381976597885342A1.381976597885342,1.381976597885342 0 1,1 0,1.381976597885342Z" style="fill: rgb(217, 95, 2); stroke: rgb(217, 95, 2);"></path><path transform="translate(521.1555555555556,330.58406214881796)" d="M0,1.381976597885342A1.381976597885342,1.381976597885342 0 1,1 0,-1.381976597885342A1.381976597885342,1.381976597885342 0 1,1 0,1.381976597885342Z" style="fill: rgb(217, 95, 2); stroke: rgb(217, 95, 2);"></path><path transform="translate(533,341.50915782149485)" d="M0,1.381976597885342A1.381976597885342,1.381976597885342 0 1,1 0,-1.381976597885342A1.381976597885342,1.381976597885342 0 1,1 0,1.381976597885342Z" style="fill: rgb(217, 95, 2); stroke: rgb(217, 95, 2);"></path><path transform="translate(544.8444444444444,353.2488924948888)" d="M0,1.381976597885342A1.381976597885342,1.381976597885342 0 1,1 0,-1.381976597885342A1.381976597885342,1.381976597885342 0 1,1 0,1.381976597885342Z" style="fill: rgb(217, 95, 2); stroke: rgb(217, 95, 2);"></path><path transform="translate(556.6888888888889,359.9443022833491)" d="M0,1.381976597885342A1.381976597885342,1.381976597885342 0 1,1 0,-1.381976597885342A1.381976597885342,1.381976597885342 0 1,1 0,1.381976597885342Z" style="fill: rgb(217, 95, 2); stroke: rgb(217, 95, 2);"></path><path transform="translate(118.44444444444444,26.30172246687612)" d="M0,1.381976597885342A1.381976597885342,1.381976597885342 0 1,1 0,-1.381976597885342A1.381976597885342,1.381976597885342 0 1,1 0,1.381976597885342Z" style="fill: rgb(117, 112, 179); stroke: rgb(117, 112, 179);"></path><path transform="translate(130.2888888888889,40.07551163711437)" d="M0,1.381976597885342A1.381976597885342,1.381976597885342 0 1,1 0,-1.381976597885342A1.381976597885342,1.381976597885342 0 1,1 0,1.381976597885342Z" style="fill: rgb(117, 112, 179); stroke: rgb(117, 112, 179);"></path><path transform="translate(142.13333333333333,53.44559836663609)" d="M0,1.381976597885342A1.381976597885342,1.381976597885342 0 1,1 0,-1.381976597885342A1.381976597885342,1.381976597885342 0 1,1 0,1.381976597885342Z" style="fill: rgb(117, 112, 179); stroke: rgb(117, 112, 179);"></path><path transform="translate(153.97777777777776,66.42381495943111)" d="M0,1.381976597885342A1.381976597885342,1.381976597885342 0 1,1 0,-1.381976597885342A1.381976597885342,1.381976597885342 0 1,1 0,1.381976597885342Z" style="fill: rgb(117, 112, 179); stroke: rgb(117, 112, 179);"></path><path transform="translate(165.82222222222222,79.0216469209622)" d="M0,1.381976597885342A1.381976597885342,1.381976597885342 0 1,1 0,-1.381976597885342A1.381976597885342,1.381976597885342 0 1,1 0,1.381976597885342Z" style="fill: rgb(117, 112, 179); stroke: rgb(117, 112, 179);"></path><path transform="translate(177.66666666666666,91.2502431226182)" d="M0,1.381976597885342A1.381976597885342,1.381976597885342 0 1,1 0,-1.381976597885342A1.381976597885342,1.381976597885342 0 1,1 0,1.381976597885342Z" style="fill: rgb(117, 112, 179); stroke: rgb(117, 112, 179);"></path><path transform="translate(189.51111111111112,103.12042566829638)" d="M0,1.381976597885342A1.381976597885342,1.381976597885342 0 1,1 0,-1.381976597885342A1.381976597885342,1.381976597885342 0 1,1 0,1.381976597885342Z" style="fill: rgb(117, 112, 179); stroke: rgb(117, 112, 179);"></path><path transform="translate(201.35555555555555,114.64269947177874)" d="M0,1.381976597885342A1.381976597885342,1.381976597885342 0 1,1 0,-1.381976597885342A1.381976597885342,1.381976597885342 0 1,1 0,1.381976597885342Z" style="fill: rgb(117, 112, 179); stroke: rgb(117, 112, 179);"></path><path transform="translate(213.20000000000002,125.82726155340917)" d="M0,1.381976597885342A1.381976597885342,1.381976597885342 0 1,1 0,-1.381976597885342A1.381976597885342,1.381976597885342 0 1,1 0,1.381976597885342Z" style="fill: rgb(117, 112, 179); stroke: rgb(117, 112, 179);"></path><path transform="translate(225.04444444444445,136.68401006428894)" d="M0,1.381976597885342A1.381976597885342,1.381976597885342 0 1,1 0,-1.381976597885342A1.381976597885342,1.381976597885342 0 1,1 0,1.381976597885342Z" style="fill: rgb(117, 112, 179); stroke: rgb(117, 112, 179);"></path><path transform="translate(236.88888888888889,147.22255304595998)" d="M0,1.381976597885342A1.381976597885342,1.381976597885342 0 1,1 0,-1.381976597885342A1.381976597885342,1.381976597885342 0 1,1 0,1.381976597885342Z" style="fill: rgb(117, 112, 179); stroke: rgb(117, 112, 179);"></path><path transform="translate(248.73333333333335,157.45221693337845)" d="M0,1.381976597885342A1.381976597885342,1.381976597885342 0 1,1 0,-1.381976597885342A1.381976597885342,1.381976597885342 0 1,1 0,1.381976597885342Z" style="fill: rgb(117, 112, 179); stroke: rgb(117, 112, 179);"></path><path transform="translate(260.5777777777778,167.38205480865147)" d="M0,1.381976597885342A1.381976597885342,1.381976597885342 0 1,1 0,-1.381976597885342A1.381976597885342,1.381976597885342 0 1,1 0,1.381976597885342Z" style="fill: rgb(117, 112, 179); stroke: rgb(117, 112, 179);"></path><path transform="translate(272.4222222222222,177.02085441285388)" d="M0,1.381976597885342A1.381976597885342,1.381976597885342 0 1,1 0,-1.381976597885342A1.381976597885342,1.381976597885342 0 1,1 0,1.381976597885342Z" style="fill: rgb(117, 112, 179); stroke: rgb(117, 112, 179);"></path><path transform="translate(284.26666666666665,186.3771459230391)" d="M0,1.381976597885342A1.381976597885342,1.381976597885342 0 1,1 0,-1.381976597885342A1.381976597885342,1.381976597885342 0 1,1 0,1.381976597885342Z" style="fill: rgb(117, 112, 179); stroke: rgb(117, 112, 179);"></path><path transform="translate(296.11111111111114,195.45920950131855)" d="M0,1.381976597885342A1.381976597885342,1.381976597885342 0 1,1 0,-1.381976597885342A1.381976597885342,1.381976597885342 0 1,1 0,1.381976597885342Z" style="fill: rgb(117, 112, 179); stroke: rgb(117, 112, 179);"></path><path transform="translate(307.9555555555555,204.27508262263544)" d="M0,1.381976597885342A1.381976597885342,1.381976597885342 0 1,1 0,-1.381976597885342A1.381976597885342,1.381976597885342 0 1,1 0,1.381976597885342Z" style="fill: rgb(117, 112, 179); stroke: rgb(117, 112, 179);"></path><path transform="translate(319.8,212.83256718782212)" d="M0,1.381976597885342A1.381976597885342,1.381976597885342 0 1,1 0,-1.381976597885342A1.381976597885342,1.381976597885342 0 1,1 0,1.381976597885342Z" style="fill: rgb(117, 112, 179); stroke: rgb(117, 112, 179);"></path><path transform="translate(331.64444444444445,221.13923642814305)" d="M0,1.381976597885342A1.381976597885342,1.381976597885342 0 1,1 0,-1.381976597885342A1.381976597885342,1.381976597885342 0 1,1 0,1.381976597885342Z" style="fill: rgb(117, 112, 179); stroke: rgb(117, 112, 179);"></path><path transform="translate(343.48888888888894,229.20244160747853)" d="M0,1.381976597885342A1.381976597885342,1.381976597885342 0 1,1 0,-1.381976597885342A1.381976597885342,1.381976597885342 0 1,1 0,1.381976597885342Z" style="fill: rgb(117, 112, 179); stroke: rgb(117, 112, 179);"></path><path transform="translate(355.3333333333333,237.02931852806597)" d="M0,1.381976597885342A1.381976597885342,1.381976597885342 0 1,1 0,-1.381976597885342A1.381976597885342,1.381976597885342 0 1,1 0,1.381976597885342Z" style="fill: rgb(117, 112, 179); stroke: rgb(117, 112, 179);"></path><path transform="translate(367.17777777777775,244.62679384558294)" d="M0,1.381976597885342A1.381976597885342,1.381976597885342 0 1,1 0,-1.381976597885342A1.381976597885342,1.381976597885342 0 1,1 0,1.381976597885342Z" style="fill: rgb(117, 112, 179); stroke: rgb(117, 112, 179);"></path><path transform="translate(379.02222222222224,252.00159119910103)" d="M0,1.381976597885342A1.381976597885342,1.381976597885342 0 1,1 0,-1.381976597885342A1.381976597885342,1.381976597885342 0 1,1 0,1.381976597885342Z" style="fill: rgb(117, 112, 179); stroke: rgb(117, 112, 179);"></path><path transform="translate(390.8666666666666,259.16023716140626)" d="M0,1.381976597885342A1.381976597885342,1.381976597885342 0 1,1 0,-1.381976597885342A1.381976597885342,1.381976597885342 0 1,1 0,1.381976597885342Z" style="fill: rgb(117, 112, 179); stroke: rgb(117, 112, 179);"></path><path transform="translate(402.7111111111111,266.1090670149049)" d="M0,1.381976597885342A1.381976597885342,1.381976597885342 0 1,1 0,-1.381976597885342A1.381976597885342,1.381976597885342 0 1,1 0,1.381976597885342Z" style="fill: rgb(117, 112, 179); stroke: rgb(117, 112, 179);"></path><path transform="translate(414.55555555555554,272.8542303582427)" d="M0,1.381976597885342A1.381976597885342,1.381976597885342 0 1,1 0,-1.381976597885342A1.381976597885342,1.381976597885342 0 1,1 0,1.381976597885342Z" style="fill: rgb(117, 112, 179); stroke: rgb(117, 112, 179);"></path><path transform="translate(426.40000000000003,279.4016965485957)" d="M0,1.381976597885342A1.381976597885342,1.381976597885342 0 1,1 0,-1.381976597885342A1.381976597885342,1.381976597885342 0 1,1 0,1.381976597885342Z" style="fill: rgb(117, 112, 179); stroke: rgb(117, 112, 179);"></path><path transform="translate(438.2444444444444,285.7572599844577)" d="M0,1.381976597885342A1.381976597885342,1.381976597885342 0 1,1 0,-1.381976597885342A1.381976597885342,1.381976597885342 0 1,1 0,1.381976597885342Z" style="fill: rgb(117, 112, 179); stroke: rgb(117, 112, 179);"></path><path transform="translate(450.0888888888889,291.92654523357777)" d="M0,1.381976597885342A1.381976597885342,1.381976597885342 0 1,1 0,-1.381976597885342A1.381976597885342,1.381976597885342 0 1,1 0,1.381976597885342Z" style="fill: rgb(117, 112, 179); stroke: rgb(117, 112, 179);"></path><path transform="translate(461.93333333333334,297.91501201061465)" d="M0,1.381976597885342A1.381976597885342,1.381976597885342 0 1,1 0,-1.381976597885342A1.381976597885342,1.381976597885342 0 1,1 0,1.381976597885342Z" style="fill: rgb(117, 112, 179); stroke: rgb(117, 112, 179);"></path><path transform="translate(473.77777777777777,303.7279600088921)" d="M0,1.381976597885342A1.381976597885342,1.381976597885342 0 1,1 0,-1.381976597885342A1.381976597885342,1.381976597885342 0 1,1 0,1.381976597885342Z" style="fill: rgb(117, 112, 179); stroke: rgb(117, 112, 179);"></path><path transform="translate(485.6222222222222,309.37053359053766)" d="M0,1.381976597885342A1.381976597885342,1.381976597885342 0 1,1 0,-1.381976597885342A1.381976597885342,1.381976597885342 0 1,1 0,1.381976597885342Z" style="fill: rgb(117, 112, 179); stroke: rgb(117, 112, 179);"></path><path transform="translate(497.4666666666667,314.8477263391623)" d="M0,1.381976597885342A1.381976597885342,1.381976597885342 0 1,1 0,-1.381976597885342A1.381976597885342,1.381976597885342 0 1,1 0,1.381976597885342Z" style="fill: rgb(117, 112, 179); stroke: rgb(117, 112, 179);"></path><path transform="translate(509.31111111111113,320.1643854790921)" d="M0,1.381976597885342A1.381976597885342,1.381976597885342 0 1,1 0,-1.381976597885342A1.381976597885342,1.381976597885342 0 1,1 0,1.381976597885342Z" style="fill: rgb(117, 112, 179); stroke: rgb(117, 112, 179);"></path><path transform="translate(521.1555555555556,325.3252161650842)" d="M0,1.381976597885342A1.381976597885342,1.381976597885342 0 1,1 0,-1.381976597885342A1.381976597885342,1.381976597885342 0 1,1 0,1.381976597885342Z" style="fill: rgb(117, 112, 179); stroke: rgb(117, 112, 179);"></path><path transform="translate(533,330.3347856463114)" d="M0,1.381976597885342A1.381976597885342,1.381976597885342 0 1,1 0,-1.381976597885342A1.381976597885342,1.381976597885342 0 1,1 0,1.381976597885342Z" style="fill: rgb(117, 112, 179); stroke: rgb(117, 112, 179);"></path><path transform="translate(544.8444444444444,335.1975273083)" d="M0,1.381976597885342A1.381976597885342,1.381976597885342 0 1,1 0,-1.381976597885342A1.381976597885342,1.381976597885342 0 1,1 0,1.381976597885342Z" style="fill: rgb(117, 112, 179); stroke: rgb(117, 112, 179);"></path><path transform="translate(556.6888888888889,339.91774459640146)" d="M0,1.381976597885342A1.381976597885342,1.381976597885342 0 1,1 0,-1.381976597885342A1.381976597885342,1.381976597885342 0 1,1 0,1.381976597885342Z" style="fill: rgb(117, 112, 179); stroke: rgb(117, 112, 179);"></path><path transform="translate(568.5333333333333,344.4996148242739)" d="M0,1.381976597885342A1.381976597885342,1.381976597885342 0 1,1 0,-1.381976597885342A1.381976597885342,1.381976597885342 0 1,1 0,1.381976597885342Z" style="fill: rgb(117, 112, 179); stroke: rgb(117, 112, 179);"></path><path transform="translate(580.3777777777777,348.94719287072996)" d="M0,1.381976597885342A1.381976597885342,1.381976597885342 0 1,1 0,-1.381976597885342A1.381976597885342,1.381976597885342 0 1,1 0,1.381976597885342Z" style="fill: rgb(117, 112, 179); stroke: rgb(117, 112, 179);"></path><path transform="translate(592.2222222222223,353.26441476823857)" d="M0,1.381976597885342A1.381976597885342,1.381976597885342 0 1,1 0,-1.381976597885342A1.381976597885342,1.381976597885342 0 1,1 0,1.381976597885342Z" style="fill: rgb(117, 112, 179); stroke: rgb(117, 112, 179);"></path><path transform="translate(604.0666666666666,357.45510118625043)" d="M0,1.381976597885342A1.381976597885342,1.381976597885342 0 1,1 0,-1.381976597885342A1.381976597885342,1.381976597885342 0 1,1 0,1.381976597885342Z" style="fill: rgb(117, 112, 179); stroke: rgb(117, 112, 179);"></path><path transform="translate(615.911111111111,361.52296081242406)" d="M0,1.381976597885342A1.381976597885342,1.381976597885342 0 1,1 0,-1.381976597885342A1.381976597885342,1.381976597885342 0 1,1 0,1.381976597885342Z" style="fill: rgb(117, 112, 179); stroke: rgb(117, 112, 179);"></path><path transform="translate(627.7555555555556,365.47159363475276)" d="M0,1.381976597885342A1.381976597885342,1.381976597885342 0 1,1 0,-1.381976597885342A1.381976597885342,1.381976597885342 0 1,1 0,1.381976597885342Z" style="fill: rgb(117, 112, 179); stroke: rgb(117, 112, 179);"></path><path transform="translate(639.6,369.3044941274984)" d="M0,1.381976597885342A1.381976597885342,1.381976597885342 0 1,1 0,-1.381976597885342A1.381976597885342,1.381976597885342 0 1,1 0,1.381976597885342Z" style="fill: rgb(117, 112, 179); stroke: rgb(117, 112, 179);"></path><path transform="translate(651.4444444444445,373.02505434373535)" d="M0,1.381976597885342A1.381976597885342,1.381976597885342 0 1,1 0,-1.381976597885342A1.381976597885342,1.381976597885342 0 1,1 0,1.381976597885342Z" style="fill: rgb(117, 112, 179); stroke: rgb(117, 112, 179);"></path><path transform="translate(663.2888888888889,376.6365669172672)" d="M0,1.381976597885342A1.381976597885342,1.381976597885342 0 1,1 0,-1.381976597885342A1.381976597885342,1.381976597885342 0 1,1 0,1.381976597885342Z" style="fill: rgb(117, 112, 179); stroke: rgb(117, 112, 179);"></path><path transform="translate(675.1333333333333,380.1422279765498)" d="M0,1.381976597885342A1.381976597885342,1.381976597885342 0 1,1 0,-1.381976597885342A1.381976597885342,1.381976597885342 0 1,1 0,1.381976597885342Z" style="fill: rgb(117, 112, 179); stroke: rgb(117, 112, 179);"></path><path transform="translate(686.9777777777779,383.5451399732117)" d="M0,1.381976597885342A1.381976597885342,1.381976597885342 0 1,1 0,-1.381976597885342A1.381976597885342,1.381976597885342 0 1,1 0,1.381976597885342Z" style="fill: rgb(117, 112, 179); stroke: rgb(117, 112, 179);"></path><path transform="translate(698.8222222222222,386.84831442767575)" d="M0,1.381976597885342A1.381976597885342,1.381976597885342 0 1,1 0,-1.381976597885342A1.381976597885342,1.381976597885342 0 1,1 0,1.381976597885342Z" style="fill: rgb(117, 112, 179); stroke: rgb(117, 112, 179);"></path><path transform="translate(710.6666666666666,390.05467459429923)" d="M0,1.381976597885342A1.381976597885342,1.381976597885342 0 1,1 0,-1.381976597885342A1.381976597885342,1.381976597885342 0 1,1 0,1.381976597885342Z" style="fill: rgb(117, 112, 179); stroke: rgb(117, 112, 179);"></path><path transform="translate(722.5111111111112,393.1670580484078)" d="M0,1.381976597885342A1.381976597885342,1.381976597885342 0 1,1 0,-1.381976597885342A1.381976597885342,1.381976597885342 0 1,1 0,1.381976597885342Z" style="fill: rgb(117, 112, 179); stroke: rgb(117, 112, 179);"></path><path transform="translate(734.3555555555555,396.18821919750343)" d="M0,1.381976597885342A1.381976597885342,1.381976597885342 0 1,1 0,-1.381976597885342A1.381976597885342,1.381976597885342 0 1,1 0,1.381976597885342Z" style="fill: rgb(117, 112, 179); stroke: rgb(117, 112, 179);"></path><path transform="translate(746.1999999999999,399.12083171886707)" d="M0,1.381976597885342A1.381976597885342,1.381976597885342 0 1,1 0,-1.381976597885342A1.381976597885342,1.381976597885342 0 1,1 0,1.381976597885342Z" style="fill: rgb(117, 112, 179); stroke: rgb(117, 112, 179);"></path><path transform="translate(758.0444444444445,401.9674909257192)" d="M0,1.381976597885342A1.381976597885342,1.381976597885342 0 1,1 0,-1.381976597885342A1.381976597885342,1.381976597885342 0 1,1 0,1.381976597885342Z" style="fill: rgb(117, 112, 179); stroke: rgb(117, 112, 179);"></path><path transform="translate(769.8888888888889,404.7307160640308)" d="M0,1.381976597885342A1.381976597885342,1.381976597885342 0 1,1 0,-1.381976597885342A1.381976597885342,1.381976597885342 0 1,1 0,1.381976597885342Z" style="fill: rgb(117, 112, 179); stroke: rgb(117, 112, 179);"></path><path transform="translate(781.7333333333332,407.4129525420108)" d="M0,1.381976597885342A1.381976597885342,1.381976597885342 0 1,1 0,-1.381976597885342A1.381976597885342,1.381976597885342 0 1,1 0,1.381976597885342Z" style="fill: rgb(117, 112, 179); stroke: rgb(117, 112, 179);"></path><path transform="translate(793.5777777777778,410.01657409425286)" d="M0,1.381976597885342A1.381976597885342,1.381976597885342 0 1,1 0,-1.381976597885342A1.381976597885342,1.381976597885342 0 1,1 0,1.381976597885342Z" style="fill: rgb(117, 112, 179); stroke: rgb(117, 112, 179);"></path><path transform="translate(805.4222222222222,412.5438848824523)" d="M0,1.381976597885342A1.381976597885342,1.381976597885342 0 1,1 0,-1.381976597885342A1.381976597885342,1.381976597885342 0 1,1 0,1.381976597885342Z" style="fill: rgb(117, 112, 179); stroke: rgb(117, 112, 179);"></path><path transform="translate(817.2666666666668,414.99712153454857)" d="M0,1.381976597885342A1.381976597885342,1.381976597885342 0 1,1 0,-1.381976597885342A1.381976597885342,1.381976597885342 0 1,1 0,1.381976597885342Z" style="fill: rgb(117, 112, 179); stroke: rgb(117, 112, 179);"></path><path transform="translate(829.1111111111111,417.3784551241049)" d="M0,1.381976597885342A1.381976597885342,1.381976597885342 0 1,1 0,-1.381976597885342A1.381976597885342,1.381976597885342 0 1,1 0,1.381976597885342Z" style="fill: rgb(117, 112, 179); stroke: rgb(117, 112, 179);"></path><path transform="translate(840.9555555555555,419.68999309167407)" d="M0,1.381976597885342A1.381976597885342,1.381976597885342 0 1,1 0,-1.381976597885342A1.381976597885342,1.381976597885342 0 1,1 0,1.381976597885342Z" style="fill: rgb(117, 112, 179); stroke: rgb(117, 112, 179);"></path><path transform="translate(852.8000000000001,421.93378110984344)" d="M0,1.381976597885342A1.381976597885342,1.381976597885342 0 1,1 0,-1.381976597885342A1.381976597885342,1.381976597885342 0 1,1 0,1.381976597885342Z" style="fill: rgb(117, 112, 179); stroke: rgb(117, 112, 179);"></path><path transform="translate(864.6444444444445,424.111804893626)" d="M0,1.381976597885342A1.381976597885342,1.381976597885342 0 1,1 0,-1.381976597885342A1.381976597885342,1.381976597885342 0 1,1 0,1.381976597885342Z" style="fill: rgb(117, 112, 179); stroke: rgb(117, 112, 179);"></path><path transform="translate(876.4888888888888,426.2259919577821)" d="M0,1.381976597885342A1.381976597885342,1.381976597885342 0 1,1 0,-1.381976597885342A1.381976597885342,1.381976597885342 0 1,1 0,1.381976597885342Z" style="fill: rgb(117, 112, 179); stroke: rgb(117, 112, 179);"></path><path transform="translate(888.3333333333334,428.2782133226389)" d="M0,1.381976597885342A1.381976597885342,1.381976597885342 0 1,1 0,-1.381976597885342A1.381976597885342,1.381976597885342 0 1,1 0,1.381976597885342Z" style="fill: rgb(117, 112, 179); stroke: rgb(117, 112, 179);"></path><path transform="translate(900.1777777777778,430.27028516991146)" d="M0,1.381976597885342A1.381976597885342,1.381976597885342 0 1,1 0,-1.381976597885342A1.381976597885342,1.381976597885342 0 1,1 0,1.381976597885342Z" style="fill: rgb(117, 112, 179); stroke: rgb(117, 112, 179);"></path><path transform="translate(912.0222222222221,432.2039704499961)" d="M0,1.381976597885342A1.381976597885342,1.381976597885342 0 1,1 0,-1.381976597885342A1.381976597885342,1.381976597885342 0 1,1 0,1.381976597885342Z" style="fill: rgb(117, 112, 179); stroke: rgb(117, 112, 179);"></path><path transform="translate(923.8666666666667,434.0809804421478)" d="M0,1.381976597885342A1.381976597885342,1.381976597885342 0 1,1 0,-1.381976597885342A1.381976597885342,1.381976597885342 0 1,1 0,1.381976597885342Z" style="fill: rgb(117, 112, 179); stroke: rgb(117, 112, 179);"></path><path transform="translate(935.7111111111111,435.9029762689363)" d="M0,1.381976597885342A1.381976597885342,1.381976597885342 0 1,1 0,-1.381976597885342A1.381976597885342,1.381976597885342 0 1,1 0,1.381976597885342Z" style="fill: rgb(117, 112, 179); stroke: rgb(117, 112, 179);"></path><path transform="translate(947.5555555555555,437.6715703663128)" d="M0,1.381976597885342A1.381976597885342,1.381976597885342 0 1,1 0,-1.381976597885342A1.381976597885342,1.381976597885342 0 1,1 0,1.381976597885342Z" style="fill: rgb(117, 112, 179); stroke: rgb(117, 112, 179);"></path><path transform="translate(556.6888888888889,359.9443022833491)" d="M0,1.381976597885342A1.381976597885342,1.381976597885342 0 1,1 0,-1.381976597885342A1.381976597885342,1.381976597885342 0 1,1 0,1.381976597885342Z" style="fill: rgb(27, 158, 119); stroke: rgb(27, 158, 119);"></path><path transform="translate(568.5333333333333,367.85026108698014)" d="M0,1.381976597885342A1.381976597885342,1.381976597885342 0 1,1 0,-1.381976597885342A1.381976597885342,1.381976597885342 0 1,1 0,1.381976597885342Z" style="fill: rgb(27, 158, 119); stroke: rgb(27, 158, 119);"></path><path transform="translate(580.3777777777777,375.2976443809407)" d="M0,1.381976597885342A1.381976597885342,1.381976597885342 0 1,1 0,-1.381976597885342A1.381976597885342,1.381976597885342 0 1,1 0,1.381976597885342Z" style="fill: rgb(27, 158, 119); stroke: rgb(27, 158, 119);"></path><path transform="translate(592.2222222222223,382.3130512790503)" d="M0,1.381976597885342A1.381976597885342,1.381976597885342 0 1,1 0,-1.381976597885342A1.381976597885342,1.381976597885342 0 1,1 0,1.381976597885342Z" style="fill: rgb(27, 158, 119); stroke: rgb(27, 158, 119);"></path><path transform="translate(604.0666666666666,388.92153804593295)" d="M0,1.381976597885342A1.381976597885342,1.381976597885342 0 1,1 0,-1.381976597885342A1.381976597885342,1.381976597885342 0 1,1 0,1.381976597885342Z" style="fill: rgb(27, 158, 119); stroke: rgb(27, 158, 119);"></path><path transform="translate(615.911111111111,395.14670758810655)" d="M0,1.381976597885342A1.381976597885342,1.381976597885342 0 1,1 0,-1.381976597885342A1.381976597885342,1.381976597885342 0 1,1 0,1.381976597885342Z" style="fill: rgb(27, 158, 119); stroke: rgb(27, 158, 119);"></path><path transform="translate(627.7555555555556,401.0107937542479)" d="M0,1.381976597885342A1.381976597885342,1.381976597885342 0 1,1 0,-1.381976597885342A1.381976597885342,1.381976597885342 0 1,1 0,1.381976597885342Z" style="fill: rgb(27, 158, 119); stroke: rgb(27, 158, 119);"></path><path transform="translate(639.6,406.534740745726)" d="M0,1.381976597885342A1.381976597885342,1.381976597885342 0 1,1 0,-1.381976597885342A1.381976597885342,1.381976597885342 0 1,1 0,1.381976597885342Z" style="fill: rgb(27, 158, 119); stroke: rgb(27, 158, 119);"></path><path transform="translate(651.4444444444445,411.7382779210223)" d="M0,1.381976597885342A1.381976597885342,1.381976597885342 0 1,1 0,-1.381976597885342A1.381976597885342,1.381976597885342 0 1,1 0,1.381976597885342Z" style="fill: rgb(27, 158, 119); stroke: rgb(27, 158, 119);"></path><path transform="translate(663.2888888888889,416.63999026121417)" d="M0,1.381976597885342A1.381976597885342,1.381976597885342 0 1,1 0,-1.381976597885342A1.381976597885342,1.381976597885342 0 1,1 0,1.381976597885342Z" style="fill: rgb(27, 158, 119); stroke: rgb(27, 158, 119);"></path><path transform="translate(675.1333333333333,421.25738474818996)" d="M0,1.381976597885342A1.381976597885342,1.381976597885342 0 1,1 0,-1.381976597885342A1.381976597885342,1.381976597885342 0 1,1 0,1.381976597885342Z" style="fill: rgb(27, 158, 119); stroke: rgb(27, 158, 119);"></path><path transform="translate(686.9777777777779,425.60695289268085)" d="M0,1.381976597885342A1.381976597885342,1.381976597885342 0 1,1 0,-1.381976597885342A1.381976597885342,1.381976597885342 0 1,1 0,1.381976597885342Z" style="fill: rgb(27, 158, 119); stroke: rgb(27, 158, 119);"></path><path transform="translate(698.8222222222222,429.7042296354267)" d="M0,1.381976597885342A1.381976597885342,1.381976597885342 0 1,1 0,-1.381976597885342A1.381976597885342,1.381976597885342 0 1,1 0,1.381976597885342Z" style="fill: rgb(27, 158, 119); stroke: rgb(27, 158, 119);"></path><path transform="translate(710.6666666666666,433.56384883185416)" d="M0,1.381976597885342A1.381976597885342,1.381976597885342 0 1,1 0,-1.381976597885342A1.381976597885342,1.381976597885342 0 1,1 0,1.381976597885342Z" style="fill: rgb(27, 158, 119); stroke: rgb(27, 158, 119);"></path><path transform="translate(722.5111111111112,437.1995955184321)" d="M0,1.381976597885342A1.381976597885342,1.381976597885342 0 1,1 0,-1.381976597885342A1.381976597885342,1.381976597885342 0 1,1 0,1.381976597885342Z" style="fill: rgb(27, 158, 119); stroke: rgb(27, 158, 119);"></path><path transform="translate(734.3555555555555,440.62445514738135)" d="M0,1.381976597885342A1.381976597885342,1.381976597885342 0 1,1 0,-1.381976597885342A1.381976597885342,1.381976597885342 0 1,1 0,1.381976597885342Z" style="fill: rgb(27, 158, 119); stroke: rgb(27, 158, 119);"></path><path transform="translate(746.1999999999999,443.85065996558535)" d="M0,1.381976597885342A1.381976597885342,1.381976597885342 0 1,1 0,-1.381976597885342A1.381976597885342,1.381976597885342 0 1,1 0,1.381976597885342Z" style="fill: rgb(27, 158, 119); stroke: rgb(27, 158, 119);"></path><path transform="translate(758.0444444444445,446.8897327033481)" d="M0,1.381976597885342A1.381976597885342,1.381976597885342 0 1,1 0,-1.381976597885342A1.381976597885342,1.381976597885342 0 1,1 0,1.381976597885342Z" style="fill: rgb(27, 158, 119); stroke: rgb(27, 158, 119);"></path><path transform="translate(769.8888888888889,449.75252772903787)" d="M0,1.381976597885342A1.381976597885342,1.381976597885342 0 1,1 0,-1.381976597885342A1.381976597885342,1.381976597885342 0 1,1 0,1.381976597885342Z" style="fill: rgb(27, 158, 119); stroke: rgb(27, 158, 119);"></path><path transform="translate(781.7333333333332,452.449269816609)" d="M0,1.381976597885342A1.381976597885342,1.381976597885342 0 1,1 0,-1.381976597885342A1.381976597885342,1.381976597885342 0 1,1 0,1.381976597885342Z" style="fill: rgb(27, 158, 119); stroke: rgb(27, 158, 119);"></path><path transform="translate(793.5777777777778,454.989590664458)" d="M0,1.381976597885342A1.381976597885342,1.381976597885342 0 1,1 0,-1.381976597885342A1.381976597885342,1.381976597885342 0 1,1 0,1.381976597885342Z" style="fill: rgb(27, 158, 119); stroke: rgb(27, 158, 119);"></path><path transform="translate(805.4222222222222,457.38256329604803)" d="M0,1.381976597885342A1.381976597885342,1.381976597885342 0 1,1 0,-1.381976597885342A1.381976597885342,1.381976597885342 0 1,1 0,1.381976597885342Z" style="fill: rgb(27, 158, 119); stroke: rgb(27, 158, 119);"></path><path transform="translate(817.2666666666668,459.6367344651699)" d="M0,1.381976597885342A1.381976597885342,1.381976597885342 0 1,1 0,-1.381976597885342A1.381976597885342,1.381976597885342 0 1,1 0,1.381976597885342Z" style="fill: rgb(27, 158, 119); stroke: rgb(27, 158, 119);"></path><path transform="translate(829.1111111111111,461.7601551815714)" d="M0,1.381976597885342A1.381976597885342,1.381976597885342 0 1,1 0,-1.381976597885342A1.381976597885342,1.381976597885342 0 1,1 0,1.381976597885342Z" style="fill: rgb(27, 158, 119); stroke: rgb(27, 158, 119);"></path><path transform="translate(840.9555555555555,463.7604094659871)" d="M0,1.381976597885342A1.381976597885342,1.381976597885342 0 1,1 0,-1.381976597885342A1.381976597885342,1.381976597885342 0 1,1 0,1.381976597885342Z" style="fill: rgb(27, 158, 119); stroke: rgb(27, 158, 119);"></path><path transform="translate(852.8000000000001,465.644641437268)" d="M0,1.381976597885342A1.381976597885342,1.381976597885342 0 1,1 0,-1.381976597885342A1.381976597885342,1.381976597885342 0 1,1 0,1.381976597885342Z" style="fill: rgb(27, 158, 119); stroke: rgb(27, 158, 119);"></path><path transform="translate(864.6444444444445,467.41958082835333)" d="M0,1.381976597885342A1.381976597885342,1.381976597885342 0 1,1 0,-1.381976597885342A1.381976597885342,1.381976597885342 0 1,1 0,1.381976597885342Z" style="fill: rgb(27, 158, 119); stroke: rgb(27, 158, 119);"></path><path transform="translate(876.4888888888888,469.0915670222217)" d="M0,1.381976597885342A1.381976597885342,1.381976597885342 0 1,1 0,-1.381976597885342A1.381976597885342,1.381976597885342 0 1,1 0,1.381976597885342Z" style="fill: rgb(27, 158, 119); stroke: rgb(27, 158, 119);"></path><path transform="translate(888.3333333333334,470.6665716936638)" d="M0,1.381976597885342A1.381976597885342,1.381976597885342 0 1,1 0,-1.381976597885342A1.381976597885342,1.381976597885342 0 1,1 0,1.381976597885342Z" style="fill: rgb(27, 158, 119); stroke: rgb(27, 158, 119);"></path><path transform="translate(900.1777777777778,472.15022013774876)" d="M0,1.381976597885342A1.381976597885342,1.381976597885342 0 1,1 0,-1.381976597885342A1.381976597885342,1.381976597885342 0 1,1 0,1.381976597885342Z" style="fill: rgb(27, 158, 119); stroke: rgb(27, 158, 119);"></path><path transform="translate(912.0222222222221,473.547811361158)" d="M0,1.381976597885342A1.381976597885342,1.381976597885342 0 1,1 0,-1.381976597885342A1.381976597885342,1.381976597885342 0 1,1 0,1.381976597885342Z" style="fill: rgb(27, 158, 119); stroke: rgb(27, 158, 119);"></path><path transform="translate(923.8666666666667,474.86433700814507)" d="M0,1.381976597885342A1.381976597885342,1.381976597885342 0 1,1 0,-1.381976597885342A1.381976597885342,1.381976597885342 0 1,1 0,1.381976597885342Z" style="fill: rgb(27, 158, 119); stroke: rgb(27, 158, 119);"></path><path transform="translate(935.7111111111111,476.10449918871944)" d="M0,1.381976597885342A1.381976597885342,1.381976597885342 0 1,1 0,-1.381976597885342A1.381976597885342,1.381976597885342 0 1,1 0,1.381976597885342Z" style="fill: rgb(27, 158, 119); stroke: rgb(27, 158, 119);"></path><path transform="translate(947.5555555555555,477.27272727272737)" d="M0,1.381976597885342A1.381976597885342,1.381976597885342 0 1,1 0,-1.381976597885342A1.381976597885342,1.381976597885342 0 1,1 0,1.381976597885342Z" style="fill: rgb(27, 158, 119); stroke: rgb(27, 158, 119);"></path></g><g id="g283" class="type-group"><g transform="translate(1090,0.5)"><rect class="background" style="pointer-events: none; fill: none;" width="94" height="48"></rect><g id="g284" class="type-text" style="pointer-events: none;"></g><g id="g285" class="type-symbol" style="pointer-events: none;"><path transform="translate(7.5,7)" d="M0,3.989422804014327A3.989422804014327,3.989422804014327 0 1,1 0,-3.989422804014327A3.989422804014327,3.989422804014327 0 1,1 0,3.989422804014327Z" style="fill: rgb(217, 95, 2); stroke: rgb(136, 136, 136); stroke-width: 1; opacity: 1;"></path><path transform="translate(7.5,22)" d="M0,3.989422804014327A3.989422804014327,3.989422804014327 0 1,1 0,-3.989422804014327A3.989422804014327,3.989422804014327 0 1,1 0,3.989422804014327Z" style="fill: rgb(117, 112, 179); stroke: rgb(136, 136, 136); stroke-width: 1; opacity: 1;"></path><path transform="translate(7.5,37)" d="M0,3.989422804014327A3.989422804014327,3.989422804014327 0 1,1 0,-3.989422804014327A3.989422804014327,3.989422804014327 0 1,1 0,3.989422804014327Z" style="fill: rgb(27, 158, 119); stroke: rgb(136, 136, 136); stroke-width: 1; opacity: 1;"></path></g><g id="g286" class="type-text" style="pointer-events: none;"><text x="16" y="7" text-anchor="start" dy=".35em" style="font: 10px sans-serif; fill: rgb(0, 0, 0); opacity: 1;">Historical</text><text x="16" y="22" text-anchor="start" dy=".35em" style="font: 10px sans-serif; fill: rgb(0, 0, 0); opacity: 1;">Historical Trend</text><text x="16" y="37" text-anchor="start" dy=".35em" style="font: 10px sans-serif; fill: rgb(0, 0, 0); opacity: 1;">Bottom-up</text></g></g></g><g id="g287" class="type-group"><g transform="translate(1090,0.5)"><rect class="background" style="pointer-events: none; fill: none;" width="94" height="48"></rect><g id="g288" class="type-text" style="pointer-events: none;"></g><g id="g289" class="type-symbol" style="pointer-events: none;"><path transform="translate(7.5,7)" d="M0,3.989422804014327A3.989422804014327,3.989422804014327 0 1,1 0,-3.989422804014327A3.989422804014327,3.989422804014327 0 1,1 0,3.989422804014327Z" style="fill: none; stroke: rgb(217, 95, 2); stroke-width: 1; opacity: 1;"></path><path transform="translate(7.5,22)" d="M0,3.989422804014327A3.989422804014327,3.989422804014327 0 1,1 0,-3.989422804014327A3.989422804014327,3.989422804014327 0 1,1 0,3.989422804014327Z" style="fill: none; stroke: rgb(117, 112, 179); stroke-width: 1; opacity: 1;"></path><path transform="translate(7.5,37)" d="M0,3.989422804014327A3.989422804014327,3.989422804014327 0 1,1 0,-3.989422804014327A3.989422804014327,3.989422804014327 0 1,1 0,3.989422804014327Z" style="fill: none; stroke: rgb(27, 158, 119); stroke-width: 1; opacity: 1;"></path></g><g id="g290" class="type-text" style="pointer-events: none;"><text x="16" y="7" text-anchor="start" dy=".35em" style="font: 10px sans-serif; fill: rgb(0, 0, 0); opacity: 1;">Historical</text><text x="16" y="22" text-anchor="start" dy=".35em" style="font: 10px sans-serif; fill: rgb(0, 0, 0); opacity: 1;">Historical Trend</text><text x="16" y="37" text-anchor="start" dy=".35em" style="font: 10px sans-serif; fill: rgb(0, 0, 0); opacity: 1;">Bottom-up</text></g></g></g></g></g></g></svg>